G04 #@! TF.FileFunction,Soldermask,Top*
%FSLAX46Y46*%
G04 Gerber Fmt 4.6, Leading zero omitted, Abs format (unit mm)*
G04 Created by KiCad (PCBNEW 4.0.7) date Tue Jan 30 18:32:58 2018*
%MOMM*%
%LPD*%
G01*
G04 APERTURE LIST*
%ADD10C,0.100000*%
%ADD11C,0.150000*%
%ADD12O,1.300000X2.900000*%
%ADD13O,2.900000X1.300000*%
%ADD14R,6.400000X6.400000*%
%ADD15O,2.127200X2.127200*%
%ADD16R,2.127200X2.127200*%
%ADD17C,3.400000*%
%ADD18R,2.400000X2.000000*%
%ADD19R,2.000200X3.399740*%
%ADD20R,2.051000X3.448000*%
%ADD21R,6.496000X6.496000*%
%ADD22C,1.299160*%
%ADD23R,2.100000X2.100000*%
%ADD24O,2.100000X2.100000*%
%ADD25R,2.200000X2.200000*%
%ADD26C,2.200000*%
%ADD27C,2.400000*%
G04 APERTURE END LIST*
D10*
D11*
X109800000Y-113600000D02*
X109800000Y-69600000D01*
X153800000Y-113600000D02*
X109800000Y-113600000D01*
X153800000Y-69600000D02*
X153800000Y-113600000D01*
X109800000Y-69600000D02*
X153800000Y-69600000D01*
D12*
X150425000Y-100125000D03*
X149155000Y-100125000D03*
X147885000Y-100125000D03*
X146615000Y-100125000D03*
X145345000Y-100125000D03*
X144075000Y-100125000D03*
X142805000Y-100125000D03*
X141535000Y-100125000D03*
X140265000Y-100125000D03*
X138995000Y-100125000D03*
X137725000Y-100125000D03*
X136455000Y-100125000D03*
X135185000Y-100125000D03*
X133915000Y-100125000D03*
D13*
X132425000Y-96840000D03*
X132425000Y-95570000D03*
X132425000Y-94300000D03*
X132425000Y-93030000D03*
X132425000Y-91760000D03*
X132425000Y-90490000D03*
X132425000Y-89220000D03*
X132425000Y-87950000D03*
X132425000Y-86680000D03*
X132425000Y-85410000D03*
D12*
X133915000Y-82125000D03*
X135185000Y-82125000D03*
X136455000Y-82125000D03*
X137725000Y-82125000D03*
X138995000Y-82125000D03*
X140265000Y-82125000D03*
X141535000Y-82125000D03*
X142805000Y-82125000D03*
X144075000Y-82125000D03*
X145345000Y-82125000D03*
X146615000Y-82125000D03*
X147885000Y-82125000D03*
X149155000Y-82125000D03*
X150425000Y-82125000D03*
D14*
X142725000Y-90825000D03*
D15*
X135640000Y-73060000D03*
X135640000Y-75600000D03*
X138180000Y-73060000D03*
X138180000Y-75600000D03*
X140720000Y-73060000D03*
X140720000Y-75600000D03*
X143260000Y-73060000D03*
X143260000Y-75600000D03*
X145800000Y-73060000D03*
D16*
X145800000Y-75600000D03*
D17*
X113300000Y-109600000D03*
X113300000Y-72700000D03*
X150300000Y-109600000D03*
X150300000Y-72600000D03*
D18*
X120590000Y-84820000D03*
X124590000Y-84820000D03*
D19*
X115564920Y-77820520D03*
X115564920Y-82219800D03*
D20*
X120104000Y-81230000D03*
D21*
X122390000Y-74880000D03*
D20*
X124676000Y-81230000D03*
D22*
X115300900Y-92674640D03*
X115300900Y-88275360D03*
D23*
X120975000Y-103600000D03*
D24*
X120975000Y-101060000D03*
X120975000Y-98520000D03*
X120975000Y-95980000D03*
D23*
X117125000Y-98525000D03*
D24*
X117125000Y-101065000D03*
X117125000Y-103605000D03*
D23*
X124825000Y-93425000D03*
D24*
X124825000Y-95965000D03*
X124825000Y-98505000D03*
X124825000Y-101045000D03*
X124825000Y-103585000D03*
D25*
X122700000Y-108975000D03*
D26*
X125240000Y-108975000D03*
D27*
X145325000Y-104850000D03*
X145325000Y-109350000D03*
X138825000Y-104850000D03*
X138825000Y-109350000D03*
X129225000Y-109350000D03*
X129225000Y-104850000D03*
X135725000Y-109350000D03*
X135725000Y-104850000D03*
D23*
X128580000Y-93040000D03*
D24*
X128580000Y-90500000D03*
X128580000Y-87960000D03*
X128580000Y-85420000D03*
M02*
