G04 #@! TF.FileFunction,Copper,L1,Top,Signal*
%FSLAX46Y46*%
G04 Gerber Fmt 4.6, Leading zero omitted, Abs format (unit mm)*
G04 Created by KiCad (PCBNEW 4.0.7) date Tue Jan 30 18:32:58 2018*
%MOMM*%
%LPD*%
G01*
G04 APERTURE LIST*
%ADD10C,0.100000*%
%ADD11C,0.150000*%
%ADD12O,0.900000X2.500000*%
%ADD13O,2.500000X0.900000*%
%ADD14R,6.000000X6.000000*%
%ADD15O,1.727200X1.727200*%
%ADD16R,1.727200X1.727200*%
%ADD17R,2.000000X1.600000*%
%ADD18R,1.600200X2.999740*%
%ADD19R,1.651000X3.048000*%
%ADD20R,6.096000X6.096000*%
%ADD21R,1.700000X1.700000*%
%ADD22O,1.700000X1.700000*%
%ADD23R,1.800000X1.800000*%
%ADD24C,1.800000*%
%ADD25C,2.000000*%
%ADD26C,0.800000*%
%ADD27C,1.200000*%
%ADD28C,0.250000*%
%ADD29C,0.254000*%
%ADD30C,0.381000*%
%ADD31C,0.762000*%
%ADD32C,0.508000*%
%ADD33C,0.635000*%
%ADD34C,0.200000*%
G04 APERTURE END LIST*
D10*
D11*
X109800000Y-113600000D02*
X109800000Y-69600000D01*
X153800000Y-113600000D02*
X109800000Y-113600000D01*
X153800000Y-69600000D02*
X153800000Y-113600000D01*
X109800000Y-69600000D02*
X153800000Y-69600000D01*
D12*
X150425000Y-100125000D03*
X149155000Y-100125000D03*
X147885000Y-100125000D03*
X146615000Y-100125000D03*
X145345000Y-100125000D03*
X144075000Y-100125000D03*
X142805000Y-100125000D03*
X141535000Y-100125000D03*
X140265000Y-100125000D03*
X138995000Y-100125000D03*
X137725000Y-100125000D03*
X136455000Y-100125000D03*
X135185000Y-100125000D03*
X133915000Y-100125000D03*
D13*
X132425000Y-96840000D03*
X132425000Y-95570000D03*
X132425000Y-94300000D03*
X132425000Y-93030000D03*
X132425000Y-91760000D03*
X132425000Y-90490000D03*
X132425000Y-89220000D03*
X132425000Y-87950000D03*
X132425000Y-86680000D03*
X132425000Y-85410000D03*
D12*
X133915000Y-82125000D03*
X135185000Y-82125000D03*
X136455000Y-82125000D03*
X137725000Y-82125000D03*
X138995000Y-82125000D03*
X140265000Y-82125000D03*
X141535000Y-82125000D03*
X142805000Y-82125000D03*
X144075000Y-82125000D03*
X145345000Y-82125000D03*
X146615000Y-82125000D03*
X147885000Y-82125000D03*
X149155000Y-82125000D03*
X150425000Y-82125000D03*
D14*
X142725000Y-90825000D03*
D15*
X135640000Y-73060000D03*
X135640000Y-75600000D03*
X138180000Y-73060000D03*
X138180000Y-75600000D03*
X140720000Y-73060000D03*
X140720000Y-75600000D03*
X143260000Y-73060000D03*
X143260000Y-75600000D03*
X145800000Y-73060000D03*
D16*
X145800000Y-75600000D03*
D17*
X120590000Y-84820000D03*
X124590000Y-84820000D03*
D18*
X115564920Y-77820520D03*
X115564920Y-82219800D03*
D19*
X120104000Y-81230000D03*
D20*
X122390000Y-74880000D03*
D19*
X124676000Y-81230000D03*
D21*
X120975000Y-103600000D03*
D22*
X120975000Y-101060000D03*
X120975000Y-98520000D03*
X120975000Y-95980000D03*
D21*
X117125000Y-98525000D03*
D22*
X117125000Y-101065000D03*
X117125000Y-103605000D03*
D21*
X124825000Y-93425000D03*
D22*
X124825000Y-95965000D03*
X124825000Y-98505000D03*
X124825000Y-101045000D03*
X124825000Y-103585000D03*
D23*
X122700000Y-108975000D03*
D24*
X125240000Y-108975000D03*
D25*
X145325000Y-104850000D03*
X145325000Y-109350000D03*
X138825000Y-104850000D03*
X138825000Y-109350000D03*
X129225000Y-109350000D03*
X129225000Y-104850000D03*
X135725000Y-109350000D03*
X135725000Y-104850000D03*
D21*
X128580000Y-93040000D03*
D22*
X128580000Y-90500000D03*
X128580000Y-87960000D03*
X128580000Y-85420000D03*
D26*
X133925000Y-80850000D03*
X140350000Y-86400000D03*
X139700000Y-102200000D03*
X142025000Y-102225000D03*
X124140000Y-88540000D03*
X119700000Y-92325000D03*
D27*
X142725000Y-90825000D03*
D26*
X130875000Y-85375000D03*
X150425000Y-80675000D03*
X150450000Y-101700000D03*
X148130000Y-84750000D03*
X122410000Y-74900000D03*
X134920000Y-84730000D03*
X125950000Y-86980000D03*
X134920000Y-96150000D03*
X135900000Y-102130000D03*
X147900000Y-80700000D03*
X133175000Y-101725000D03*
X136780000Y-95140000D03*
X136350000Y-91420000D03*
D28*
X141535000Y-82125000D02*
X141535000Y-79685000D01*
X136900000Y-74400000D02*
X135640000Y-73060000D01*
X136900000Y-77475000D02*
X136900000Y-74400000D01*
X137650000Y-78300000D02*
X136900000Y-77475000D01*
X140150000Y-78300000D02*
X137650000Y-78300000D01*
X141535000Y-79685000D02*
X140150000Y-78300000D01*
X137660000Y-79350000D02*
X137210000Y-79350000D01*
X135680000Y-77700000D02*
X135640000Y-77700000D01*
X135640000Y-77740000D02*
X135680000Y-77700000D01*
X135640000Y-77780000D02*
X135640000Y-77740000D01*
X137210000Y-79350000D02*
X135640000Y-77780000D01*
X140265000Y-82125000D02*
X140265000Y-79815000D01*
X135640000Y-77700000D02*
X135640000Y-75600000D01*
X139800000Y-79350000D02*
X137660000Y-79350000D01*
X140265000Y-79815000D02*
X139800000Y-79350000D01*
D29*
X144075000Y-82125000D02*
X144075000Y-81100000D01*
X144075000Y-81100000D02*
X139460000Y-76485000D01*
X139460000Y-74340000D02*
X138180000Y-73060000D01*
X139460000Y-76485000D02*
X139460000Y-74340000D01*
D28*
X144075000Y-81100000D02*
X139475000Y-76500000D01*
X139475000Y-76500000D02*
X139475000Y-74355000D01*
X139475000Y-74355000D02*
X138180000Y-73060000D01*
D30*
X138180000Y-73060000D02*
X138080040Y-73060000D01*
D28*
X133915000Y-82125000D02*
X133915000Y-80860000D01*
X133915000Y-80860000D02*
X133925000Y-80850000D01*
X140350000Y-86400000D02*
X147800000Y-86400000D01*
X147870000Y-86440000D02*
X147870000Y-86470000D01*
X147840000Y-86440000D02*
X147870000Y-86440000D01*
X147800000Y-86400000D02*
X147840000Y-86440000D01*
D29*
X149155000Y-100125000D02*
X149155000Y-87755000D01*
X149155000Y-87755000D02*
X147870000Y-86470000D01*
X140265000Y-100125000D02*
X140265000Y-101635000D01*
X140265000Y-101635000D02*
X139700000Y-102200000D01*
X141535000Y-100125000D02*
X141535000Y-101735000D01*
X141535000Y-101735000D02*
X142025000Y-102225000D01*
D31*
X124590000Y-84820000D02*
X124590000Y-81316000D01*
X124590000Y-81316000D02*
X124676000Y-81230000D01*
X124590000Y-84820000D02*
X124690000Y-84820000D01*
X124690000Y-84820000D02*
X127640000Y-81870000D01*
X127640000Y-81870000D02*
X127640000Y-71848269D01*
D32*
X124140000Y-88540000D02*
X124194320Y-88594320D01*
X124194320Y-88594320D02*
X124194320Y-88671400D01*
D33*
X122240720Y-90625000D02*
X124194320Y-88671400D01*
D31*
X145800000Y-73060000D02*
X145800000Y-72150000D01*
X128675000Y-70800000D02*
X127640000Y-71848269D01*
X144750000Y-70775000D02*
X128675000Y-70800000D01*
X145800000Y-72150000D02*
X144750000Y-70775000D01*
X124551440Y-84851240D02*
X124551440Y-88314280D01*
X124551440Y-88314280D02*
X124322840Y-88542880D01*
D32*
X145800000Y-75600000D02*
X145800000Y-73060000D01*
D33*
X121400000Y-90625000D02*
X122240720Y-90625000D01*
X119700000Y-92325000D02*
X121400000Y-90625000D01*
D32*
X150425000Y-100125000D02*
X150425000Y-101675000D01*
X150425000Y-101675000D02*
X150450000Y-101700000D01*
X132425000Y-85410000D02*
X130910000Y-85410000D01*
X130910000Y-85410000D02*
X130875000Y-85375000D01*
D28*
X150425000Y-82125000D02*
X150425000Y-80675000D01*
D31*
X115656360Y-82219800D02*
X115564920Y-82219800D01*
D30*
X115564920Y-77820520D02*
X119449480Y-77820520D01*
X119449480Y-77820520D02*
X122390000Y-74880000D01*
D32*
X148130000Y-84750000D02*
X148130000Y-84495000D01*
X148130000Y-84495000D02*
X149155000Y-83470000D01*
X149155000Y-82125000D02*
X149155000Y-83470000D01*
X148130000Y-84750000D02*
X134920000Y-84730000D01*
X122410000Y-74900000D02*
X122300440Y-75009560D01*
D28*
X117125000Y-103605000D02*
X113455000Y-103605000D01*
X113275000Y-80110440D02*
X115564920Y-77820520D01*
X113275000Y-103425000D02*
X113275000Y-80110440D01*
X113455000Y-103605000D02*
X113275000Y-103425000D01*
X125435000Y-103585000D02*
X120990000Y-103585000D01*
X120990000Y-103585000D02*
X120970000Y-103605000D01*
X120970000Y-103605000D02*
X117125000Y-103605000D01*
X135185000Y-82125000D02*
X135185000Y-80005000D01*
X125950000Y-85640000D02*
X125950000Y-86980000D01*
X132210000Y-79380000D02*
X125950000Y-85640000D01*
X134560000Y-79380000D02*
X132210000Y-79380000D01*
X135185000Y-80005000D02*
X134560000Y-79380000D01*
X132425000Y-86680000D02*
X127720000Y-86680000D01*
X120975000Y-93425000D02*
X120975000Y-95980000D01*
X127720000Y-86680000D02*
X120975000Y-93425000D01*
X136005000Y-96495000D02*
X136005000Y-96555000D01*
X136950000Y-97500000D02*
X143520000Y-97500000D01*
X136005000Y-96555000D02*
X136950000Y-97500000D01*
X134920000Y-96150000D02*
X135660000Y-96150000D01*
X143520000Y-97500000D02*
X144075000Y-98055000D01*
X135660000Y-96150000D02*
X136005000Y-96495000D01*
X144075000Y-100125000D02*
X144075000Y-98055000D01*
X144175000Y-100225000D02*
X144075000Y-100125000D01*
X129775000Y-98375000D02*
X135695000Y-98375000D01*
X135695000Y-98375000D02*
X136455000Y-99135000D01*
X136455000Y-99135000D02*
X136455000Y-100125000D01*
X129775000Y-98375000D02*
X124825000Y-93425000D01*
D29*
X124825000Y-95965000D02*
X124825000Y-96215000D01*
X124825000Y-96215000D02*
X131530000Y-102920000D01*
X131530000Y-102920000D02*
X136880000Y-102920000D01*
X136880000Y-102920000D02*
X137725000Y-102075000D01*
X137725000Y-102075000D02*
X137725000Y-100125000D01*
X124825000Y-98505000D02*
X126345000Y-98505000D01*
X138995000Y-101595000D02*
X138995000Y-100125000D01*
X137140000Y-103450000D02*
X138995000Y-101595000D01*
X131290000Y-103450000D02*
X137140000Y-103450000D01*
X126345000Y-98505000D02*
X131290000Y-103450000D01*
D28*
X135185000Y-100125000D02*
X135185000Y-101395000D01*
X135900000Y-102110000D02*
X135900000Y-102130000D01*
X135185000Y-101395000D02*
X135900000Y-102110000D01*
X147885000Y-82125000D02*
X147885000Y-80715000D01*
X147885000Y-80715000D02*
X147900000Y-80700000D01*
X133915000Y-100125000D02*
X133165000Y-101715000D01*
X133165000Y-101715000D02*
X133175000Y-101725000D01*
X129225000Y-104850000D02*
X135725000Y-104850000D01*
X140090000Y-95980000D02*
X137620000Y-95980000D01*
X137620000Y-95980000D02*
X136780000Y-95140000D01*
X145345000Y-100125000D02*
X145345000Y-96815000D01*
X144510000Y-95980000D02*
X140090000Y-95980000D01*
X145345000Y-96815000D02*
X144510000Y-95980000D01*
X146615000Y-100125000D02*
X146615000Y-95765000D01*
X139480000Y-94550000D02*
X136350000Y-91420000D01*
X145400000Y-94550000D02*
X139480000Y-94550000D01*
X146615000Y-95765000D02*
X145400000Y-94550000D01*
D34*
G36*
X128246839Y-70164841D02*
X128121892Y-70248610D01*
X128120831Y-70250203D01*
X128119244Y-70251278D01*
X127084243Y-71299547D01*
X127001706Y-71424793D01*
X126918450Y-71549393D01*
X126917956Y-71551879D01*
X126916561Y-71553995D01*
X126888251Y-71701216D01*
X126859000Y-71848269D01*
X126859000Y-81546500D01*
X125909336Y-82496164D01*
X125909336Y-79706000D01*
X125881444Y-79557769D01*
X125793840Y-79421628D01*
X125660171Y-79330296D01*
X125501500Y-79298164D01*
X123850500Y-79298164D01*
X123702269Y-79326056D01*
X123566128Y-79413660D01*
X123474796Y-79547329D01*
X123442664Y-79706000D01*
X123442664Y-82754000D01*
X123470556Y-82902231D01*
X123558160Y-83038372D01*
X123691829Y-83129704D01*
X123809000Y-83153432D01*
X123809000Y-83612164D01*
X123590000Y-83612164D01*
X123441769Y-83640056D01*
X123305628Y-83727660D01*
X123214296Y-83861329D01*
X123182164Y-84020000D01*
X123182164Y-85620000D01*
X123210056Y-85768231D01*
X123297660Y-85904372D01*
X123431329Y-85995704D01*
X123590000Y-86027836D01*
X123770440Y-86027836D01*
X123770440Y-87827097D01*
X123687428Y-87861397D01*
X123462188Y-88086245D01*
X123340139Y-88380172D01*
X123340025Y-88510997D01*
X121943522Y-89907500D01*
X121400000Y-89907500D01*
X121125424Y-89962116D01*
X120892651Y-90117651D01*
X119445920Y-91564382D01*
X119247428Y-91646397D01*
X119022188Y-91871245D01*
X118900139Y-92165172D01*
X118899861Y-92483432D01*
X119021397Y-92777572D01*
X119246245Y-93002812D01*
X119540172Y-93124861D01*
X119858432Y-93125139D01*
X120152572Y-93003603D01*
X120377812Y-92778755D01*
X120460800Y-92578898D01*
X121697198Y-91342500D01*
X122240720Y-91342500D01*
X122333491Y-91324047D01*
X120603769Y-93053769D01*
X120489963Y-93224091D01*
X120450000Y-93425000D01*
X120450000Y-94839956D01*
X120066628Y-95096117D01*
X119795662Y-95501646D01*
X119700511Y-95980000D01*
X119795662Y-96458354D01*
X120066628Y-96863883D01*
X120472157Y-97134849D01*
X120950511Y-97230000D01*
X120999489Y-97230000D01*
X121477843Y-97134849D01*
X121883372Y-96863883D01*
X122154338Y-96458354D01*
X122249489Y-95980000D01*
X122154338Y-95501646D01*
X121883372Y-95096117D01*
X121500000Y-94839956D01*
X121500000Y-93642462D01*
X124263552Y-90878910D01*
X127172097Y-90878910D01*
X127316523Y-91227616D01*
X127691146Y-91655741D01*
X127946797Y-91782164D01*
X127730000Y-91782164D01*
X127581769Y-91810056D01*
X127445628Y-91897660D01*
X127354296Y-92031329D01*
X127322164Y-92190000D01*
X127322164Y-93890000D01*
X127350056Y-94038231D01*
X127437660Y-94174372D01*
X127571329Y-94265704D01*
X127730000Y-94297836D01*
X129430000Y-94297836D01*
X129578231Y-94269944D01*
X129714372Y-94182340D01*
X129805704Y-94048671D01*
X129837836Y-93890000D01*
X129837836Y-92190000D01*
X129809944Y-92041769D01*
X129722340Y-91905628D01*
X129588671Y-91814296D01*
X129430000Y-91782164D01*
X129213203Y-91782164D01*
X129468854Y-91655741D01*
X129843477Y-91227616D01*
X129987903Y-90878910D01*
X129876889Y-90654000D01*
X128734000Y-90654000D01*
X128734000Y-90674000D01*
X128426000Y-90674000D01*
X128426000Y-90654000D01*
X127283111Y-90654000D01*
X127172097Y-90878910D01*
X124263552Y-90878910D01*
X127336065Y-87806397D01*
X127305511Y-87960000D01*
X127400662Y-88438354D01*
X127671628Y-88843883D01*
X128077157Y-89114849D01*
X128132710Y-89125899D01*
X127691146Y-89344259D01*
X127316523Y-89772384D01*
X127172097Y-90121090D01*
X127283111Y-90346000D01*
X128426000Y-90346000D01*
X128426000Y-90326000D01*
X128734000Y-90326000D01*
X128734000Y-90346000D01*
X129876889Y-90346000D01*
X129987903Y-90121090D01*
X129843477Y-89772384D01*
X129468854Y-89344259D01*
X129027290Y-89125899D01*
X129082843Y-89114849D01*
X129488372Y-88843883D01*
X129759338Y-88438354D01*
X129854489Y-87960000D01*
X129759338Y-87481646D01*
X129574489Y-87205000D01*
X130940825Y-87205000D01*
X130991634Y-87281041D01*
X131042457Y-87315000D01*
X130991634Y-87348959D01*
X130807377Y-87624719D01*
X130742675Y-87950000D01*
X130807377Y-88275281D01*
X130991634Y-88551041D01*
X131042457Y-88585000D01*
X130991634Y-88618959D01*
X130807377Y-88894719D01*
X130742675Y-89220000D01*
X130807377Y-89545281D01*
X130991634Y-89821041D01*
X131042457Y-89855000D01*
X130991634Y-89888959D01*
X130807377Y-90164719D01*
X130742675Y-90490000D01*
X130807377Y-90815281D01*
X130991634Y-91091041D01*
X131042457Y-91125000D01*
X130991634Y-91158959D01*
X130807377Y-91434719D01*
X130742675Y-91760000D01*
X130807377Y-92085281D01*
X130991634Y-92361041D01*
X131042457Y-92395000D01*
X130991634Y-92428959D01*
X130807377Y-92704719D01*
X130742675Y-93030000D01*
X130807377Y-93355281D01*
X130991634Y-93631041D01*
X131042457Y-93665000D01*
X130991634Y-93698959D01*
X130807377Y-93974719D01*
X130742675Y-94300000D01*
X130807377Y-94625281D01*
X130991634Y-94901041D01*
X131042457Y-94935000D01*
X130991634Y-94968959D01*
X130807377Y-95244719D01*
X130742675Y-95570000D01*
X130807377Y-95895281D01*
X130991634Y-96171041D01*
X131042457Y-96205000D01*
X130991634Y-96238959D01*
X130807377Y-96514719D01*
X130742675Y-96840000D01*
X130807377Y-97165281D01*
X130991634Y-97441041D01*
X131267394Y-97625298D01*
X131592675Y-97690000D01*
X133257325Y-97690000D01*
X133582606Y-97625298D01*
X133858366Y-97441041D01*
X134042623Y-97165281D01*
X134107325Y-96840000D01*
X134042623Y-96514719D01*
X133858366Y-96238959D01*
X133807543Y-96205000D01*
X133858366Y-96171041D01*
X134042623Y-95895281D01*
X134107325Y-95570000D01*
X134042623Y-95244719D01*
X133858366Y-94968959D01*
X133807543Y-94935000D01*
X133858366Y-94901041D01*
X134042623Y-94625281D01*
X134107325Y-94300000D01*
X134042623Y-93974719D01*
X133858366Y-93698959D01*
X133807543Y-93665000D01*
X133858366Y-93631041D01*
X134042623Y-93355281D01*
X134107325Y-93030000D01*
X134042623Y-92704719D01*
X133858366Y-92428959D01*
X133807543Y-92395000D01*
X133858366Y-92361041D01*
X134042623Y-92085281D01*
X134107325Y-91760000D01*
X134042623Y-91434719D01*
X133858366Y-91158959D01*
X133807543Y-91125000D01*
X133858366Y-91091041D01*
X134042623Y-90815281D01*
X134107325Y-90490000D01*
X134042623Y-90164719D01*
X133858366Y-89888959D01*
X133807543Y-89855000D01*
X133858366Y-89821041D01*
X134042623Y-89545281D01*
X134107325Y-89220000D01*
X134042623Y-88894719D01*
X133858366Y-88618959D01*
X133807543Y-88585000D01*
X133858366Y-88551041D01*
X134042623Y-88275281D01*
X134107325Y-87950000D01*
X134058406Y-87704061D01*
X139117000Y-87704061D01*
X139117000Y-90519000D01*
X139269000Y-90671000D01*
X142571000Y-90671000D01*
X142571000Y-87369000D01*
X142879000Y-87369000D01*
X142879000Y-90671000D01*
X146181000Y-90671000D01*
X146333000Y-90519000D01*
X146333000Y-87704061D01*
X146240437Y-87480595D01*
X146069404Y-87309562D01*
X145845938Y-87217000D01*
X143031000Y-87217000D01*
X142879000Y-87369000D01*
X142571000Y-87369000D01*
X142419000Y-87217000D01*
X139604062Y-87217000D01*
X139380596Y-87309562D01*
X139209563Y-87480595D01*
X139117000Y-87704061D01*
X134058406Y-87704061D01*
X134042623Y-87624719D01*
X133858366Y-87348959D01*
X133807543Y-87315000D01*
X133858366Y-87281041D01*
X134042623Y-87005281D01*
X134107325Y-86680000D01*
X134042623Y-86354719D01*
X133930035Y-86186219D01*
X134082014Y-86049224D01*
X134234754Y-85725849D01*
X134117816Y-85564000D01*
X132579000Y-85564000D01*
X132579000Y-85584000D01*
X132271000Y-85584000D01*
X132271000Y-85564000D01*
X130732184Y-85564000D01*
X130615246Y-85725849D01*
X130767986Y-86049224D01*
X130885332Y-86155000D01*
X129587853Y-86155000D01*
X129759338Y-85898354D01*
X129854489Y-85420000D01*
X129789674Y-85094151D01*
X130615246Y-85094151D01*
X130732184Y-85256000D01*
X132271000Y-85256000D01*
X132271000Y-84352000D01*
X131471000Y-84352000D01*
X131077843Y-84491469D01*
X130767986Y-84770776D01*
X130615246Y-85094151D01*
X129789674Y-85094151D01*
X129759338Y-84941646D01*
X129488372Y-84536117D01*
X129082843Y-84265151D01*
X128604489Y-84170000D01*
X128555511Y-84170000D01*
X128077157Y-84265151D01*
X128047484Y-84284978D01*
X132427462Y-79905000D01*
X134342538Y-79905000D01*
X134660000Y-80222462D01*
X134660000Y-80533919D01*
X134603603Y-80397428D01*
X134378755Y-80172188D01*
X134084828Y-80050139D01*
X133766568Y-80049861D01*
X133472428Y-80171397D01*
X133247188Y-80396245D01*
X133125139Y-80690172D01*
X133124876Y-80991658D01*
X133065000Y-81292675D01*
X133065000Y-82957325D01*
X133129702Y-83282606D01*
X133313959Y-83558366D01*
X133589719Y-83742623D01*
X133915000Y-83807325D01*
X134240281Y-83742623D01*
X134516041Y-83558366D01*
X134550000Y-83507543D01*
X134583959Y-83558366D01*
X134859719Y-83742623D01*
X135185000Y-83807325D01*
X135510281Y-83742623D01*
X135786041Y-83558366D01*
X135820000Y-83507543D01*
X135853959Y-83558366D01*
X136129719Y-83742623D01*
X136455000Y-83807325D01*
X136780281Y-83742623D01*
X137056041Y-83558366D01*
X137090000Y-83507543D01*
X137123959Y-83558366D01*
X137399719Y-83742623D01*
X137725000Y-83807325D01*
X138050281Y-83742623D01*
X138326041Y-83558366D01*
X138360000Y-83507543D01*
X138393959Y-83558366D01*
X138669719Y-83742623D01*
X138995000Y-83807325D01*
X139320281Y-83742623D01*
X139596041Y-83558366D01*
X139630000Y-83507543D01*
X139663959Y-83558366D01*
X139939719Y-83742623D01*
X140265000Y-83807325D01*
X140590281Y-83742623D01*
X140866041Y-83558366D01*
X140900000Y-83507543D01*
X140933959Y-83558366D01*
X141209719Y-83742623D01*
X141535000Y-83807325D01*
X141860281Y-83742623D01*
X142136041Y-83558366D01*
X142170000Y-83507543D01*
X142203959Y-83558366D01*
X142479719Y-83742623D01*
X142805000Y-83807325D01*
X143130281Y-83742623D01*
X143406041Y-83558366D01*
X143440000Y-83507543D01*
X143473959Y-83558366D01*
X143749719Y-83742623D01*
X144075000Y-83807325D01*
X144400281Y-83742623D01*
X144676041Y-83558366D01*
X144710000Y-83507543D01*
X144743959Y-83558366D01*
X145019719Y-83742623D01*
X145345000Y-83807325D01*
X145670281Y-83742623D01*
X145946041Y-83558366D01*
X145980000Y-83507543D01*
X146013959Y-83558366D01*
X146289719Y-83742623D01*
X146615000Y-83807325D01*
X146940281Y-83742623D01*
X147216041Y-83558366D01*
X147250000Y-83507543D01*
X147283959Y-83558366D01*
X147559719Y-83742623D01*
X147885000Y-83807325D01*
X147894711Y-83805393D01*
X147667552Y-84032552D01*
X147625668Y-84095236D01*
X135398248Y-84076724D01*
X135373755Y-84052188D01*
X135079828Y-83930139D01*
X134761568Y-83929861D01*
X134467428Y-84051397D01*
X134242188Y-84276245D01*
X134120139Y-84570172D01*
X134119894Y-84850973D01*
X134082014Y-84770776D01*
X133772157Y-84491469D01*
X133379000Y-84352000D01*
X132579000Y-84352000D01*
X132579000Y-85256000D01*
X134117816Y-85256000D01*
X134215737Y-85120471D01*
X134241397Y-85182572D01*
X134466245Y-85407812D01*
X134760172Y-85529861D01*
X135078432Y-85530139D01*
X135372572Y-85408603D01*
X135396495Y-85384722D01*
X147651752Y-85403276D01*
X147676245Y-85427812D01*
X147970172Y-85549861D01*
X148288432Y-85550139D01*
X148582572Y-85428603D01*
X148807812Y-85203755D01*
X148929861Y-84909828D01*
X148930114Y-84619782D01*
X149617448Y-83932448D01*
X149746832Y-83738810D01*
X149785776Y-83782014D01*
X150109151Y-83934754D01*
X150271000Y-83817816D01*
X150271000Y-82279000D01*
X150579000Y-82279000D01*
X150579000Y-83817816D01*
X150740849Y-83934754D01*
X151064224Y-83782014D01*
X151343531Y-83472157D01*
X151483000Y-83079000D01*
X151483000Y-82279000D01*
X150579000Y-82279000D01*
X150271000Y-82279000D01*
X150251000Y-82279000D01*
X150251000Y-81971000D01*
X150271000Y-81971000D01*
X150271000Y-80432184D01*
X150579000Y-80432184D01*
X150579000Y-81971000D01*
X151483000Y-81971000D01*
X151483000Y-81171000D01*
X151343531Y-80777843D01*
X151064224Y-80467986D01*
X150740849Y-80315246D01*
X150579000Y-80432184D01*
X150271000Y-80432184D01*
X150109151Y-80315246D01*
X149785776Y-80467986D01*
X149648781Y-80619965D01*
X149480281Y-80507377D01*
X149155000Y-80442675D01*
X148829719Y-80507377D01*
X148700093Y-80593990D01*
X148700139Y-80541568D01*
X148578603Y-80247428D01*
X148353755Y-80022188D01*
X148059828Y-79900139D01*
X147741568Y-79899861D01*
X147447428Y-80021397D01*
X147222188Y-80246245D01*
X147100139Y-80540172D01*
X147100074Y-80614148D01*
X146940281Y-80507377D01*
X146615000Y-80442675D01*
X146289719Y-80507377D01*
X146013959Y-80691634D01*
X145980000Y-80742457D01*
X145946041Y-80691634D01*
X145670281Y-80507377D01*
X145345000Y-80442675D01*
X145019719Y-80507377D01*
X144743959Y-80691634D01*
X144710000Y-80742457D01*
X144676041Y-80691634D01*
X144400281Y-80507377D01*
X144184808Y-80464517D01*
X140580995Y-76860705D01*
X140720000Y-76888355D01*
X141203559Y-76792169D01*
X141613500Y-76518255D01*
X141887414Y-76108314D01*
X141983600Y-75624755D01*
X141983600Y-75575245D01*
X141887414Y-75091686D01*
X141613500Y-74681745D01*
X141203559Y-74407831D01*
X140812277Y-74330000D01*
X141203559Y-74252169D01*
X141613500Y-73978255D01*
X141887414Y-73568314D01*
X141891420Y-73548174D01*
X142092598Y-73956000D01*
X142524346Y-74334541D01*
X142747687Y-74427044D01*
X142366500Y-74681745D01*
X142092586Y-75091686D01*
X141996400Y-75575245D01*
X141996400Y-75624755D01*
X142092586Y-76108314D01*
X142366500Y-76518255D01*
X142776441Y-76792169D01*
X143260000Y-76888355D01*
X143743559Y-76792169D01*
X144153500Y-76518255D01*
X144427414Y-76108314D01*
X144523600Y-75624755D01*
X144523600Y-75575245D01*
X144427414Y-75091686D01*
X144153500Y-74681745D01*
X143772313Y-74427044D01*
X143995654Y-74334541D01*
X144427402Y-73956000D01*
X144628580Y-73548174D01*
X144632586Y-73568314D01*
X144906500Y-73978255D01*
X145146000Y-74138284D01*
X145146000Y-74328564D01*
X144936400Y-74328564D01*
X144788169Y-74356456D01*
X144652028Y-74444060D01*
X144560696Y-74577729D01*
X144528564Y-74736400D01*
X144528564Y-76463600D01*
X144556456Y-76611831D01*
X144644060Y-76747972D01*
X144777729Y-76839304D01*
X144936400Y-76871436D01*
X146663600Y-76871436D01*
X146811831Y-76843544D01*
X146947972Y-76755940D01*
X147039304Y-76622271D01*
X147071436Y-76463600D01*
X147071436Y-74736400D01*
X147043544Y-74588169D01*
X146955940Y-74452028D01*
X146822271Y-74360696D01*
X146663600Y-74328564D01*
X146454000Y-74328564D01*
X146454000Y-74138284D01*
X146693500Y-73978255D01*
X146967414Y-73568314D01*
X147063600Y-73084755D01*
X147063600Y-73035245D01*
X147051871Y-72976275D01*
X148399671Y-72976275D01*
X148688319Y-73674857D01*
X149222331Y-74209802D01*
X149920409Y-74499669D01*
X150676275Y-74500329D01*
X151374857Y-74211681D01*
X151909802Y-73677669D01*
X152199669Y-72979591D01*
X152200329Y-72223725D01*
X151911681Y-71525143D01*
X151377669Y-70990198D01*
X150679591Y-70700331D01*
X149923725Y-70699671D01*
X149225143Y-70988319D01*
X148690198Y-71522331D01*
X148400331Y-72220409D01*
X148399671Y-72976275D01*
X147051871Y-72976275D01*
X146967414Y-72551686D01*
X146693500Y-72141745D01*
X146561862Y-72053787D01*
X146561245Y-72050684D01*
X146554857Y-71949618D01*
X146531778Y-71902542D01*
X146521550Y-71851124D01*
X146465293Y-71766930D01*
X146420714Y-71676000D01*
X145370714Y-70301000D01*
X145330919Y-70265937D01*
X145301390Y-70221892D01*
X145217610Y-70166100D01*
X145142073Y-70099544D01*
X145105867Y-70087160D01*
X153112800Y-70087160D01*
X153112800Y-113041760D01*
X110275000Y-113041760D01*
X110275000Y-109976275D01*
X111399671Y-109976275D01*
X111688319Y-110674857D01*
X112222331Y-111209802D01*
X112920409Y-111499669D01*
X113676275Y-111500329D01*
X114374857Y-111211681D01*
X114909802Y-110677669D01*
X114981472Y-110505066D01*
X128287723Y-110505066D01*
X128390174Y-110761040D01*
X128993703Y-110973105D01*
X129632445Y-110938067D01*
X130059826Y-110761040D01*
X130162277Y-110505066D01*
X134787723Y-110505066D01*
X134890174Y-110761040D01*
X135493703Y-110973105D01*
X136132445Y-110938067D01*
X136559826Y-110761040D01*
X136662277Y-110505066D01*
X137887723Y-110505066D01*
X137990174Y-110761040D01*
X138593703Y-110973105D01*
X139232445Y-110938067D01*
X139659826Y-110761040D01*
X139762277Y-110505066D01*
X144387723Y-110505066D01*
X144490174Y-110761040D01*
X145093703Y-110973105D01*
X145732445Y-110938067D01*
X146159826Y-110761040D01*
X146262277Y-110505066D01*
X145325000Y-109567789D01*
X144387723Y-110505066D01*
X139762277Y-110505066D01*
X138825000Y-109567789D01*
X137887723Y-110505066D01*
X136662277Y-110505066D01*
X135725000Y-109567789D01*
X134787723Y-110505066D01*
X130162277Y-110505066D01*
X129225000Y-109567789D01*
X128287723Y-110505066D01*
X114981472Y-110505066D01*
X115199669Y-109979591D01*
X115200329Y-109223725D01*
X114911681Y-108525143D01*
X114462324Y-108075000D01*
X121392164Y-108075000D01*
X121392164Y-109875000D01*
X121420056Y-110023231D01*
X121507660Y-110159372D01*
X121641329Y-110250704D01*
X121800000Y-110282836D01*
X123600000Y-110282836D01*
X123748231Y-110254944D01*
X123884372Y-110167340D01*
X123975704Y-110033671D01*
X124007836Y-109875000D01*
X124007836Y-109397174D01*
X124137271Y-109710429D01*
X124502647Y-110076444D01*
X124980279Y-110274774D01*
X125497452Y-110275226D01*
X125975429Y-110077729D01*
X126341444Y-109712353D01*
X126539774Y-109234721D01*
X126539875Y-109118703D01*
X127601895Y-109118703D01*
X127636933Y-109757445D01*
X127813960Y-110184826D01*
X128069934Y-110287277D01*
X129007211Y-109350000D01*
X129442789Y-109350000D01*
X130380066Y-110287277D01*
X130636040Y-110184826D01*
X130848105Y-109581297D01*
X130822730Y-109118703D01*
X134101895Y-109118703D01*
X134136933Y-109757445D01*
X134313960Y-110184826D01*
X134569934Y-110287277D01*
X135507211Y-109350000D01*
X135942789Y-109350000D01*
X136880066Y-110287277D01*
X137136040Y-110184826D01*
X137263594Y-109821811D01*
X137413960Y-110184826D01*
X137669934Y-110287277D01*
X138607211Y-109350000D01*
X139042789Y-109350000D01*
X139980066Y-110287277D01*
X140236040Y-110184826D01*
X140448105Y-109581297D01*
X140422730Y-109118703D01*
X143701895Y-109118703D01*
X143736933Y-109757445D01*
X143913960Y-110184826D01*
X144169934Y-110287277D01*
X145107211Y-109350000D01*
X145542789Y-109350000D01*
X146480066Y-110287277D01*
X146736040Y-110184826D01*
X146809319Y-109976275D01*
X148399671Y-109976275D01*
X148688319Y-110674857D01*
X149222331Y-111209802D01*
X149920409Y-111499669D01*
X150676275Y-111500329D01*
X151374857Y-111211681D01*
X151909802Y-110677669D01*
X152199669Y-109979591D01*
X152200329Y-109223725D01*
X151911681Y-108525143D01*
X151377669Y-107990198D01*
X150679591Y-107700331D01*
X149923725Y-107699671D01*
X149225143Y-107988319D01*
X148690198Y-108522331D01*
X148400331Y-109220409D01*
X148399671Y-109976275D01*
X146809319Y-109976275D01*
X146948105Y-109581297D01*
X146913067Y-108942555D01*
X146736040Y-108515174D01*
X146480066Y-108412723D01*
X145542789Y-109350000D01*
X145107211Y-109350000D01*
X144169934Y-108412723D01*
X143913960Y-108515174D01*
X143701895Y-109118703D01*
X140422730Y-109118703D01*
X140413067Y-108942555D01*
X140236040Y-108515174D01*
X139980066Y-108412723D01*
X139042789Y-109350000D01*
X138607211Y-109350000D01*
X137669934Y-108412723D01*
X137413960Y-108515174D01*
X137286406Y-108878189D01*
X137136040Y-108515174D01*
X136880066Y-108412723D01*
X135942789Y-109350000D01*
X135507211Y-109350000D01*
X134569934Y-108412723D01*
X134313960Y-108515174D01*
X134101895Y-109118703D01*
X130822730Y-109118703D01*
X130813067Y-108942555D01*
X130636040Y-108515174D01*
X130380066Y-108412723D01*
X129442789Y-109350000D01*
X129007211Y-109350000D01*
X128069934Y-108412723D01*
X127813960Y-108515174D01*
X127601895Y-109118703D01*
X126539875Y-109118703D01*
X126540226Y-108717548D01*
X126342729Y-108239571D01*
X126298170Y-108194934D01*
X128287723Y-108194934D01*
X129225000Y-109132211D01*
X130162277Y-108194934D01*
X134787723Y-108194934D01*
X135725000Y-109132211D01*
X136662277Y-108194934D01*
X137887723Y-108194934D01*
X138825000Y-109132211D01*
X139762277Y-108194934D01*
X144387723Y-108194934D01*
X145325000Y-109132211D01*
X146262277Y-108194934D01*
X146159826Y-107938960D01*
X145556297Y-107726895D01*
X144917555Y-107761933D01*
X144490174Y-107938960D01*
X144387723Y-108194934D01*
X139762277Y-108194934D01*
X139659826Y-107938960D01*
X139056297Y-107726895D01*
X138417555Y-107761933D01*
X137990174Y-107938960D01*
X137887723Y-108194934D01*
X136662277Y-108194934D01*
X136559826Y-107938960D01*
X135956297Y-107726895D01*
X135317555Y-107761933D01*
X134890174Y-107938960D01*
X134787723Y-108194934D01*
X130162277Y-108194934D01*
X130059826Y-107938960D01*
X129456297Y-107726895D01*
X128817555Y-107761933D01*
X128390174Y-107938960D01*
X128287723Y-108194934D01*
X126298170Y-108194934D01*
X125977353Y-107873556D01*
X125499721Y-107675226D01*
X124982548Y-107674774D01*
X124504571Y-107872271D01*
X124138556Y-108237647D01*
X124007836Y-108552456D01*
X124007836Y-108075000D01*
X123979944Y-107926769D01*
X123892340Y-107790628D01*
X123758671Y-107699296D01*
X123600000Y-107667164D01*
X121800000Y-107667164D01*
X121651769Y-107695056D01*
X121515628Y-107782660D01*
X121424296Y-107916329D01*
X121392164Y-108075000D01*
X114462324Y-108075000D01*
X114377669Y-107990198D01*
X113679591Y-107700331D01*
X112923725Y-107699671D01*
X112225143Y-107988319D01*
X111690198Y-108522331D01*
X111400331Y-109220409D01*
X111399671Y-109976275D01*
X110275000Y-109976275D01*
X110275000Y-80110440D01*
X112750000Y-80110440D01*
X112750000Y-103425000D01*
X112789963Y-103625909D01*
X112903769Y-103796231D01*
X113083769Y-103976231D01*
X113254091Y-104090037D01*
X113455000Y-104130000D01*
X115976830Y-104130000D01*
X116216628Y-104488883D01*
X116622157Y-104759849D01*
X117100511Y-104855000D01*
X117149489Y-104855000D01*
X117627843Y-104759849D01*
X118033372Y-104488883D01*
X118273170Y-104130000D01*
X119717164Y-104130000D01*
X119717164Y-104450000D01*
X119745056Y-104598231D01*
X119832660Y-104734372D01*
X119966329Y-104825704D01*
X120125000Y-104857836D01*
X121825000Y-104857836D01*
X121973231Y-104829944D01*
X122109372Y-104742340D01*
X122200704Y-104608671D01*
X122232836Y-104450000D01*
X122232836Y-104110000D01*
X123676830Y-104110000D01*
X123916628Y-104468883D01*
X124322157Y-104739849D01*
X124800511Y-104835000D01*
X124849489Y-104835000D01*
X125327843Y-104739849D01*
X125733372Y-104468883D01*
X126004338Y-104063354D01*
X126099489Y-103585000D01*
X126004338Y-103106646D01*
X125733372Y-102701117D01*
X125327843Y-102430151D01*
X125272290Y-102419101D01*
X125713854Y-102200741D01*
X126088477Y-101772616D01*
X126232903Y-101423910D01*
X126121889Y-101199000D01*
X124979000Y-101199000D01*
X124979000Y-101219000D01*
X124671000Y-101219000D01*
X124671000Y-101199000D01*
X123528111Y-101199000D01*
X123417097Y-101423910D01*
X123561523Y-101772616D01*
X123936146Y-102200741D01*
X124377710Y-102419101D01*
X124322157Y-102430151D01*
X123916628Y-102701117D01*
X123676830Y-103060000D01*
X122232836Y-103060000D01*
X122232836Y-102750000D01*
X122204944Y-102601769D01*
X122117340Y-102465628D01*
X121983671Y-102374296D01*
X121825000Y-102342164D01*
X121608203Y-102342164D01*
X121863854Y-102215741D01*
X122238477Y-101787616D01*
X122382903Y-101438910D01*
X122271889Y-101214000D01*
X121129000Y-101214000D01*
X121129000Y-101234000D01*
X120821000Y-101234000D01*
X120821000Y-101214000D01*
X119678111Y-101214000D01*
X119567097Y-101438910D01*
X119711523Y-101787616D01*
X120086146Y-102215741D01*
X120341797Y-102342164D01*
X120125000Y-102342164D01*
X119976769Y-102370056D01*
X119840628Y-102457660D01*
X119749296Y-102591329D01*
X119717164Y-102750000D01*
X119717164Y-103080000D01*
X118273170Y-103080000D01*
X118033372Y-102721117D01*
X117627843Y-102450151D01*
X117572290Y-102439101D01*
X118013854Y-102220741D01*
X118388477Y-101792616D01*
X118532903Y-101443910D01*
X118421889Y-101219000D01*
X117279000Y-101219000D01*
X117279000Y-101239000D01*
X116971000Y-101239000D01*
X116971000Y-101219000D01*
X115828111Y-101219000D01*
X115717097Y-101443910D01*
X115861523Y-101792616D01*
X116236146Y-102220741D01*
X116677710Y-102439101D01*
X116622157Y-102450151D01*
X116216628Y-102721117D01*
X115976830Y-103080000D01*
X113800000Y-103080000D01*
X113800000Y-100686090D01*
X115717097Y-100686090D01*
X115828111Y-100911000D01*
X116971000Y-100911000D01*
X116971000Y-100891000D01*
X117279000Y-100891000D01*
X117279000Y-100911000D01*
X118421889Y-100911000D01*
X118532903Y-100686090D01*
X118530833Y-100681090D01*
X119567097Y-100681090D01*
X119678111Y-100906000D01*
X120821000Y-100906000D01*
X120821000Y-100886000D01*
X121129000Y-100886000D01*
X121129000Y-100906000D01*
X122271889Y-100906000D01*
X122382903Y-100681090D01*
X122376691Y-100666090D01*
X123417097Y-100666090D01*
X123528111Y-100891000D01*
X124671000Y-100891000D01*
X124671000Y-100871000D01*
X124979000Y-100871000D01*
X124979000Y-100891000D01*
X126121889Y-100891000D01*
X126232903Y-100666090D01*
X126088477Y-100317384D01*
X125713854Y-99889259D01*
X125272290Y-99670899D01*
X125327843Y-99659849D01*
X125733372Y-99388883D01*
X125971834Y-99032000D01*
X126126710Y-99032000D01*
X130917355Y-103822645D01*
X131088325Y-103936885D01*
X131290000Y-103977000D01*
X134617896Y-103977000D01*
X134538830Y-104055928D01*
X134427101Y-104325000D01*
X130522877Y-104325000D01*
X130412555Y-104058000D01*
X130019072Y-103663830D01*
X129504699Y-103450243D01*
X128947744Y-103449757D01*
X128433000Y-103662445D01*
X128038830Y-104055928D01*
X127825243Y-104570301D01*
X127824757Y-105127256D01*
X128037445Y-105642000D01*
X128430928Y-106036170D01*
X128945301Y-106249757D01*
X129502256Y-106250243D01*
X130017000Y-106037555D01*
X130411170Y-105644072D01*
X130522899Y-105375000D01*
X134427123Y-105375000D01*
X134537445Y-105642000D01*
X134930928Y-106036170D01*
X135445301Y-106249757D01*
X136002256Y-106250243D01*
X136517000Y-106037555D01*
X136911170Y-105644072D01*
X137124757Y-105129699D01*
X137124759Y-105127256D01*
X137424757Y-105127256D01*
X137637445Y-105642000D01*
X138030928Y-106036170D01*
X138545301Y-106249757D01*
X139102256Y-106250243D01*
X139617000Y-106037555D01*
X140011170Y-105644072D01*
X140224757Y-105129699D01*
X140224759Y-105127256D01*
X143924757Y-105127256D01*
X144137445Y-105642000D01*
X144530928Y-106036170D01*
X145045301Y-106249757D01*
X145602256Y-106250243D01*
X146117000Y-106037555D01*
X146511170Y-105644072D01*
X146724757Y-105129699D01*
X146725243Y-104572744D01*
X146512555Y-104058000D01*
X146119072Y-103663830D01*
X145604699Y-103450243D01*
X145047744Y-103449757D01*
X144533000Y-103662445D01*
X144138830Y-104055928D01*
X143925243Y-104570301D01*
X143924757Y-105127256D01*
X140224759Y-105127256D01*
X140225243Y-104572744D01*
X140012555Y-104058000D01*
X139619072Y-103663830D01*
X139104699Y-103450243D01*
X138547744Y-103449757D01*
X138033000Y-103662445D01*
X137638830Y-104055928D01*
X137425243Y-104570301D01*
X137424757Y-105127256D01*
X137124759Y-105127256D01*
X137125243Y-104572744D01*
X136912555Y-104058000D01*
X136831696Y-103977000D01*
X137140000Y-103977000D01*
X137341675Y-103936885D01*
X137512645Y-103822645D01*
X138922374Y-102412916D01*
X139021397Y-102652572D01*
X139246245Y-102877812D01*
X139540172Y-102999861D01*
X139858432Y-103000139D01*
X140152572Y-102878603D01*
X140377812Y-102653755D01*
X140499861Y-102359828D01*
X140500048Y-102145242D01*
X140637646Y-102007645D01*
X140751885Y-101836674D01*
X140792000Y-101635000D01*
X140792000Y-101607839D01*
X140866041Y-101558366D01*
X140900000Y-101507543D01*
X140933959Y-101558366D01*
X141008000Y-101607839D01*
X141008000Y-101735000D01*
X141048115Y-101936675D01*
X141162355Y-102107645D01*
X141225047Y-102170337D01*
X141224861Y-102383432D01*
X141346397Y-102677572D01*
X141571245Y-102902812D01*
X141865172Y-103024861D01*
X142183432Y-103025139D01*
X142477572Y-102903603D01*
X142702812Y-102678755D01*
X142824861Y-102384828D01*
X142825139Y-102066568D01*
X142710233Y-101788475D01*
X142805000Y-101807325D01*
X143130281Y-101742623D01*
X143406041Y-101558366D01*
X143440000Y-101507543D01*
X143473959Y-101558366D01*
X143749719Y-101742623D01*
X144075000Y-101807325D01*
X144400281Y-101742623D01*
X144676041Y-101558366D01*
X144710000Y-101507543D01*
X144743959Y-101558366D01*
X145019719Y-101742623D01*
X145345000Y-101807325D01*
X145670281Y-101742623D01*
X145946041Y-101558366D01*
X145980000Y-101507543D01*
X146013959Y-101558366D01*
X146289719Y-101742623D01*
X146615000Y-101807325D01*
X146940281Y-101742623D01*
X147216041Y-101558366D01*
X147250000Y-101507543D01*
X147283959Y-101558366D01*
X147559719Y-101742623D01*
X147885000Y-101807325D01*
X148210281Y-101742623D01*
X148486041Y-101558366D01*
X148520000Y-101507543D01*
X148553959Y-101558366D01*
X148829719Y-101742623D01*
X149155000Y-101807325D01*
X149480281Y-101742623D01*
X149648781Y-101630035D01*
X149785776Y-101782014D01*
X150109151Y-101934754D01*
X150271000Y-101817816D01*
X150271000Y-100279000D01*
X150579000Y-100279000D01*
X150579000Y-101817816D01*
X150740849Y-101934754D01*
X151064224Y-101782014D01*
X151343531Y-101472157D01*
X151483000Y-101079000D01*
X151483000Y-100279000D01*
X150579000Y-100279000D01*
X150271000Y-100279000D01*
X150251000Y-100279000D01*
X150251000Y-99971000D01*
X150271000Y-99971000D01*
X150271000Y-98432184D01*
X150579000Y-98432184D01*
X150579000Y-99971000D01*
X151483000Y-99971000D01*
X151483000Y-99171000D01*
X151343531Y-98777843D01*
X151064224Y-98467986D01*
X150740849Y-98315246D01*
X150579000Y-98432184D01*
X150271000Y-98432184D01*
X150109151Y-98315246D01*
X149785776Y-98467986D01*
X149682000Y-98583113D01*
X149682000Y-87755000D01*
X149641885Y-87553326D01*
X149561990Y-87433755D01*
X149527645Y-87382354D01*
X148295947Y-86150657D01*
X148241231Y-86068769D01*
X148070909Y-85954963D01*
X148056477Y-85952092D01*
X148000909Y-85914963D01*
X147800000Y-85875000D01*
X140956301Y-85875000D01*
X140803755Y-85722188D01*
X140509828Y-85600139D01*
X140191568Y-85599861D01*
X139897428Y-85721397D01*
X139672188Y-85946245D01*
X139550139Y-86240172D01*
X139549861Y-86558432D01*
X139671397Y-86852572D01*
X139896245Y-87077812D01*
X140190172Y-87199861D01*
X140508432Y-87200139D01*
X140802572Y-87078603D01*
X140956443Y-86925000D01*
X147579710Y-86925000D01*
X148628000Y-87973291D01*
X148628000Y-98642161D01*
X148553959Y-98691634D01*
X148520000Y-98742457D01*
X148486041Y-98691634D01*
X148210281Y-98507377D01*
X147885000Y-98442675D01*
X147559719Y-98507377D01*
X147283959Y-98691634D01*
X147250000Y-98742457D01*
X147216041Y-98691634D01*
X147140000Y-98640825D01*
X147140000Y-95765000D01*
X147100037Y-95564091D01*
X146986231Y-95393769D01*
X145972881Y-94380419D01*
X146069404Y-94340438D01*
X146240437Y-94169405D01*
X146333000Y-93945939D01*
X146333000Y-91131000D01*
X146181000Y-90979000D01*
X142879000Y-90979000D01*
X142879000Y-90999000D01*
X142571000Y-90999000D01*
X142571000Y-90979000D01*
X139269000Y-90979000D01*
X139117000Y-91131000D01*
X139117000Y-93444538D01*
X137149950Y-91477488D01*
X137150139Y-91261568D01*
X137028603Y-90967428D01*
X136803755Y-90742188D01*
X136509828Y-90620139D01*
X136191568Y-90619861D01*
X135897428Y-90741397D01*
X135672188Y-90966245D01*
X135550139Y-91260172D01*
X135549861Y-91578432D01*
X135671397Y-91872572D01*
X135896245Y-92097812D01*
X136190172Y-92219861D01*
X136407589Y-92220051D01*
X139108769Y-94921231D01*
X139279091Y-95035037D01*
X139480000Y-95075000D01*
X145182538Y-95075000D01*
X146090000Y-95982462D01*
X146090000Y-98640825D01*
X146013959Y-98691634D01*
X145980000Y-98742457D01*
X145946041Y-98691634D01*
X145870000Y-98640825D01*
X145870000Y-96815000D01*
X145830037Y-96614091D01*
X145716231Y-96443769D01*
X144881231Y-95608769D01*
X144710909Y-95494963D01*
X144510000Y-95455000D01*
X137837462Y-95455000D01*
X137579950Y-95197488D01*
X137580139Y-94981568D01*
X137458603Y-94687428D01*
X137233755Y-94462188D01*
X136939828Y-94340139D01*
X136621568Y-94339861D01*
X136327428Y-94461397D01*
X136102188Y-94686245D01*
X135980139Y-94980172D01*
X135979861Y-95298432D01*
X136101397Y-95592572D01*
X136326245Y-95817812D01*
X136620172Y-95939861D01*
X136837589Y-95940051D01*
X137248769Y-96351231D01*
X137419091Y-96465037D01*
X137620000Y-96505000D01*
X144292538Y-96505000D01*
X144820000Y-97032462D01*
X144820000Y-98640825D01*
X144743959Y-98691634D01*
X144710000Y-98742457D01*
X144676041Y-98691634D01*
X144600000Y-98640825D01*
X144600000Y-98055000D01*
X144560037Y-97854091D01*
X144446231Y-97683769D01*
X143891231Y-97128769D01*
X143720909Y-97014963D01*
X143520000Y-96975000D01*
X137167462Y-96975000D01*
X136490902Y-96298440D01*
X136490037Y-96294091D01*
X136376231Y-96123769D01*
X136031231Y-95778769D01*
X135860909Y-95664963D01*
X135660000Y-95625000D01*
X135526301Y-95625000D01*
X135373755Y-95472188D01*
X135079828Y-95350139D01*
X134761568Y-95349861D01*
X134467428Y-95471397D01*
X134242188Y-95696245D01*
X134120139Y-95990172D01*
X134119861Y-96308432D01*
X134241397Y-96602572D01*
X134466245Y-96827812D01*
X134760172Y-96949861D01*
X135078432Y-96950139D01*
X135372572Y-96828603D01*
X135484454Y-96716916D01*
X135519098Y-96751560D01*
X135519963Y-96755909D01*
X135633769Y-96926231D01*
X136578769Y-97871231D01*
X136749091Y-97985037D01*
X136950000Y-98025000D01*
X143302538Y-98025000D01*
X143550000Y-98272462D01*
X143550000Y-98640825D01*
X143473959Y-98691634D01*
X143440000Y-98742457D01*
X143406041Y-98691634D01*
X143130281Y-98507377D01*
X142805000Y-98442675D01*
X142479719Y-98507377D01*
X142203959Y-98691634D01*
X142170000Y-98742457D01*
X142136041Y-98691634D01*
X141860281Y-98507377D01*
X141535000Y-98442675D01*
X141209719Y-98507377D01*
X140933959Y-98691634D01*
X140900000Y-98742457D01*
X140866041Y-98691634D01*
X140590281Y-98507377D01*
X140265000Y-98442675D01*
X139939719Y-98507377D01*
X139663959Y-98691634D01*
X139630000Y-98742457D01*
X139596041Y-98691634D01*
X139320281Y-98507377D01*
X138995000Y-98442675D01*
X138669719Y-98507377D01*
X138393959Y-98691634D01*
X138360000Y-98742457D01*
X138326041Y-98691634D01*
X138050281Y-98507377D01*
X137725000Y-98442675D01*
X137399719Y-98507377D01*
X137123959Y-98691634D01*
X137090000Y-98742457D01*
X137056041Y-98691634D01*
X136780281Y-98507377D01*
X136517586Y-98455124D01*
X136066231Y-98003769D01*
X135895909Y-97889963D01*
X135695000Y-97850000D01*
X129992462Y-97850000D01*
X126082836Y-93940374D01*
X126082836Y-92575000D01*
X126054944Y-92426769D01*
X125967340Y-92290628D01*
X125833671Y-92199296D01*
X125675000Y-92167164D01*
X123975000Y-92167164D01*
X123826769Y-92195056D01*
X123690628Y-92282660D01*
X123599296Y-92416329D01*
X123567164Y-92575000D01*
X123567164Y-94275000D01*
X123595056Y-94423231D01*
X123682660Y-94559372D01*
X123816329Y-94650704D01*
X123975000Y-94682836D01*
X125340374Y-94682836D01*
X129403769Y-98746231D01*
X129574091Y-98860037D01*
X129775000Y-98900000D01*
X133174733Y-98900000D01*
X133129702Y-98967394D01*
X133065000Y-99292675D01*
X133065000Y-100696392D01*
X132942867Y-100955314D01*
X132722428Y-101046397D01*
X132497188Y-101271245D01*
X132375139Y-101565172D01*
X132374861Y-101883432D01*
X132496397Y-102177572D01*
X132711450Y-102393000D01*
X131748290Y-102393000D01*
X125921949Y-96566659D01*
X126004338Y-96443354D01*
X126099489Y-95965000D01*
X126004338Y-95486646D01*
X125733372Y-95081117D01*
X125327843Y-94810151D01*
X124849489Y-94715000D01*
X124800511Y-94715000D01*
X124322157Y-94810151D01*
X123916628Y-95081117D01*
X123645662Y-95486646D01*
X123550511Y-95965000D01*
X123645662Y-96443354D01*
X123916628Y-96848883D01*
X124322157Y-97119849D01*
X124800511Y-97215000D01*
X124849489Y-97215000D01*
X125041514Y-97176804D01*
X125186807Y-97322097D01*
X124849489Y-97255000D01*
X124800511Y-97255000D01*
X124322157Y-97350151D01*
X123916628Y-97621117D01*
X123645662Y-98026646D01*
X123550511Y-98505000D01*
X123645662Y-98983354D01*
X123916628Y-99388883D01*
X124322157Y-99659849D01*
X124377710Y-99670899D01*
X123936146Y-99889259D01*
X123561523Y-100317384D01*
X123417097Y-100666090D01*
X122376691Y-100666090D01*
X122238477Y-100332384D01*
X121863854Y-99904259D01*
X121422290Y-99685899D01*
X121477843Y-99674849D01*
X121883372Y-99403883D01*
X122154338Y-98998354D01*
X122249489Y-98520000D01*
X122154338Y-98041646D01*
X121883372Y-97636117D01*
X121477843Y-97365151D01*
X120999489Y-97270000D01*
X120950511Y-97270000D01*
X120472157Y-97365151D01*
X120066628Y-97636117D01*
X119795662Y-98041646D01*
X119700511Y-98520000D01*
X119795662Y-98998354D01*
X120066628Y-99403883D01*
X120472157Y-99674849D01*
X120527710Y-99685899D01*
X120086146Y-99904259D01*
X119711523Y-100332384D01*
X119567097Y-100681090D01*
X118530833Y-100681090D01*
X118388477Y-100337384D01*
X118013854Y-99909259D01*
X117758203Y-99782836D01*
X117975000Y-99782836D01*
X118123231Y-99754944D01*
X118259372Y-99667340D01*
X118350704Y-99533671D01*
X118382836Y-99375000D01*
X118382836Y-97675000D01*
X118354944Y-97526769D01*
X118267340Y-97390628D01*
X118133671Y-97299296D01*
X117975000Y-97267164D01*
X116275000Y-97267164D01*
X116126769Y-97295056D01*
X115990628Y-97382660D01*
X115899296Y-97516329D01*
X115867164Y-97675000D01*
X115867164Y-99375000D01*
X115895056Y-99523231D01*
X115982660Y-99659372D01*
X116116329Y-99750704D01*
X116275000Y-99782836D01*
X116491797Y-99782836D01*
X116236146Y-99909259D01*
X115861523Y-100337384D01*
X115717097Y-100686090D01*
X113800000Y-100686090D01*
X113800000Y-92842890D01*
X114451173Y-92842890D01*
X114580241Y-93155260D01*
X114819023Y-93394459D01*
X115131167Y-93524072D01*
X115469150Y-93524367D01*
X115781520Y-93395299D01*
X116020719Y-93156517D01*
X116150332Y-92844373D01*
X116150627Y-92506390D01*
X116021559Y-92194020D01*
X115782777Y-91954821D01*
X115470633Y-91825208D01*
X115132650Y-91824913D01*
X114820280Y-91953981D01*
X114581081Y-92192763D01*
X114451468Y-92504907D01*
X114451173Y-92842890D01*
X113800000Y-92842890D01*
X113800000Y-88443610D01*
X114451173Y-88443610D01*
X114580241Y-88755980D01*
X114819023Y-88995179D01*
X115131167Y-89124792D01*
X115469150Y-89125087D01*
X115781520Y-88996019D01*
X116020719Y-88757237D01*
X116150332Y-88445093D01*
X116150627Y-88107110D01*
X116021559Y-87794740D01*
X115782777Y-87555541D01*
X115470633Y-87425928D01*
X115132650Y-87425633D01*
X114820280Y-87554701D01*
X114581081Y-87793483D01*
X114451468Y-88105627D01*
X114451173Y-88443610D01*
X113800000Y-88443610D01*
X113800000Y-85126000D01*
X118982000Y-85126000D01*
X118982000Y-85740938D01*
X119074562Y-85964404D01*
X119245595Y-86135437D01*
X119469061Y-86228000D01*
X120284000Y-86228000D01*
X120436000Y-86076000D01*
X120436000Y-84974000D01*
X120744000Y-84974000D01*
X120744000Y-86076000D01*
X120896000Y-86228000D01*
X121710939Y-86228000D01*
X121934405Y-86135437D01*
X122105438Y-85964404D01*
X122198000Y-85740938D01*
X122198000Y-85126000D01*
X122046000Y-84974000D01*
X120744000Y-84974000D01*
X120436000Y-84974000D01*
X119134000Y-84974000D01*
X118982000Y-85126000D01*
X113800000Y-85126000D01*
X113800000Y-82525800D01*
X114156820Y-82525800D01*
X114156820Y-83840609D01*
X114249383Y-84064075D01*
X114420416Y-84235108D01*
X114643882Y-84327670D01*
X115258920Y-84327670D01*
X115410920Y-84175670D01*
X115410920Y-82373800D01*
X115718920Y-82373800D01*
X115718920Y-84175670D01*
X115870920Y-84327670D01*
X116485958Y-84327670D01*
X116709424Y-84235108D01*
X116880457Y-84064075D01*
X116948807Y-83899062D01*
X118982000Y-83899062D01*
X118982000Y-84514000D01*
X119134000Y-84666000D01*
X120436000Y-84666000D01*
X120436000Y-83564000D01*
X120744000Y-83564000D01*
X120744000Y-84666000D01*
X122046000Y-84666000D01*
X122198000Y-84514000D01*
X122198000Y-83899062D01*
X122105438Y-83675596D01*
X121934405Y-83504563D01*
X121710939Y-83412000D01*
X120896000Y-83412000D01*
X120744000Y-83564000D01*
X120436000Y-83564000D01*
X120284000Y-83412000D01*
X119469061Y-83412000D01*
X119245595Y-83504563D01*
X119074562Y-83675596D01*
X118982000Y-83899062D01*
X116948807Y-83899062D01*
X116973020Y-83840609D01*
X116973020Y-82525800D01*
X116821020Y-82373800D01*
X115718920Y-82373800D01*
X115410920Y-82373800D01*
X114308820Y-82373800D01*
X114156820Y-82525800D01*
X113800000Y-82525800D01*
X113800000Y-80598991D01*
X114156820Y-80598991D01*
X114156820Y-81913800D01*
X114308820Y-82065800D01*
X115410920Y-82065800D01*
X115410920Y-80263930D01*
X115718920Y-80263930D01*
X115718920Y-82065800D01*
X116821020Y-82065800D01*
X116973020Y-81913800D01*
X116973020Y-81536000D01*
X118670500Y-81536000D01*
X118670500Y-82874938D01*
X118763062Y-83098404D01*
X118934095Y-83269437D01*
X119157561Y-83362000D01*
X119798000Y-83362000D01*
X119950000Y-83210000D01*
X119950000Y-81384000D01*
X120258000Y-81384000D01*
X120258000Y-83210000D01*
X120410000Y-83362000D01*
X121050439Y-83362000D01*
X121273905Y-83269437D01*
X121444938Y-83098404D01*
X121537500Y-82874938D01*
X121537500Y-81536000D01*
X121385500Y-81384000D01*
X120258000Y-81384000D01*
X119950000Y-81384000D01*
X118822500Y-81384000D01*
X118670500Y-81536000D01*
X116973020Y-81536000D01*
X116973020Y-80598991D01*
X116880457Y-80375525D01*
X116709424Y-80204492D01*
X116485958Y-80111930D01*
X115870920Y-80111930D01*
X115718920Y-80263930D01*
X115410920Y-80263930D01*
X115258920Y-80111930D01*
X114643882Y-80111930D01*
X114420416Y-80204492D01*
X114249383Y-80375525D01*
X114156820Y-80598991D01*
X113800000Y-80598991D01*
X113800000Y-80327902D01*
X114502576Y-79625326D01*
X114606149Y-79696094D01*
X114764820Y-79728226D01*
X116365020Y-79728226D01*
X116513251Y-79700334D01*
X116649392Y-79612730D01*
X116668296Y-79585062D01*
X118670500Y-79585062D01*
X118670500Y-80924000D01*
X118822500Y-81076000D01*
X119950000Y-81076000D01*
X119950000Y-79250000D01*
X120258000Y-79250000D01*
X120258000Y-81076000D01*
X121385500Y-81076000D01*
X121537500Y-80924000D01*
X121537500Y-79585062D01*
X121444938Y-79361596D01*
X121273905Y-79190563D01*
X121050439Y-79098000D01*
X120410000Y-79098000D01*
X120258000Y-79250000D01*
X119950000Y-79250000D01*
X119798000Y-79098000D01*
X119157561Y-79098000D01*
X118934095Y-79190563D01*
X118763062Y-79361596D01*
X118670500Y-79585062D01*
X116668296Y-79585062D01*
X116740724Y-79479061D01*
X116772856Y-79320390D01*
X116772856Y-78411020D01*
X119449475Y-78411020D01*
X119449480Y-78411021D01*
X119637963Y-78373529D01*
X119675455Y-78366071D01*
X119720705Y-78335836D01*
X125438000Y-78335836D01*
X125586231Y-78307944D01*
X125722372Y-78220340D01*
X125813704Y-78086671D01*
X125845836Y-77928000D01*
X125845836Y-71832000D01*
X125817944Y-71683769D01*
X125730340Y-71547628D01*
X125596671Y-71456296D01*
X125438000Y-71424164D01*
X119342000Y-71424164D01*
X119193769Y-71452056D01*
X119057628Y-71539660D01*
X118966296Y-71673329D01*
X118934164Y-71832000D01*
X118934164Y-77230020D01*
X116772856Y-77230020D01*
X116772856Y-76320650D01*
X116744964Y-76172419D01*
X116657360Y-76036278D01*
X116523691Y-75944946D01*
X116365020Y-75912814D01*
X114764820Y-75912814D01*
X114616589Y-75940706D01*
X114480448Y-76028310D01*
X114389116Y-76161979D01*
X114356984Y-76320650D01*
X114356984Y-78285994D01*
X112903769Y-79739209D01*
X112789963Y-79909531D01*
X112750000Y-80110440D01*
X110275000Y-80110440D01*
X110275000Y-73076275D01*
X111399671Y-73076275D01*
X111688319Y-73774857D01*
X112222331Y-74309802D01*
X112920409Y-74599669D01*
X113676275Y-74600329D01*
X114374857Y-74311681D01*
X114909802Y-73777669D01*
X115199669Y-73079591D01*
X115200329Y-72323725D01*
X114911681Y-71625143D01*
X114377669Y-71090198D01*
X113679591Y-70800331D01*
X112923725Y-70799671D01*
X112225143Y-71088319D01*
X111690198Y-71622331D01*
X111400331Y-72320409D01*
X111399671Y-73076275D01*
X110275000Y-73076275D01*
X110275000Y-70087160D01*
X128361509Y-70087160D01*
X128246839Y-70164841D01*
X128246839Y-70164841D01*
G37*
X128246839Y-70164841D02*
X128121892Y-70248610D01*
X128120831Y-70250203D01*
X128119244Y-70251278D01*
X127084243Y-71299547D01*
X127001706Y-71424793D01*
X126918450Y-71549393D01*
X126917956Y-71551879D01*
X126916561Y-71553995D01*
X126888251Y-71701216D01*
X126859000Y-71848269D01*
X126859000Y-81546500D01*
X125909336Y-82496164D01*
X125909336Y-79706000D01*
X125881444Y-79557769D01*
X125793840Y-79421628D01*
X125660171Y-79330296D01*
X125501500Y-79298164D01*
X123850500Y-79298164D01*
X123702269Y-79326056D01*
X123566128Y-79413660D01*
X123474796Y-79547329D01*
X123442664Y-79706000D01*
X123442664Y-82754000D01*
X123470556Y-82902231D01*
X123558160Y-83038372D01*
X123691829Y-83129704D01*
X123809000Y-83153432D01*
X123809000Y-83612164D01*
X123590000Y-83612164D01*
X123441769Y-83640056D01*
X123305628Y-83727660D01*
X123214296Y-83861329D01*
X123182164Y-84020000D01*
X123182164Y-85620000D01*
X123210056Y-85768231D01*
X123297660Y-85904372D01*
X123431329Y-85995704D01*
X123590000Y-86027836D01*
X123770440Y-86027836D01*
X123770440Y-87827097D01*
X123687428Y-87861397D01*
X123462188Y-88086245D01*
X123340139Y-88380172D01*
X123340025Y-88510997D01*
X121943522Y-89907500D01*
X121400000Y-89907500D01*
X121125424Y-89962116D01*
X120892651Y-90117651D01*
X119445920Y-91564382D01*
X119247428Y-91646397D01*
X119022188Y-91871245D01*
X118900139Y-92165172D01*
X118899861Y-92483432D01*
X119021397Y-92777572D01*
X119246245Y-93002812D01*
X119540172Y-93124861D01*
X119858432Y-93125139D01*
X120152572Y-93003603D01*
X120377812Y-92778755D01*
X120460800Y-92578898D01*
X121697198Y-91342500D01*
X122240720Y-91342500D01*
X122333491Y-91324047D01*
X120603769Y-93053769D01*
X120489963Y-93224091D01*
X120450000Y-93425000D01*
X120450000Y-94839956D01*
X120066628Y-95096117D01*
X119795662Y-95501646D01*
X119700511Y-95980000D01*
X119795662Y-96458354D01*
X120066628Y-96863883D01*
X120472157Y-97134849D01*
X120950511Y-97230000D01*
X120999489Y-97230000D01*
X121477843Y-97134849D01*
X121883372Y-96863883D01*
X122154338Y-96458354D01*
X122249489Y-95980000D01*
X122154338Y-95501646D01*
X121883372Y-95096117D01*
X121500000Y-94839956D01*
X121500000Y-93642462D01*
X124263552Y-90878910D01*
X127172097Y-90878910D01*
X127316523Y-91227616D01*
X127691146Y-91655741D01*
X127946797Y-91782164D01*
X127730000Y-91782164D01*
X127581769Y-91810056D01*
X127445628Y-91897660D01*
X127354296Y-92031329D01*
X127322164Y-92190000D01*
X127322164Y-93890000D01*
X127350056Y-94038231D01*
X127437660Y-94174372D01*
X127571329Y-94265704D01*
X127730000Y-94297836D01*
X129430000Y-94297836D01*
X129578231Y-94269944D01*
X129714372Y-94182340D01*
X129805704Y-94048671D01*
X129837836Y-93890000D01*
X129837836Y-92190000D01*
X129809944Y-92041769D01*
X129722340Y-91905628D01*
X129588671Y-91814296D01*
X129430000Y-91782164D01*
X129213203Y-91782164D01*
X129468854Y-91655741D01*
X129843477Y-91227616D01*
X129987903Y-90878910D01*
X129876889Y-90654000D01*
X128734000Y-90654000D01*
X128734000Y-90674000D01*
X128426000Y-90674000D01*
X128426000Y-90654000D01*
X127283111Y-90654000D01*
X127172097Y-90878910D01*
X124263552Y-90878910D01*
X127336065Y-87806397D01*
X127305511Y-87960000D01*
X127400662Y-88438354D01*
X127671628Y-88843883D01*
X128077157Y-89114849D01*
X128132710Y-89125899D01*
X127691146Y-89344259D01*
X127316523Y-89772384D01*
X127172097Y-90121090D01*
X127283111Y-90346000D01*
X128426000Y-90346000D01*
X128426000Y-90326000D01*
X128734000Y-90326000D01*
X128734000Y-90346000D01*
X129876889Y-90346000D01*
X129987903Y-90121090D01*
X129843477Y-89772384D01*
X129468854Y-89344259D01*
X129027290Y-89125899D01*
X129082843Y-89114849D01*
X129488372Y-88843883D01*
X129759338Y-88438354D01*
X129854489Y-87960000D01*
X129759338Y-87481646D01*
X129574489Y-87205000D01*
X130940825Y-87205000D01*
X130991634Y-87281041D01*
X131042457Y-87315000D01*
X130991634Y-87348959D01*
X130807377Y-87624719D01*
X130742675Y-87950000D01*
X130807377Y-88275281D01*
X130991634Y-88551041D01*
X131042457Y-88585000D01*
X130991634Y-88618959D01*
X130807377Y-88894719D01*
X130742675Y-89220000D01*
X130807377Y-89545281D01*
X130991634Y-89821041D01*
X131042457Y-89855000D01*
X130991634Y-89888959D01*
X130807377Y-90164719D01*
X130742675Y-90490000D01*
X130807377Y-90815281D01*
X130991634Y-91091041D01*
X131042457Y-91125000D01*
X130991634Y-91158959D01*
X130807377Y-91434719D01*
X130742675Y-91760000D01*
X130807377Y-92085281D01*
X130991634Y-92361041D01*
X131042457Y-92395000D01*
X130991634Y-92428959D01*
X130807377Y-92704719D01*
X130742675Y-93030000D01*
X130807377Y-93355281D01*
X130991634Y-93631041D01*
X131042457Y-93665000D01*
X130991634Y-93698959D01*
X130807377Y-93974719D01*
X130742675Y-94300000D01*
X130807377Y-94625281D01*
X130991634Y-94901041D01*
X131042457Y-94935000D01*
X130991634Y-94968959D01*
X130807377Y-95244719D01*
X130742675Y-95570000D01*
X130807377Y-95895281D01*
X130991634Y-96171041D01*
X131042457Y-96205000D01*
X130991634Y-96238959D01*
X130807377Y-96514719D01*
X130742675Y-96840000D01*
X130807377Y-97165281D01*
X130991634Y-97441041D01*
X131267394Y-97625298D01*
X131592675Y-97690000D01*
X133257325Y-97690000D01*
X133582606Y-97625298D01*
X133858366Y-97441041D01*
X134042623Y-97165281D01*
X134107325Y-96840000D01*
X134042623Y-96514719D01*
X133858366Y-96238959D01*
X133807543Y-96205000D01*
X133858366Y-96171041D01*
X134042623Y-95895281D01*
X134107325Y-95570000D01*
X134042623Y-95244719D01*
X133858366Y-94968959D01*
X133807543Y-94935000D01*
X133858366Y-94901041D01*
X134042623Y-94625281D01*
X134107325Y-94300000D01*
X134042623Y-93974719D01*
X133858366Y-93698959D01*
X133807543Y-93665000D01*
X133858366Y-93631041D01*
X134042623Y-93355281D01*
X134107325Y-93030000D01*
X134042623Y-92704719D01*
X133858366Y-92428959D01*
X133807543Y-92395000D01*
X133858366Y-92361041D01*
X134042623Y-92085281D01*
X134107325Y-91760000D01*
X134042623Y-91434719D01*
X133858366Y-91158959D01*
X133807543Y-91125000D01*
X133858366Y-91091041D01*
X134042623Y-90815281D01*
X134107325Y-90490000D01*
X134042623Y-90164719D01*
X133858366Y-89888959D01*
X133807543Y-89855000D01*
X133858366Y-89821041D01*
X134042623Y-89545281D01*
X134107325Y-89220000D01*
X134042623Y-88894719D01*
X133858366Y-88618959D01*
X133807543Y-88585000D01*
X133858366Y-88551041D01*
X134042623Y-88275281D01*
X134107325Y-87950000D01*
X134058406Y-87704061D01*
X139117000Y-87704061D01*
X139117000Y-90519000D01*
X139269000Y-90671000D01*
X142571000Y-90671000D01*
X142571000Y-87369000D01*
X142879000Y-87369000D01*
X142879000Y-90671000D01*
X146181000Y-90671000D01*
X146333000Y-90519000D01*
X146333000Y-87704061D01*
X146240437Y-87480595D01*
X146069404Y-87309562D01*
X145845938Y-87217000D01*
X143031000Y-87217000D01*
X142879000Y-87369000D01*
X142571000Y-87369000D01*
X142419000Y-87217000D01*
X139604062Y-87217000D01*
X139380596Y-87309562D01*
X139209563Y-87480595D01*
X139117000Y-87704061D01*
X134058406Y-87704061D01*
X134042623Y-87624719D01*
X133858366Y-87348959D01*
X133807543Y-87315000D01*
X133858366Y-87281041D01*
X134042623Y-87005281D01*
X134107325Y-86680000D01*
X134042623Y-86354719D01*
X133930035Y-86186219D01*
X134082014Y-86049224D01*
X134234754Y-85725849D01*
X134117816Y-85564000D01*
X132579000Y-85564000D01*
X132579000Y-85584000D01*
X132271000Y-85584000D01*
X132271000Y-85564000D01*
X130732184Y-85564000D01*
X130615246Y-85725849D01*
X130767986Y-86049224D01*
X130885332Y-86155000D01*
X129587853Y-86155000D01*
X129759338Y-85898354D01*
X129854489Y-85420000D01*
X129789674Y-85094151D01*
X130615246Y-85094151D01*
X130732184Y-85256000D01*
X132271000Y-85256000D01*
X132271000Y-84352000D01*
X131471000Y-84352000D01*
X131077843Y-84491469D01*
X130767986Y-84770776D01*
X130615246Y-85094151D01*
X129789674Y-85094151D01*
X129759338Y-84941646D01*
X129488372Y-84536117D01*
X129082843Y-84265151D01*
X128604489Y-84170000D01*
X128555511Y-84170000D01*
X128077157Y-84265151D01*
X128047484Y-84284978D01*
X132427462Y-79905000D01*
X134342538Y-79905000D01*
X134660000Y-80222462D01*
X134660000Y-80533919D01*
X134603603Y-80397428D01*
X134378755Y-80172188D01*
X134084828Y-80050139D01*
X133766568Y-80049861D01*
X133472428Y-80171397D01*
X133247188Y-80396245D01*
X133125139Y-80690172D01*
X133124876Y-80991658D01*
X133065000Y-81292675D01*
X133065000Y-82957325D01*
X133129702Y-83282606D01*
X133313959Y-83558366D01*
X133589719Y-83742623D01*
X133915000Y-83807325D01*
X134240281Y-83742623D01*
X134516041Y-83558366D01*
X134550000Y-83507543D01*
X134583959Y-83558366D01*
X134859719Y-83742623D01*
X135185000Y-83807325D01*
X135510281Y-83742623D01*
X135786041Y-83558366D01*
X135820000Y-83507543D01*
X135853959Y-83558366D01*
X136129719Y-83742623D01*
X136455000Y-83807325D01*
X136780281Y-83742623D01*
X137056041Y-83558366D01*
X137090000Y-83507543D01*
X137123959Y-83558366D01*
X137399719Y-83742623D01*
X137725000Y-83807325D01*
X138050281Y-83742623D01*
X138326041Y-83558366D01*
X138360000Y-83507543D01*
X138393959Y-83558366D01*
X138669719Y-83742623D01*
X138995000Y-83807325D01*
X139320281Y-83742623D01*
X139596041Y-83558366D01*
X139630000Y-83507543D01*
X139663959Y-83558366D01*
X139939719Y-83742623D01*
X140265000Y-83807325D01*
X140590281Y-83742623D01*
X140866041Y-83558366D01*
X140900000Y-83507543D01*
X140933959Y-83558366D01*
X141209719Y-83742623D01*
X141535000Y-83807325D01*
X141860281Y-83742623D01*
X142136041Y-83558366D01*
X142170000Y-83507543D01*
X142203959Y-83558366D01*
X142479719Y-83742623D01*
X142805000Y-83807325D01*
X143130281Y-83742623D01*
X143406041Y-83558366D01*
X143440000Y-83507543D01*
X143473959Y-83558366D01*
X143749719Y-83742623D01*
X144075000Y-83807325D01*
X144400281Y-83742623D01*
X144676041Y-83558366D01*
X144710000Y-83507543D01*
X144743959Y-83558366D01*
X145019719Y-83742623D01*
X145345000Y-83807325D01*
X145670281Y-83742623D01*
X145946041Y-83558366D01*
X145980000Y-83507543D01*
X146013959Y-83558366D01*
X146289719Y-83742623D01*
X146615000Y-83807325D01*
X146940281Y-83742623D01*
X147216041Y-83558366D01*
X147250000Y-83507543D01*
X147283959Y-83558366D01*
X147559719Y-83742623D01*
X147885000Y-83807325D01*
X147894711Y-83805393D01*
X147667552Y-84032552D01*
X147625668Y-84095236D01*
X135398248Y-84076724D01*
X135373755Y-84052188D01*
X135079828Y-83930139D01*
X134761568Y-83929861D01*
X134467428Y-84051397D01*
X134242188Y-84276245D01*
X134120139Y-84570172D01*
X134119894Y-84850973D01*
X134082014Y-84770776D01*
X133772157Y-84491469D01*
X133379000Y-84352000D01*
X132579000Y-84352000D01*
X132579000Y-85256000D01*
X134117816Y-85256000D01*
X134215737Y-85120471D01*
X134241397Y-85182572D01*
X134466245Y-85407812D01*
X134760172Y-85529861D01*
X135078432Y-85530139D01*
X135372572Y-85408603D01*
X135396495Y-85384722D01*
X147651752Y-85403276D01*
X147676245Y-85427812D01*
X147970172Y-85549861D01*
X148288432Y-85550139D01*
X148582572Y-85428603D01*
X148807812Y-85203755D01*
X148929861Y-84909828D01*
X148930114Y-84619782D01*
X149617448Y-83932448D01*
X149746832Y-83738810D01*
X149785776Y-83782014D01*
X150109151Y-83934754D01*
X150271000Y-83817816D01*
X150271000Y-82279000D01*
X150579000Y-82279000D01*
X150579000Y-83817816D01*
X150740849Y-83934754D01*
X151064224Y-83782014D01*
X151343531Y-83472157D01*
X151483000Y-83079000D01*
X151483000Y-82279000D01*
X150579000Y-82279000D01*
X150271000Y-82279000D01*
X150251000Y-82279000D01*
X150251000Y-81971000D01*
X150271000Y-81971000D01*
X150271000Y-80432184D01*
X150579000Y-80432184D01*
X150579000Y-81971000D01*
X151483000Y-81971000D01*
X151483000Y-81171000D01*
X151343531Y-80777843D01*
X151064224Y-80467986D01*
X150740849Y-80315246D01*
X150579000Y-80432184D01*
X150271000Y-80432184D01*
X150109151Y-80315246D01*
X149785776Y-80467986D01*
X149648781Y-80619965D01*
X149480281Y-80507377D01*
X149155000Y-80442675D01*
X148829719Y-80507377D01*
X148700093Y-80593990D01*
X148700139Y-80541568D01*
X148578603Y-80247428D01*
X148353755Y-80022188D01*
X148059828Y-79900139D01*
X147741568Y-79899861D01*
X147447428Y-80021397D01*
X147222188Y-80246245D01*
X147100139Y-80540172D01*
X147100074Y-80614148D01*
X146940281Y-80507377D01*
X146615000Y-80442675D01*
X146289719Y-80507377D01*
X146013959Y-80691634D01*
X145980000Y-80742457D01*
X145946041Y-80691634D01*
X145670281Y-80507377D01*
X145345000Y-80442675D01*
X145019719Y-80507377D01*
X144743959Y-80691634D01*
X144710000Y-80742457D01*
X144676041Y-80691634D01*
X144400281Y-80507377D01*
X144184808Y-80464517D01*
X140580995Y-76860705D01*
X140720000Y-76888355D01*
X141203559Y-76792169D01*
X141613500Y-76518255D01*
X141887414Y-76108314D01*
X141983600Y-75624755D01*
X141983600Y-75575245D01*
X141887414Y-75091686D01*
X141613500Y-74681745D01*
X141203559Y-74407831D01*
X140812277Y-74330000D01*
X141203559Y-74252169D01*
X141613500Y-73978255D01*
X141887414Y-73568314D01*
X141891420Y-73548174D01*
X142092598Y-73956000D01*
X142524346Y-74334541D01*
X142747687Y-74427044D01*
X142366500Y-74681745D01*
X142092586Y-75091686D01*
X141996400Y-75575245D01*
X141996400Y-75624755D01*
X142092586Y-76108314D01*
X142366500Y-76518255D01*
X142776441Y-76792169D01*
X143260000Y-76888355D01*
X143743559Y-76792169D01*
X144153500Y-76518255D01*
X144427414Y-76108314D01*
X144523600Y-75624755D01*
X144523600Y-75575245D01*
X144427414Y-75091686D01*
X144153500Y-74681745D01*
X143772313Y-74427044D01*
X143995654Y-74334541D01*
X144427402Y-73956000D01*
X144628580Y-73548174D01*
X144632586Y-73568314D01*
X144906500Y-73978255D01*
X145146000Y-74138284D01*
X145146000Y-74328564D01*
X144936400Y-74328564D01*
X144788169Y-74356456D01*
X144652028Y-74444060D01*
X144560696Y-74577729D01*
X144528564Y-74736400D01*
X144528564Y-76463600D01*
X144556456Y-76611831D01*
X144644060Y-76747972D01*
X144777729Y-76839304D01*
X144936400Y-76871436D01*
X146663600Y-76871436D01*
X146811831Y-76843544D01*
X146947972Y-76755940D01*
X147039304Y-76622271D01*
X147071436Y-76463600D01*
X147071436Y-74736400D01*
X147043544Y-74588169D01*
X146955940Y-74452028D01*
X146822271Y-74360696D01*
X146663600Y-74328564D01*
X146454000Y-74328564D01*
X146454000Y-74138284D01*
X146693500Y-73978255D01*
X146967414Y-73568314D01*
X147063600Y-73084755D01*
X147063600Y-73035245D01*
X147051871Y-72976275D01*
X148399671Y-72976275D01*
X148688319Y-73674857D01*
X149222331Y-74209802D01*
X149920409Y-74499669D01*
X150676275Y-74500329D01*
X151374857Y-74211681D01*
X151909802Y-73677669D01*
X152199669Y-72979591D01*
X152200329Y-72223725D01*
X151911681Y-71525143D01*
X151377669Y-70990198D01*
X150679591Y-70700331D01*
X149923725Y-70699671D01*
X149225143Y-70988319D01*
X148690198Y-71522331D01*
X148400331Y-72220409D01*
X148399671Y-72976275D01*
X147051871Y-72976275D01*
X146967414Y-72551686D01*
X146693500Y-72141745D01*
X146561862Y-72053787D01*
X146561245Y-72050684D01*
X146554857Y-71949618D01*
X146531778Y-71902542D01*
X146521550Y-71851124D01*
X146465293Y-71766930D01*
X146420714Y-71676000D01*
X145370714Y-70301000D01*
X145330919Y-70265937D01*
X145301390Y-70221892D01*
X145217610Y-70166100D01*
X145142073Y-70099544D01*
X145105867Y-70087160D01*
X153112800Y-70087160D01*
X153112800Y-113041760D01*
X110275000Y-113041760D01*
X110275000Y-109976275D01*
X111399671Y-109976275D01*
X111688319Y-110674857D01*
X112222331Y-111209802D01*
X112920409Y-111499669D01*
X113676275Y-111500329D01*
X114374857Y-111211681D01*
X114909802Y-110677669D01*
X114981472Y-110505066D01*
X128287723Y-110505066D01*
X128390174Y-110761040D01*
X128993703Y-110973105D01*
X129632445Y-110938067D01*
X130059826Y-110761040D01*
X130162277Y-110505066D01*
X134787723Y-110505066D01*
X134890174Y-110761040D01*
X135493703Y-110973105D01*
X136132445Y-110938067D01*
X136559826Y-110761040D01*
X136662277Y-110505066D01*
X137887723Y-110505066D01*
X137990174Y-110761040D01*
X138593703Y-110973105D01*
X139232445Y-110938067D01*
X139659826Y-110761040D01*
X139762277Y-110505066D01*
X144387723Y-110505066D01*
X144490174Y-110761040D01*
X145093703Y-110973105D01*
X145732445Y-110938067D01*
X146159826Y-110761040D01*
X146262277Y-110505066D01*
X145325000Y-109567789D01*
X144387723Y-110505066D01*
X139762277Y-110505066D01*
X138825000Y-109567789D01*
X137887723Y-110505066D01*
X136662277Y-110505066D01*
X135725000Y-109567789D01*
X134787723Y-110505066D01*
X130162277Y-110505066D01*
X129225000Y-109567789D01*
X128287723Y-110505066D01*
X114981472Y-110505066D01*
X115199669Y-109979591D01*
X115200329Y-109223725D01*
X114911681Y-108525143D01*
X114462324Y-108075000D01*
X121392164Y-108075000D01*
X121392164Y-109875000D01*
X121420056Y-110023231D01*
X121507660Y-110159372D01*
X121641329Y-110250704D01*
X121800000Y-110282836D01*
X123600000Y-110282836D01*
X123748231Y-110254944D01*
X123884372Y-110167340D01*
X123975704Y-110033671D01*
X124007836Y-109875000D01*
X124007836Y-109397174D01*
X124137271Y-109710429D01*
X124502647Y-110076444D01*
X124980279Y-110274774D01*
X125497452Y-110275226D01*
X125975429Y-110077729D01*
X126341444Y-109712353D01*
X126539774Y-109234721D01*
X126539875Y-109118703D01*
X127601895Y-109118703D01*
X127636933Y-109757445D01*
X127813960Y-110184826D01*
X128069934Y-110287277D01*
X129007211Y-109350000D01*
X129442789Y-109350000D01*
X130380066Y-110287277D01*
X130636040Y-110184826D01*
X130848105Y-109581297D01*
X130822730Y-109118703D01*
X134101895Y-109118703D01*
X134136933Y-109757445D01*
X134313960Y-110184826D01*
X134569934Y-110287277D01*
X135507211Y-109350000D01*
X135942789Y-109350000D01*
X136880066Y-110287277D01*
X137136040Y-110184826D01*
X137263594Y-109821811D01*
X137413960Y-110184826D01*
X137669934Y-110287277D01*
X138607211Y-109350000D01*
X139042789Y-109350000D01*
X139980066Y-110287277D01*
X140236040Y-110184826D01*
X140448105Y-109581297D01*
X140422730Y-109118703D01*
X143701895Y-109118703D01*
X143736933Y-109757445D01*
X143913960Y-110184826D01*
X144169934Y-110287277D01*
X145107211Y-109350000D01*
X145542789Y-109350000D01*
X146480066Y-110287277D01*
X146736040Y-110184826D01*
X146809319Y-109976275D01*
X148399671Y-109976275D01*
X148688319Y-110674857D01*
X149222331Y-111209802D01*
X149920409Y-111499669D01*
X150676275Y-111500329D01*
X151374857Y-111211681D01*
X151909802Y-110677669D01*
X152199669Y-109979591D01*
X152200329Y-109223725D01*
X151911681Y-108525143D01*
X151377669Y-107990198D01*
X150679591Y-107700331D01*
X149923725Y-107699671D01*
X149225143Y-107988319D01*
X148690198Y-108522331D01*
X148400331Y-109220409D01*
X148399671Y-109976275D01*
X146809319Y-109976275D01*
X146948105Y-109581297D01*
X146913067Y-108942555D01*
X146736040Y-108515174D01*
X146480066Y-108412723D01*
X145542789Y-109350000D01*
X145107211Y-109350000D01*
X144169934Y-108412723D01*
X143913960Y-108515174D01*
X143701895Y-109118703D01*
X140422730Y-109118703D01*
X140413067Y-108942555D01*
X140236040Y-108515174D01*
X139980066Y-108412723D01*
X139042789Y-109350000D01*
X138607211Y-109350000D01*
X137669934Y-108412723D01*
X137413960Y-108515174D01*
X137286406Y-108878189D01*
X137136040Y-108515174D01*
X136880066Y-108412723D01*
X135942789Y-109350000D01*
X135507211Y-109350000D01*
X134569934Y-108412723D01*
X134313960Y-108515174D01*
X134101895Y-109118703D01*
X130822730Y-109118703D01*
X130813067Y-108942555D01*
X130636040Y-108515174D01*
X130380066Y-108412723D01*
X129442789Y-109350000D01*
X129007211Y-109350000D01*
X128069934Y-108412723D01*
X127813960Y-108515174D01*
X127601895Y-109118703D01*
X126539875Y-109118703D01*
X126540226Y-108717548D01*
X126342729Y-108239571D01*
X126298170Y-108194934D01*
X128287723Y-108194934D01*
X129225000Y-109132211D01*
X130162277Y-108194934D01*
X134787723Y-108194934D01*
X135725000Y-109132211D01*
X136662277Y-108194934D01*
X137887723Y-108194934D01*
X138825000Y-109132211D01*
X139762277Y-108194934D01*
X144387723Y-108194934D01*
X145325000Y-109132211D01*
X146262277Y-108194934D01*
X146159826Y-107938960D01*
X145556297Y-107726895D01*
X144917555Y-107761933D01*
X144490174Y-107938960D01*
X144387723Y-108194934D01*
X139762277Y-108194934D01*
X139659826Y-107938960D01*
X139056297Y-107726895D01*
X138417555Y-107761933D01*
X137990174Y-107938960D01*
X137887723Y-108194934D01*
X136662277Y-108194934D01*
X136559826Y-107938960D01*
X135956297Y-107726895D01*
X135317555Y-107761933D01*
X134890174Y-107938960D01*
X134787723Y-108194934D01*
X130162277Y-108194934D01*
X130059826Y-107938960D01*
X129456297Y-107726895D01*
X128817555Y-107761933D01*
X128390174Y-107938960D01*
X128287723Y-108194934D01*
X126298170Y-108194934D01*
X125977353Y-107873556D01*
X125499721Y-107675226D01*
X124982548Y-107674774D01*
X124504571Y-107872271D01*
X124138556Y-108237647D01*
X124007836Y-108552456D01*
X124007836Y-108075000D01*
X123979944Y-107926769D01*
X123892340Y-107790628D01*
X123758671Y-107699296D01*
X123600000Y-107667164D01*
X121800000Y-107667164D01*
X121651769Y-107695056D01*
X121515628Y-107782660D01*
X121424296Y-107916329D01*
X121392164Y-108075000D01*
X114462324Y-108075000D01*
X114377669Y-107990198D01*
X113679591Y-107700331D01*
X112923725Y-107699671D01*
X112225143Y-107988319D01*
X111690198Y-108522331D01*
X111400331Y-109220409D01*
X111399671Y-109976275D01*
X110275000Y-109976275D01*
X110275000Y-80110440D01*
X112750000Y-80110440D01*
X112750000Y-103425000D01*
X112789963Y-103625909D01*
X112903769Y-103796231D01*
X113083769Y-103976231D01*
X113254091Y-104090037D01*
X113455000Y-104130000D01*
X115976830Y-104130000D01*
X116216628Y-104488883D01*
X116622157Y-104759849D01*
X117100511Y-104855000D01*
X117149489Y-104855000D01*
X117627843Y-104759849D01*
X118033372Y-104488883D01*
X118273170Y-104130000D01*
X119717164Y-104130000D01*
X119717164Y-104450000D01*
X119745056Y-104598231D01*
X119832660Y-104734372D01*
X119966329Y-104825704D01*
X120125000Y-104857836D01*
X121825000Y-104857836D01*
X121973231Y-104829944D01*
X122109372Y-104742340D01*
X122200704Y-104608671D01*
X122232836Y-104450000D01*
X122232836Y-104110000D01*
X123676830Y-104110000D01*
X123916628Y-104468883D01*
X124322157Y-104739849D01*
X124800511Y-104835000D01*
X124849489Y-104835000D01*
X125327843Y-104739849D01*
X125733372Y-104468883D01*
X126004338Y-104063354D01*
X126099489Y-103585000D01*
X126004338Y-103106646D01*
X125733372Y-102701117D01*
X125327843Y-102430151D01*
X125272290Y-102419101D01*
X125713854Y-102200741D01*
X126088477Y-101772616D01*
X126232903Y-101423910D01*
X126121889Y-101199000D01*
X124979000Y-101199000D01*
X124979000Y-101219000D01*
X124671000Y-101219000D01*
X124671000Y-101199000D01*
X123528111Y-101199000D01*
X123417097Y-101423910D01*
X123561523Y-101772616D01*
X123936146Y-102200741D01*
X124377710Y-102419101D01*
X124322157Y-102430151D01*
X123916628Y-102701117D01*
X123676830Y-103060000D01*
X122232836Y-103060000D01*
X122232836Y-102750000D01*
X122204944Y-102601769D01*
X122117340Y-102465628D01*
X121983671Y-102374296D01*
X121825000Y-102342164D01*
X121608203Y-102342164D01*
X121863854Y-102215741D01*
X122238477Y-101787616D01*
X122382903Y-101438910D01*
X122271889Y-101214000D01*
X121129000Y-101214000D01*
X121129000Y-101234000D01*
X120821000Y-101234000D01*
X120821000Y-101214000D01*
X119678111Y-101214000D01*
X119567097Y-101438910D01*
X119711523Y-101787616D01*
X120086146Y-102215741D01*
X120341797Y-102342164D01*
X120125000Y-102342164D01*
X119976769Y-102370056D01*
X119840628Y-102457660D01*
X119749296Y-102591329D01*
X119717164Y-102750000D01*
X119717164Y-103080000D01*
X118273170Y-103080000D01*
X118033372Y-102721117D01*
X117627843Y-102450151D01*
X117572290Y-102439101D01*
X118013854Y-102220741D01*
X118388477Y-101792616D01*
X118532903Y-101443910D01*
X118421889Y-101219000D01*
X117279000Y-101219000D01*
X117279000Y-101239000D01*
X116971000Y-101239000D01*
X116971000Y-101219000D01*
X115828111Y-101219000D01*
X115717097Y-101443910D01*
X115861523Y-101792616D01*
X116236146Y-102220741D01*
X116677710Y-102439101D01*
X116622157Y-102450151D01*
X116216628Y-102721117D01*
X115976830Y-103080000D01*
X113800000Y-103080000D01*
X113800000Y-100686090D01*
X115717097Y-100686090D01*
X115828111Y-100911000D01*
X116971000Y-100911000D01*
X116971000Y-100891000D01*
X117279000Y-100891000D01*
X117279000Y-100911000D01*
X118421889Y-100911000D01*
X118532903Y-100686090D01*
X118530833Y-100681090D01*
X119567097Y-100681090D01*
X119678111Y-100906000D01*
X120821000Y-100906000D01*
X120821000Y-100886000D01*
X121129000Y-100886000D01*
X121129000Y-100906000D01*
X122271889Y-100906000D01*
X122382903Y-100681090D01*
X122376691Y-100666090D01*
X123417097Y-100666090D01*
X123528111Y-100891000D01*
X124671000Y-100891000D01*
X124671000Y-100871000D01*
X124979000Y-100871000D01*
X124979000Y-100891000D01*
X126121889Y-100891000D01*
X126232903Y-100666090D01*
X126088477Y-100317384D01*
X125713854Y-99889259D01*
X125272290Y-99670899D01*
X125327843Y-99659849D01*
X125733372Y-99388883D01*
X125971834Y-99032000D01*
X126126710Y-99032000D01*
X130917355Y-103822645D01*
X131088325Y-103936885D01*
X131290000Y-103977000D01*
X134617896Y-103977000D01*
X134538830Y-104055928D01*
X134427101Y-104325000D01*
X130522877Y-104325000D01*
X130412555Y-104058000D01*
X130019072Y-103663830D01*
X129504699Y-103450243D01*
X128947744Y-103449757D01*
X128433000Y-103662445D01*
X128038830Y-104055928D01*
X127825243Y-104570301D01*
X127824757Y-105127256D01*
X128037445Y-105642000D01*
X128430928Y-106036170D01*
X128945301Y-106249757D01*
X129502256Y-106250243D01*
X130017000Y-106037555D01*
X130411170Y-105644072D01*
X130522899Y-105375000D01*
X134427123Y-105375000D01*
X134537445Y-105642000D01*
X134930928Y-106036170D01*
X135445301Y-106249757D01*
X136002256Y-106250243D01*
X136517000Y-106037555D01*
X136911170Y-105644072D01*
X137124757Y-105129699D01*
X137124759Y-105127256D01*
X137424757Y-105127256D01*
X137637445Y-105642000D01*
X138030928Y-106036170D01*
X138545301Y-106249757D01*
X139102256Y-106250243D01*
X139617000Y-106037555D01*
X140011170Y-105644072D01*
X140224757Y-105129699D01*
X140224759Y-105127256D01*
X143924757Y-105127256D01*
X144137445Y-105642000D01*
X144530928Y-106036170D01*
X145045301Y-106249757D01*
X145602256Y-106250243D01*
X146117000Y-106037555D01*
X146511170Y-105644072D01*
X146724757Y-105129699D01*
X146725243Y-104572744D01*
X146512555Y-104058000D01*
X146119072Y-103663830D01*
X145604699Y-103450243D01*
X145047744Y-103449757D01*
X144533000Y-103662445D01*
X144138830Y-104055928D01*
X143925243Y-104570301D01*
X143924757Y-105127256D01*
X140224759Y-105127256D01*
X140225243Y-104572744D01*
X140012555Y-104058000D01*
X139619072Y-103663830D01*
X139104699Y-103450243D01*
X138547744Y-103449757D01*
X138033000Y-103662445D01*
X137638830Y-104055928D01*
X137425243Y-104570301D01*
X137424757Y-105127256D01*
X137124759Y-105127256D01*
X137125243Y-104572744D01*
X136912555Y-104058000D01*
X136831696Y-103977000D01*
X137140000Y-103977000D01*
X137341675Y-103936885D01*
X137512645Y-103822645D01*
X138922374Y-102412916D01*
X139021397Y-102652572D01*
X139246245Y-102877812D01*
X139540172Y-102999861D01*
X139858432Y-103000139D01*
X140152572Y-102878603D01*
X140377812Y-102653755D01*
X140499861Y-102359828D01*
X140500048Y-102145242D01*
X140637646Y-102007645D01*
X140751885Y-101836674D01*
X140792000Y-101635000D01*
X140792000Y-101607839D01*
X140866041Y-101558366D01*
X140900000Y-101507543D01*
X140933959Y-101558366D01*
X141008000Y-101607839D01*
X141008000Y-101735000D01*
X141048115Y-101936675D01*
X141162355Y-102107645D01*
X141225047Y-102170337D01*
X141224861Y-102383432D01*
X141346397Y-102677572D01*
X141571245Y-102902812D01*
X141865172Y-103024861D01*
X142183432Y-103025139D01*
X142477572Y-102903603D01*
X142702812Y-102678755D01*
X142824861Y-102384828D01*
X142825139Y-102066568D01*
X142710233Y-101788475D01*
X142805000Y-101807325D01*
X143130281Y-101742623D01*
X143406041Y-101558366D01*
X143440000Y-101507543D01*
X143473959Y-101558366D01*
X143749719Y-101742623D01*
X144075000Y-101807325D01*
X144400281Y-101742623D01*
X144676041Y-101558366D01*
X144710000Y-101507543D01*
X144743959Y-101558366D01*
X145019719Y-101742623D01*
X145345000Y-101807325D01*
X145670281Y-101742623D01*
X145946041Y-101558366D01*
X145980000Y-101507543D01*
X146013959Y-101558366D01*
X146289719Y-101742623D01*
X146615000Y-101807325D01*
X146940281Y-101742623D01*
X147216041Y-101558366D01*
X147250000Y-101507543D01*
X147283959Y-101558366D01*
X147559719Y-101742623D01*
X147885000Y-101807325D01*
X148210281Y-101742623D01*
X148486041Y-101558366D01*
X148520000Y-101507543D01*
X148553959Y-101558366D01*
X148829719Y-101742623D01*
X149155000Y-101807325D01*
X149480281Y-101742623D01*
X149648781Y-101630035D01*
X149785776Y-101782014D01*
X150109151Y-101934754D01*
X150271000Y-101817816D01*
X150271000Y-100279000D01*
X150579000Y-100279000D01*
X150579000Y-101817816D01*
X150740849Y-101934754D01*
X151064224Y-101782014D01*
X151343531Y-101472157D01*
X151483000Y-101079000D01*
X151483000Y-100279000D01*
X150579000Y-100279000D01*
X150271000Y-100279000D01*
X150251000Y-100279000D01*
X150251000Y-99971000D01*
X150271000Y-99971000D01*
X150271000Y-98432184D01*
X150579000Y-98432184D01*
X150579000Y-99971000D01*
X151483000Y-99971000D01*
X151483000Y-99171000D01*
X151343531Y-98777843D01*
X151064224Y-98467986D01*
X150740849Y-98315246D01*
X150579000Y-98432184D01*
X150271000Y-98432184D01*
X150109151Y-98315246D01*
X149785776Y-98467986D01*
X149682000Y-98583113D01*
X149682000Y-87755000D01*
X149641885Y-87553326D01*
X149561990Y-87433755D01*
X149527645Y-87382354D01*
X148295947Y-86150657D01*
X148241231Y-86068769D01*
X148070909Y-85954963D01*
X148056477Y-85952092D01*
X148000909Y-85914963D01*
X147800000Y-85875000D01*
X140956301Y-85875000D01*
X140803755Y-85722188D01*
X140509828Y-85600139D01*
X140191568Y-85599861D01*
X139897428Y-85721397D01*
X139672188Y-85946245D01*
X139550139Y-86240172D01*
X139549861Y-86558432D01*
X139671397Y-86852572D01*
X139896245Y-87077812D01*
X140190172Y-87199861D01*
X140508432Y-87200139D01*
X140802572Y-87078603D01*
X140956443Y-86925000D01*
X147579710Y-86925000D01*
X148628000Y-87973291D01*
X148628000Y-98642161D01*
X148553959Y-98691634D01*
X148520000Y-98742457D01*
X148486041Y-98691634D01*
X148210281Y-98507377D01*
X147885000Y-98442675D01*
X147559719Y-98507377D01*
X147283959Y-98691634D01*
X147250000Y-98742457D01*
X147216041Y-98691634D01*
X147140000Y-98640825D01*
X147140000Y-95765000D01*
X147100037Y-95564091D01*
X146986231Y-95393769D01*
X145972881Y-94380419D01*
X146069404Y-94340438D01*
X146240437Y-94169405D01*
X146333000Y-93945939D01*
X146333000Y-91131000D01*
X146181000Y-90979000D01*
X142879000Y-90979000D01*
X142879000Y-90999000D01*
X142571000Y-90999000D01*
X142571000Y-90979000D01*
X139269000Y-90979000D01*
X139117000Y-91131000D01*
X139117000Y-93444538D01*
X137149950Y-91477488D01*
X137150139Y-91261568D01*
X137028603Y-90967428D01*
X136803755Y-90742188D01*
X136509828Y-90620139D01*
X136191568Y-90619861D01*
X135897428Y-90741397D01*
X135672188Y-90966245D01*
X135550139Y-91260172D01*
X135549861Y-91578432D01*
X135671397Y-91872572D01*
X135896245Y-92097812D01*
X136190172Y-92219861D01*
X136407589Y-92220051D01*
X139108769Y-94921231D01*
X139279091Y-95035037D01*
X139480000Y-95075000D01*
X145182538Y-95075000D01*
X146090000Y-95982462D01*
X146090000Y-98640825D01*
X146013959Y-98691634D01*
X145980000Y-98742457D01*
X145946041Y-98691634D01*
X145870000Y-98640825D01*
X145870000Y-96815000D01*
X145830037Y-96614091D01*
X145716231Y-96443769D01*
X144881231Y-95608769D01*
X144710909Y-95494963D01*
X144510000Y-95455000D01*
X137837462Y-95455000D01*
X137579950Y-95197488D01*
X137580139Y-94981568D01*
X137458603Y-94687428D01*
X137233755Y-94462188D01*
X136939828Y-94340139D01*
X136621568Y-94339861D01*
X136327428Y-94461397D01*
X136102188Y-94686245D01*
X135980139Y-94980172D01*
X135979861Y-95298432D01*
X136101397Y-95592572D01*
X136326245Y-95817812D01*
X136620172Y-95939861D01*
X136837589Y-95940051D01*
X137248769Y-96351231D01*
X137419091Y-96465037D01*
X137620000Y-96505000D01*
X144292538Y-96505000D01*
X144820000Y-97032462D01*
X144820000Y-98640825D01*
X144743959Y-98691634D01*
X144710000Y-98742457D01*
X144676041Y-98691634D01*
X144600000Y-98640825D01*
X144600000Y-98055000D01*
X144560037Y-97854091D01*
X144446231Y-97683769D01*
X143891231Y-97128769D01*
X143720909Y-97014963D01*
X143520000Y-96975000D01*
X137167462Y-96975000D01*
X136490902Y-96298440D01*
X136490037Y-96294091D01*
X136376231Y-96123769D01*
X136031231Y-95778769D01*
X135860909Y-95664963D01*
X135660000Y-95625000D01*
X135526301Y-95625000D01*
X135373755Y-95472188D01*
X135079828Y-95350139D01*
X134761568Y-95349861D01*
X134467428Y-95471397D01*
X134242188Y-95696245D01*
X134120139Y-95990172D01*
X134119861Y-96308432D01*
X134241397Y-96602572D01*
X134466245Y-96827812D01*
X134760172Y-96949861D01*
X135078432Y-96950139D01*
X135372572Y-96828603D01*
X135484454Y-96716916D01*
X135519098Y-96751560D01*
X135519963Y-96755909D01*
X135633769Y-96926231D01*
X136578769Y-97871231D01*
X136749091Y-97985037D01*
X136950000Y-98025000D01*
X143302538Y-98025000D01*
X143550000Y-98272462D01*
X143550000Y-98640825D01*
X143473959Y-98691634D01*
X143440000Y-98742457D01*
X143406041Y-98691634D01*
X143130281Y-98507377D01*
X142805000Y-98442675D01*
X142479719Y-98507377D01*
X142203959Y-98691634D01*
X142170000Y-98742457D01*
X142136041Y-98691634D01*
X141860281Y-98507377D01*
X141535000Y-98442675D01*
X141209719Y-98507377D01*
X140933959Y-98691634D01*
X140900000Y-98742457D01*
X140866041Y-98691634D01*
X140590281Y-98507377D01*
X140265000Y-98442675D01*
X139939719Y-98507377D01*
X139663959Y-98691634D01*
X139630000Y-98742457D01*
X139596041Y-98691634D01*
X139320281Y-98507377D01*
X138995000Y-98442675D01*
X138669719Y-98507377D01*
X138393959Y-98691634D01*
X138360000Y-98742457D01*
X138326041Y-98691634D01*
X138050281Y-98507377D01*
X137725000Y-98442675D01*
X137399719Y-98507377D01*
X137123959Y-98691634D01*
X137090000Y-98742457D01*
X137056041Y-98691634D01*
X136780281Y-98507377D01*
X136517586Y-98455124D01*
X136066231Y-98003769D01*
X135895909Y-97889963D01*
X135695000Y-97850000D01*
X129992462Y-97850000D01*
X126082836Y-93940374D01*
X126082836Y-92575000D01*
X126054944Y-92426769D01*
X125967340Y-92290628D01*
X125833671Y-92199296D01*
X125675000Y-92167164D01*
X123975000Y-92167164D01*
X123826769Y-92195056D01*
X123690628Y-92282660D01*
X123599296Y-92416329D01*
X123567164Y-92575000D01*
X123567164Y-94275000D01*
X123595056Y-94423231D01*
X123682660Y-94559372D01*
X123816329Y-94650704D01*
X123975000Y-94682836D01*
X125340374Y-94682836D01*
X129403769Y-98746231D01*
X129574091Y-98860037D01*
X129775000Y-98900000D01*
X133174733Y-98900000D01*
X133129702Y-98967394D01*
X133065000Y-99292675D01*
X133065000Y-100696392D01*
X132942867Y-100955314D01*
X132722428Y-101046397D01*
X132497188Y-101271245D01*
X132375139Y-101565172D01*
X132374861Y-101883432D01*
X132496397Y-102177572D01*
X132711450Y-102393000D01*
X131748290Y-102393000D01*
X125921949Y-96566659D01*
X126004338Y-96443354D01*
X126099489Y-95965000D01*
X126004338Y-95486646D01*
X125733372Y-95081117D01*
X125327843Y-94810151D01*
X124849489Y-94715000D01*
X124800511Y-94715000D01*
X124322157Y-94810151D01*
X123916628Y-95081117D01*
X123645662Y-95486646D01*
X123550511Y-95965000D01*
X123645662Y-96443354D01*
X123916628Y-96848883D01*
X124322157Y-97119849D01*
X124800511Y-97215000D01*
X124849489Y-97215000D01*
X125041514Y-97176804D01*
X125186807Y-97322097D01*
X124849489Y-97255000D01*
X124800511Y-97255000D01*
X124322157Y-97350151D01*
X123916628Y-97621117D01*
X123645662Y-98026646D01*
X123550511Y-98505000D01*
X123645662Y-98983354D01*
X123916628Y-99388883D01*
X124322157Y-99659849D01*
X124377710Y-99670899D01*
X123936146Y-99889259D01*
X123561523Y-100317384D01*
X123417097Y-100666090D01*
X122376691Y-100666090D01*
X122238477Y-100332384D01*
X121863854Y-99904259D01*
X121422290Y-99685899D01*
X121477843Y-99674849D01*
X121883372Y-99403883D01*
X122154338Y-98998354D01*
X122249489Y-98520000D01*
X122154338Y-98041646D01*
X121883372Y-97636117D01*
X121477843Y-97365151D01*
X120999489Y-97270000D01*
X120950511Y-97270000D01*
X120472157Y-97365151D01*
X120066628Y-97636117D01*
X119795662Y-98041646D01*
X119700511Y-98520000D01*
X119795662Y-98998354D01*
X120066628Y-99403883D01*
X120472157Y-99674849D01*
X120527710Y-99685899D01*
X120086146Y-99904259D01*
X119711523Y-100332384D01*
X119567097Y-100681090D01*
X118530833Y-100681090D01*
X118388477Y-100337384D01*
X118013854Y-99909259D01*
X117758203Y-99782836D01*
X117975000Y-99782836D01*
X118123231Y-99754944D01*
X118259372Y-99667340D01*
X118350704Y-99533671D01*
X118382836Y-99375000D01*
X118382836Y-97675000D01*
X118354944Y-97526769D01*
X118267340Y-97390628D01*
X118133671Y-97299296D01*
X117975000Y-97267164D01*
X116275000Y-97267164D01*
X116126769Y-97295056D01*
X115990628Y-97382660D01*
X115899296Y-97516329D01*
X115867164Y-97675000D01*
X115867164Y-99375000D01*
X115895056Y-99523231D01*
X115982660Y-99659372D01*
X116116329Y-99750704D01*
X116275000Y-99782836D01*
X116491797Y-99782836D01*
X116236146Y-99909259D01*
X115861523Y-100337384D01*
X115717097Y-100686090D01*
X113800000Y-100686090D01*
X113800000Y-92842890D01*
X114451173Y-92842890D01*
X114580241Y-93155260D01*
X114819023Y-93394459D01*
X115131167Y-93524072D01*
X115469150Y-93524367D01*
X115781520Y-93395299D01*
X116020719Y-93156517D01*
X116150332Y-92844373D01*
X116150627Y-92506390D01*
X116021559Y-92194020D01*
X115782777Y-91954821D01*
X115470633Y-91825208D01*
X115132650Y-91824913D01*
X114820280Y-91953981D01*
X114581081Y-92192763D01*
X114451468Y-92504907D01*
X114451173Y-92842890D01*
X113800000Y-92842890D01*
X113800000Y-88443610D01*
X114451173Y-88443610D01*
X114580241Y-88755980D01*
X114819023Y-88995179D01*
X115131167Y-89124792D01*
X115469150Y-89125087D01*
X115781520Y-88996019D01*
X116020719Y-88757237D01*
X116150332Y-88445093D01*
X116150627Y-88107110D01*
X116021559Y-87794740D01*
X115782777Y-87555541D01*
X115470633Y-87425928D01*
X115132650Y-87425633D01*
X114820280Y-87554701D01*
X114581081Y-87793483D01*
X114451468Y-88105627D01*
X114451173Y-88443610D01*
X113800000Y-88443610D01*
X113800000Y-85126000D01*
X118982000Y-85126000D01*
X118982000Y-85740938D01*
X119074562Y-85964404D01*
X119245595Y-86135437D01*
X119469061Y-86228000D01*
X120284000Y-86228000D01*
X120436000Y-86076000D01*
X120436000Y-84974000D01*
X120744000Y-84974000D01*
X120744000Y-86076000D01*
X120896000Y-86228000D01*
X121710939Y-86228000D01*
X121934405Y-86135437D01*
X122105438Y-85964404D01*
X122198000Y-85740938D01*
X122198000Y-85126000D01*
X122046000Y-84974000D01*
X120744000Y-84974000D01*
X120436000Y-84974000D01*
X119134000Y-84974000D01*
X118982000Y-85126000D01*
X113800000Y-85126000D01*
X113800000Y-82525800D01*
X114156820Y-82525800D01*
X114156820Y-83840609D01*
X114249383Y-84064075D01*
X114420416Y-84235108D01*
X114643882Y-84327670D01*
X115258920Y-84327670D01*
X115410920Y-84175670D01*
X115410920Y-82373800D01*
X115718920Y-82373800D01*
X115718920Y-84175670D01*
X115870920Y-84327670D01*
X116485958Y-84327670D01*
X116709424Y-84235108D01*
X116880457Y-84064075D01*
X116948807Y-83899062D01*
X118982000Y-83899062D01*
X118982000Y-84514000D01*
X119134000Y-84666000D01*
X120436000Y-84666000D01*
X120436000Y-83564000D01*
X120744000Y-83564000D01*
X120744000Y-84666000D01*
X122046000Y-84666000D01*
X122198000Y-84514000D01*
X122198000Y-83899062D01*
X122105438Y-83675596D01*
X121934405Y-83504563D01*
X121710939Y-83412000D01*
X120896000Y-83412000D01*
X120744000Y-83564000D01*
X120436000Y-83564000D01*
X120284000Y-83412000D01*
X119469061Y-83412000D01*
X119245595Y-83504563D01*
X119074562Y-83675596D01*
X118982000Y-83899062D01*
X116948807Y-83899062D01*
X116973020Y-83840609D01*
X116973020Y-82525800D01*
X116821020Y-82373800D01*
X115718920Y-82373800D01*
X115410920Y-82373800D01*
X114308820Y-82373800D01*
X114156820Y-82525800D01*
X113800000Y-82525800D01*
X113800000Y-80598991D01*
X114156820Y-80598991D01*
X114156820Y-81913800D01*
X114308820Y-82065800D01*
X115410920Y-82065800D01*
X115410920Y-80263930D01*
X115718920Y-80263930D01*
X115718920Y-82065800D01*
X116821020Y-82065800D01*
X116973020Y-81913800D01*
X116973020Y-81536000D01*
X118670500Y-81536000D01*
X118670500Y-82874938D01*
X118763062Y-83098404D01*
X118934095Y-83269437D01*
X119157561Y-83362000D01*
X119798000Y-83362000D01*
X119950000Y-83210000D01*
X119950000Y-81384000D01*
X120258000Y-81384000D01*
X120258000Y-83210000D01*
X120410000Y-83362000D01*
X121050439Y-83362000D01*
X121273905Y-83269437D01*
X121444938Y-83098404D01*
X121537500Y-82874938D01*
X121537500Y-81536000D01*
X121385500Y-81384000D01*
X120258000Y-81384000D01*
X119950000Y-81384000D01*
X118822500Y-81384000D01*
X118670500Y-81536000D01*
X116973020Y-81536000D01*
X116973020Y-80598991D01*
X116880457Y-80375525D01*
X116709424Y-80204492D01*
X116485958Y-80111930D01*
X115870920Y-80111930D01*
X115718920Y-80263930D01*
X115410920Y-80263930D01*
X115258920Y-80111930D01*
X114643882Y-80111930D01*
X114420416Y-80204492D01*
X114249383Y-80375525D01*
X114156820Y-80598991D01*
X113800000Y-80598991D01*
X113800000Y-80327902D01*
X114502576Y-79625326D01*
X114606149Y-79696094D01*
X114764820Y-79728226D01*
X116365020Y-79728226D01*
X116513251Y-79700334D01*
X116649392Y-79612730D01*
X116668296Y-79585062D01*
X118670500Y-79585062D01*
X118670500Y-80924000D01*
X118822500Y-81076000D01*
X119950000Y-81076000D01*
X119950000Y-79250000D01*
X120258000Y-79250000D01*
X120258000Y-81076000D01*
X121385500Y-81076000D01*
X121537500Y-80924000D01*
X121537500Y-79585062D01*
X121444938Y-79361596D01*
X121273905Y-79190563D01*
X121050439Y-79098000D01*
X120410000Y-79098000D01*
X120258000Y-79250000D01*
X119950000Y-79250000D01*
X119798000Y-79098000D01*
X119157561Y-79098000D01*
X118934095Y-79190563D01*
X118763062Y-79361596D01*
X118670500Y-79585062D01*
X116668296Y-79585062D01*
X116740724Y-79479061D01*
X116772856Y-79320390D01*
X116772856Y-78411020D01*
X119449475Y-78411020D01*
X119449480Y-78411021D01*
X119637963Y-78373529D01*
X119675455Y-78366071D01*
X119720705Y-78335836D01*
X125438000Y-78335836D01*
X125586231Y-78307944D01*
X125722372Y-78220340D01*
X125813704Y-78086671D01*
X125845836Y-77928000D01*
X125845836Y-71832000D01*
X125817944Y-71683769D01*
X125730340Y-71547628D01*
X125596671Y-71456296D01*
X125438000Y-71424164D01*
X119342000Y-71424164D01*
X119193769Y-71452056D01*
X119057628Y-71539660D01*
X118966296Y-71673329D01*
X118934164Y-71832000D01*
X118934164Y-77230020D01*
X116772856Y-77230020D01*
X116772856Y-76320650D01*
X116744964Y-76172419D01*
X116657360Y-76036278D01*
X116523691Y-75944946D01*
X116365020Y-75912814D01*
X114764820Y-75912814D01*
X114616589Y-75940706D01*
X114480448Y-76028310D01*
X114389116Y-76161979D01*
X114356984Y-76320650D01*
X114356984Y-78285994D01*
X112903769Y-79739209D01*
X112789963Y-79909531D01*
X112750000Y-80110440D01*
X110275000Y-80110440D01*
X110275000Y-73076275D01*
X111399671Y-73076275D01*
X111688319Y-73774857D01*
X112222331Y-74309802D01*
X112920409Y-74599669D01*
X113676275Y-74600329D01*
X114374857Y-74311681D01*
X114909802Y-73777669D01*
X115199669Y-73079591D01*
X115200329Y-72323725D01*
X114911681Y-71625143D01*
X114377669Y-71090198D01*
X113679591Y-70800331D01*
X112923725Y-70799671D01*
X112225143Y-71088319D01*
X111690198Y-71622331D01*
X111400331Y-72320409D01*
X111399671Y-73076275D01*
X110275000Y-73076275D01*
X110275000Y-70087160D01*
X128361509Y-70087160D01*
X128246839Y-70164841D01*
G36*
X144861942Y-72208431D02*
X144632586Y-72551686D01*
X144628580Y-72571826D01*
X144427402Y-72164000D01*
X143995654Y-71785459D01*
X143641049Y-71638589D01*
X143414000Y-71749417D01*
X143414000Y-72906000D01*
X143434000Y-72906000D01*
X143434000Y-73214000D01*
X143414000Y-73214000D01*
X143414000Y-73234000D01*
X143106000Y-73234000D01*
X143106000Y-73214000D01*
X143086000Y-73214000D01*
X143086000Y-72906000D01*
X143106000Y-72906000D01*
X143106000Y-71749417D01*
X142878951Y-71638589D01*
X142524346Y-71785459D01*
X142092598Y-72164000D01*
X141891420Y-72571826D01*
X141887414Y-72551686D01*
X141613500Y-72141745D01*
X141203559Y-71867831D01*
X140720000Y-71771645D01*
X140236441Y-71867831D01*
X139826500Y-72141745D01*
X139552586Y-72551686D01*
X139456400Y-73035245D01*
X139456400Y-73084755D01*
X139552586Y-73568314D01*
X139792175Y-73926884D01*
X139361714Y-73496423D01*
X139443600Y-73084755D01*
X139443600Y-73035245D01*
X139347414Y-72551686D01*
X139073500Y-72141745D01*
X138663559Y-71867831D01*
X138180000Y-71771645D01*
X137696441Y-71867831D01*
X137286500Y-72141745D01*
X137012586Y-72551686D01*
X136916400Y-73035245D01*
X136916400Y-73084755D01*
X137012586Y-73568314D01*
X137286500Y-73978255D01*
X137696441Y-74252169D01*
X138087723Y-74330000D01*
X137696441Y-74407831D01*
X137425000Y-74589202D01*
X137425000Y-74400000D01*
X137406566Y-74307326D01*
X137390987Y-74214104D01*
X137386638Y-74207141D01*
X137385037Y-74199091D01*
X137332537Y-74120519D01*
X137282473Y-74040362D01*
X136812860Y-73540933D01*
X136903600Y-73084755D01*
X136903600Y-73035245D01*
X136807414Y-72551686D01*
X136533500Y-72141745D01*
X136123559Y-71867831D01*
X135640000Y-71771645D01*
X135156441Y-71867831D01*
X134746500Y-72141745D01*
X134472586Y-72551686D01*
X134376400Y-73035245D01*
X134376400Y-73084755D01*
X134472586Y-73568314D01*
X134746500Y-73978255D01*
X135156441Y-74252169D01*
X135547723Y-74330000D01*
X135156441Y-74407831D01*
X134746500Y-74681745D01*
X134472586Y-75091686D01*
X134376400Y-75575245D01*
X134376400Y-75624755D01*
X134472586Y-76108314D01*
X134746500Y-76518255D01*
X135115000Y-76764479D01*
X135115000Y-77700000D01*
X135118978Y-77720000D01*
X135115000Y-77740000D01*
X135115000Y-77780000D01*
X135154963Y-77980909D01*
X135268769Y-78151231D01*
X136838769Y-79721231D01*
X137009091Y-79835037D01*
X137210000Y-79875000D01*
X139582538Y-79875000D01*
X139740000Y-80032462D01*
X139740000Y-80640825D01*
X139663959Y-80691634D01*
X139630000Y-80742457D01*
X139596041Y-80691634D01*
X139320281Y-80507377D01*
X138995000Y-80442675D01*
X138669719Y-80507377D01*
X138393959Y-80691634D01*
X138360000Y-80742457D01*
X138326041Y-80691634D01*
X138050281Y-80507377D01*
X137725000Y-80442675D01*
X137399719Y-80507377D01*
X137123959Y-80691634D01*
X137090000Y-80742457D01*
X137056041Y-80691634D01*
X136780281Y-80507377D01*
X136455000Y-80442675D01*
X136129719Y-80507377D01*
X135853959Y-80691634D01*
X135820000Y-80742457D01*
X135786041Y-80691634D01*
X135710000Y-80640825D01*
X135710000Y-80005000D01*
X135670037Y-79804091D01*
X135556231Y-79633769D01*
X134931231Y-79008769D01*
X134760909Y-78894963D01*
X134560000Y-78855000D01*
X132210000Y-78855000D01*
X132009091Y-78894963D01*
X131838769Y-79008769D01*
X125997836Y-84849702D01*
X125997836Y-84616664D01*
X128192250Y-82422250D01*
X128361550Y-82168876D01*
X128387672Y-82037550D01*
X128421000Y-81870000D01*
X128421000Y-72168860D01*
X129001920Y-71580492D01*
X144364181Y-71556601D01*
X144861942Y-72208431D01*
X144861942Y-72208431D01*
G37*
X144861942Y-72208431D02*
X144632586Y-72551686D01*
X144628580Y-72571826D01*
X144427402Y-72164000D01*
X143995654Y-71785459D01*
X143641049Y-71638589D01*
X143414000Y-71749417D01*
X143414000Y-72906000D01*
X143434000Y-72906000D01*
X143434000Y-73214000D01*
X143414000Y-73214000D01*
X143414000Y-73234000D01*
X143106000Y-73234000D01*
X143106000Y-73214000D01*
X143086000Y-73214000D01*
X143086000Y-72906000D01*
X143106000Y-72906000D01*
X143106000Y-71749417D01*
X142878951Y-71638589D01*
X142524346Y-71785459D01*
X142092598Y-72164000D01*
X141891420Y-72571826D01*
X141887414Y-72551686D01*
X141613500Y-72141745D01*
X141203559Y-71867831D01*
X140720000Y-71771645D01*
X140236441Y-71867831D01*
X139826500Y-72141745D01*
X139552586Y-72551686D01*
X139456400Y-73035245D01*
X139456400Y-73084755D01*
X139552586Y-73568314D01*
X139792175Y-73926884D01*
X139361714Y-73496423D01*
X139443600Y-73084755D01*
X139443600Y-73035245D01*
X139347414Y-72551686D01*
X139073500Y-72141745D01*
X138663559Y-71867831D01*
X138180000Y-71771645D01*
X137696441Y-71867831D01*
X137286500Y-72141745D01*
X137012586Y-72551686D01*
X136916400Y-73035245D01*
X136916400Y-73084755D01*
X137012586Y-73568314D01*
X137286500Y-73978255D01*
X137696441Y-74252169D01*
X138087723Y-74330000D01*
X137696441Y-74407831D01*
X137425000Y-74589202D01*
X137425000Y-74400000D01*
X137406566Y-74307326D01*
X137390987Y-74214104D01*
X137386638Y-74207141D01*
X137385037Y-74199091D01*
X137332537Y-74120519D01*
X137282473Y-74040362D01*
X136812860Y-73540933D01*
X136903600Y-73084755D01*
X136903600Y-73035245D01*
X136807414Y-72551686D01*
X136533500Y-72141745D01*
X136123559Y-71867831D01*
X135640000Y-71771645D01*
X135156441Y-71867831D01*
X134746500Y-72141745D01*
X134472586Y-72551686D01*
X134376400Y-73035245D01*
X134376400Y-73084755D01*
X134472586Y-73568314D01*
X134746500Y-73978255D01*
X135156441Y-74252169D01*
X135547723Y-74330000D01*
X135156441Y-74407831D01*
X134746500Y-74681745D01*
X134472586Y-75091686D01*
X134376400Y-75575245D01*
X134376400Y-75624755D01*
X134472586Y-76108314D01*
X134746500Y-76518255D01*
X135115000Y-76764479D01*
X135115000Y-77700000D01*
X135118978Y-77720000D01*
X135115000Y-77740000D01*
X135115000Y-77780000D01*
X135154963Y-77980909D01*
X135268769Y-78151231D01*
X136838769Y-79721231D01*
X137009091Y-79835037D01*
X137210000Y-79875000D01*
X139582538Y-79875000D01*
X139740000Y-80032462D01*
X139740000Y-80640825D01*
X139663959Y-80691634D01*
X139630000Y-80742457D01*
X139596041Y-80691634D01*
X139320281Y-80507377D01*
X138995000Y-80442675D01*
X138669719Y-80507377D01*
X138393959Y-80691634D01*
X138360000Y-80742457D01*
X138326041Y-80691634D01*
X138050281Y-80507377D01*
X137725000Y-80442675D01*
X137399719Y-80507377D01*
X137123959Y-80691634D01*
X137090000Y-80742457D01*
X137056041Y-80691634D01*
X136780281Y-80507377D01*
X136455000Y-80442675D01*
X136129719Y-80507377D01*
X135853959Y-80691634D01*
X135820000Y-80742457D01*
X135786041Y-80691634D01*
X135710000Y-80640825D01*
X135710000Y-80005000D01*
X135670037Y-79804091D01*
X135556231Y-79633769D01*
X134931231Y-79008769D01*
X134760909Y-78894963D01*
X134560000Y-78855000D01*
X132210000Y-78855000D01*
X132009091Y-78894963D01*
X131838769Y-79008769D01*
X125997836Y-84849702D01*
X125997836Y-84616664D01*
X128192250Y-82422250D01*
X128361550Y-82168876D01*
X128387672Y-82037550D01*
X128421000Y-81870000D01*
X128421000Y-72168860D01*
X129001920Y-71580492D01*
X144364181Y-71556601D01*
X144861942Y-72208431D01*
M02*
