G04 #@! TF.FileFunction,Legend,Top*
%FSLAX46Y46*%
G04 Gerber Fmt 4.6, Leading zero omitted, Abs format (unit mm)*
G04 Created by KiCad (PCBNEW 4.0.7) date Tue Jan 30 18:32:58 2018*
%MOMM*%
%LPD*%
G01*
G04 APERTURE LIST*
%ADD10C,0.100000*%
%ADD11C,0.150000*%
%ADD12C,0.300000*%
%ADD13C,0.500000*%
%ADD14C,0.010000*%
%ADD15C,0.120000*%
G04 APERTURE END LIST*
D10*
D11*
X111717619Y-85050000D02*
X111622381Y-85002381D01*
X111479524Y-85002381D01*
X111336666Y-85050000D01*
X111241428Y-85145238D01*
X111193809Y-85240476D01*
X111146190Y-85430952D01*
X111146190Y-85573810D01*
X111193809Y-85764286D01*
X111241428Y-85859524D01*
X111336666Y-85954762D01*
X111479524Y-86002381D01*
X111574762Y-86002381D01*
X111717619Y-85954762D01*
X111765238Y-85907143D01*
X111765238Y-85573810D01*
X111574762Y-85573810D01*
X112050952Y-85002381D02*
X112384285Y-86002381D01*
X112717619Y-85002381D01*
X114336667Y-86002381D02*
X113765238Y-86002381D01*
X114050952Y-86002381D02*
X114050952Y-85002381D01*
X113955714Y-85145238D01*
X113860476Y-85240476D01*
X113765238Y-85288095D01*
X115479524Y-84954762D02*
X114622381Y-86240476D01*
X115765238Y-85097619D02*
X115812857Y-85050000D01*
X115908095Y-85002381D01*
X116146191Y-85002381D01*
X116241429Y-85050000D01*
X116289048Y-85097619D01*
X116336667Y-85192857D01*
X116336667Y-85288095D01*
X116289048Y-85430952D01*
X115717619Y-86002381D01*
X116336667Y-86002381D01*
X116955714Y-85002381D02*
X117050953Y-85002381D01*
X117146191Y-85050000D01*
X117193810Y-85097619D01*
X117241429Y-85192857D01*
X117289048Y-85383333D01*
X117289048Y-85621429D01*
X117241429Y-85811905D01*
X117193810Y-85907143D01*
X117146191Y-85954762D01*
X117050953Y-86002381D01*
X116955714Y-86002381D01*
X116860476Y-85954762D01*
X116812857Y-85907143D01*
X116765238Y-85811905D01*
X116717619Y-85621429D01*
X116717619Y-85383333D01*
X116765238Y-85192857D01*
X116812857Y-85097619D01*
X116860476Y-85050000D01*
X116955714Y-85002381D01*
X118241429Y-86002381D02*
X117670000Y-86002381D01*
X117955714Y-86002381D02*
X117955714Y-85002381D01*
X117860476Y-85145238D01*
X117765238Y-85240476D01*
X117670000Y-85288095D01*
X118812857Y-85430952D02*
X118717619Y-85383333D01*
X118670000Y-85335714D01*
X118622381Y-85240476D01*
X118622381Y-85192857D01*
X118670000Y-85097619D01*
X118717619Y-85050000D01*
X118812857Y-85002381D01*
X119003334Y-85002381D01*
X119098572Y-85050000D01*
X119146191Y-85097619D01*
X119193810Y-85192857D01*
X119193810Y-85240476D01*
X119146191Y-85335714D01*
X119098572Y-85383333D01*
X119003334Y-85430952D01*
X118812857Y-85430952D01*
X118717619Y-85478571D01*
X118670000Y-85526190D01*
X118622381Y-85621429D01*
X118622381Y-85811905D01*
X118670000Y-85907143D01*
X118717619Y-85954762D01*
X118812857Y-86002381D01*
X119003334Y-86002381D01*
X119098572Y-85954762D01*
X119146191Y-85907143D01*
X119193810Y-85811905D01*
X119193810Y-85621429D01*
X119146191Y-85526190D01*
X119098572Y-85478571D01*
X119003334Y-85430952D01*
D12*
X112173571Y-105082857D02*
X110673571Y-105082857D01*
X112173571Y-104225714D02*
X111316429Y-104868571D01*
X110673571Y-104225714D02*
X111530714Y-105082857D01*
X111745000Y-103654286D02*
X111745000Y-102940000D01*
X112173571Y-103797143D02*
X110673571Y-103297143D01*
X112173571Y-102797143D01*
X112173571Y-100297143D02*
X111459286Y-100797143D01*
X112173571Y-101154286D02*
X110673571Y-101154286D01*
X110673571Y-100582858D01*
X110745000Y-100440000D01*
X110816429Y-100368572D01*
X110959286Y-100297143D01*
X111173571Y-100297143D01*
X111316429Y-100368572D01*
X111387857Y-100440000D01*
X111459286Y-100582858D01*
X111459286Y-101154286D01*
X111745000Y-99725715D02*
X111745000Y-99011429D01*
X112173571Y-99868572D02*
X110673571Y-99368572D01*
X112173571Y-98868572D01*
X112173571Y-98368572D02*
X110673571Y-98368572D01*
X110673571Y-98011429D01*
X110745000Y-97797144D01*
X110887857Y-97654286D01*
X111030714Y-97582858D01*
X111316429Y-97511429D01*
X111530714Y-97511429D01*
X111816429Y-97582858D01*
X111959286Y-97654286D01*
X112102143Y-97797144D01*
X112173571Y-98011429D01*
X112173571Y-98368572D01*
X112173571Y-96868572D02*
X110673571Y-96868572D01*
X110673571Y-95868572D02*
X110673571Y-95582858D01*
X110745000Y-95440000D01*
X110887857Y-95297143D01*
X111173571Y-95225715D01*
X111673571Y-95225715D01*
X111959286Y-95297143D01*
X112102143Y-95440000D01*
X112173571Y-95582858D01*
X112173571Y-95868572D01*
X112102143Y-96011429D01*
X111959286Y-96154286D01*
X111673571Y-96225715D01*
X111173571Y-96225715D01*
X110887857Y-96154286D01*
X110745000Y-96011429D01*
X110673571Y-95868572D01*
X113723571Y-104011427D02*
X114723571Y-103654284D01*
X113723571Y-103297142D01*
X114652143Y-102154285D02*
X114723571Y-102297142D01*
X114723571Y-102582856D01*
X114652143Y-102725713D01*
X114509286Y-102797142D01*
X113937857Y-102797142D01*
X113795000Y-102725713D01*
X113723571Y-102582856D01*
X113723571Y-102297142D01*
X113795000Y-102154285D01*
X113937857Y-102082856D01*
X114080714Y-102082856D01*
X114223571Y-102797142D01*
X114723571Y-101439999D02*
X113723571Y-101439999D01*
X114009286Y-101439999D02*
X113866429Y-101368571D01*
X113795000Y-101297142D01*
X113723571Y-101154285D01*
X113723571Y-101011428D01*
X114723571Y-98582857D02*
X114723571Y-99440000D01*
X114723571Y-99011428D02*
X113223571Y-99011428D01*
X113437857Y-99154285D01*
X113580714Y-99297143D01*
X113652143Y-99440000D01*
X114580714Y-97940000D02*
X114652143Y-97868572D01*
X114723571Y-97940000D01*
X114652143Y-98011429D01*
X114580714Y-97940000D01*
X114723571Y-97940000D01*
X113223571Y-96940000D02*
X113223571Y-96797143D01*
X113295000Y-96654286D01*
X113366429Y-96582857D01*
X113509286Y-96511428D01*
X113795000Y-96440000D01*
X114152143Y-96440000D01*
X114437857Y-96511428D01*
X114580714Y-96582857D01*
X114652143Y-96654286D01*
X114723571Y-96797143D01*
X114723571Y-96940000D01*
X114652143Y-97082857D01*
X114580714Y-97154286D01*
X114437857Y-97225714D01*
X114152143Y-97297143D01*
X113795000Y-97297143D01*
X113509286Y-97225714D01*
X113366429Y-97154286D01*
X113295000Y-97082857D01*
X113223571Y-96940000D01*
X139555715Y-85952857D02*
X140055715Y-85952857D01*
X140270001Y-86738571D02*
X139555715Y-86738571D01*
X139555715Y-85238571D01*
X140270001Y-85238571D01*
X140841429Y-86667143D02*
X141055715Y-86738571D01*
X141412858Y-86738571D01*
X141555715Y-86667143D01*
X141627144Y-86595714D01*
X141698572Y-86452857D01*
X141698572Y-86310000D01*
X141627144Y-86167143D01*
X141555715Y-86095714D01*
X141412858Y-86024286D01*
X141127144Y-85952857D01*
X140984286Y-85881429D01*
X140912858Y-85810000D01*
X140841429Y-85667143D01*
X140841429Y-85524286D01*
X140912858Y-85381429D01*
X140984286Y-85310000D01*
X141127144Y-85238571D01*
X141484286Y-85238571D01*
X141698572Y-85310000D01*
X142341429Y-86738571D02*
X142341429Y-85238571D01*
X142912857Y-85238571D01*
X143055715Y-85310000D01*
X143127143Y-85381429D01*
X143198572Y-85524286D01*
X143198572Y-85738571D01*
X143127143Y-85881429D01*
X143055715Y-85952857D01*
X142912857Y-86024286D01*
X142341429Y-86024286D01*
X143698572Y-85238571D02*
X144627143Y-85238571D01*
X144127143Y-85810000D01*
X144341429Y-85810000D01*
X144484286Y-85881429D01*
X144555715Y-85952857D01*
X144627143Y-86095714D01*
X144627143Y-86452857D01*
X144555715Y-86595714D01*
X144484286Y-86667143D01*
X144341429Y-86738571D01*
X143912857Y-86738571D01*
X143770000Y-86667143D01*
X143698572Y-86595714D01*
X145198571Y-85381429D02*
X145270000Y-85310000D01*
X145412857Y-85238571D01*
X145770000Y-85238571D01*
X145912857Y-85310000D01*
X145984286Y-85381429D01*
X146055714Y-85524286D01*
X146055714Y-85667143D01*
X145984286Y-85881429D01*
X145127143Y-86738571D01*
X146055714Y-86738571D01*
D11*
X131090476Y-77502381D02*
X131757143Y-78502381D01*
X131757143Y-77502381D02*
X131090476Y-78502381D01*
X132138095Y-78502381D02*
X132138095Y-77502381D01*
X132376190Y-77502381D01*
X132519048Y-77550000D01*
X132614286Y-77645238D01*
X132661905Y-77740476D01*
X132709524Y-77930952D01*
X132709524Y-78073810D01*
X132661905Y-78264286D01*
X132614286Y-78359524D01*
X132519048Y-78454762D01*
X132376190Y-78502381D01*
X132138095Y-78502381D01*
X133709524Y-78407143D02*
X133661905Y-78454762D01*
X133519048Y-78502381D01*
X133423810Y-78502381D01*
X133280952Y-78454762D01*
X133185714Y-78359524D01*
X133138095Y-78264286D01*
X133090476Y-78073810D01*
X133090476Y-77930952D01*
X133138095Y-77740476D01*
X133185714Y-77645238D01*
X133280952Y-77550000D01*
X133423810Y-77502381D01*
X133519048Y-77502381D01*
X133661905Y-77550000D01*
X133709524Y-77597619D01*
X134090476Y-78454762D02*
X134233333Y-78502381D01*
X134471429Y-78502381D01*
X134566667Y-78454762D01*
X134614286Y-78407143D01*
X134661905Y-78311905D01*
X134661905Y-78216667D01*
X134614286Y-78121429D01*
X134566667Y-78073810D01*
X134471429Y-78026190D01*
X134280952Y-77978571D01*
X134185714Y-77930952D01*
X134138095Y-77883333D01*
X134090476Y-77788095D01*
X134090476Y-77692857D01*
X134138095Y-77597619D01*
X134185714Y-77550000D01*
X134280952Y-77502381D01*
X134519048Y-77502381D01*
X134661905Y-77550000D01*
X135409524Y-77502381D02*
X136076191Y-78502381D01*
X136076191Y-77502381D02*
X135409524Y-78502381D01*
X137028572Y-78502381D02*
X136695238Y-78026190D01*
X136457143Y-78502381D02*
X136457143Y-77502381D01*
X136838096Y-77502381D01*
X136933334Y-77550000D01*
X136980953Y-77597619D01*
X137028572Y-77692857D01*
X137028572Y-77835714D01*
X136980953Y-77930952D01*
X136933334Y-77978571D01*
X136838096Y-78026190D01*
X136457143Y-78026190D01*
X137409524Y-78454762D02*
X137552381Y-78502381D01*
X137790477Y-78502381D01*
X137885715Y-78454762D01*
X137933334Y-78407143D01*
X137980953Y-78311905D01*
X137980953Y-78216667D01*
X137933334Y-78121429D01*
X137885715Y-78073810D01*
X137790477Y-78026190D01*
X137600000Y-77978571D01*
X137504762Y-77930952D01*
X137457143Y-77883333D01*
X137409524Y-77788095D01*
X137409524Y-77692857D01*
X137457143Y-77597619D01*
X137504762Y-77550000D01*
X137600000Y-77502381D01*
X137838096Y-77502381D01*
X137980953Y-77550000D01*
X138266667Y-77502381D02*
X138838096Y-77502381D01*
X138552381Y-78502381D02*
X138552381Y-77502381D01*
X139514286Y-78454762D02*
X139657143Y-78502381D01*
X139895239Y-78502381D01*
X139990477Y-78454762D01*
X140038096Y-78407143D01*
X140085715Y-78311905D01*
X140085715Y-78216667D01*
X140038096Y-78121429D01*
X139990477Y-78073810D01*
X139895239Y-78026190D01*
X139704762Y-77978571D01*
X139609524Y-77930952D01*
X139561905Y-77883333D01*
X139514286Y-77788095D01*
X139514286Y-77692857D01*
X139561905Y-77597619D01*
X139609524Y-77550000D01*
X139704762Y-77502381D01*
X139942858Y-77502381D01*
X140085715Y-77550000D01*
X141085715Y-78407143D02*
X141038096Y-78454762D01*
X140895239Y-78502381D01*
X140800001Y-78502381D01*
X140657143Y-78454762D01*
X140561905Y-78359524D01*
X140514286Y-78264286D01*
X140466667Y-78073810D01*
X140466667Y-77930952D01*
X140514286Y-77740476D01*
X140561905Y-77645238D01*
X140657143Y-77550000D01*
X140800001Y-77502381D01*
X140895239Y-77502381D01*
X141038096Y-77550000D01*
X141085715Y-77597619D01*
X141514286Y-78502381D02*
X141514286Y-77502381D01*
X142085715Y-78502381D02*
X141657143Y-77930952D01*
X142085715Y-77502381D02*
X141514286Y-78073810D01*
X142978572Y-78502381D02*
X142978572Y-77502381D01*
X143311906Y-78216667D01*
X143645239Y-77502381D01*
X143645239Y-78502381D01*
X144121429Y-78502381D02*
X144121429Y-77502381D01*
X144550000Y-78454762D02*
X144692857Y-78502381D01*
X144930953Y-78502381D01*
X145026191Y-78454762D01*
X145073810Y-78407143D01*
X145121429Y-78311905D01*
X145121429Y-78216667D01*
X145073810Y-78121429D01*
X145026191Y-78073810D01*
X144930953Y-78026190D01*
X144740476Y-77978571D01*
X144645238Y-77930952D01*
X144597619Y-77883333D01*
X144550000Y-77788095D01*
X144550000Y-77692857D01*
X144597619Y-77597619D01*
X144645238Y-77550000D01*
X144740476Y-77502381D01*
X144978572Y-77502381D01*
X145121429Y-77550000D01*
X145740476Y-77502381D02*
X145930953Y-77502381D01*
X146026191Y-77550000D01*
X146121429Y-77645238D01*
X146169048Y-77835714D01*
X146169048Y-78169048D01*
X146121429Y-78359524D01*
X146026191Y-78454762D01*
X145930953Y-78502381D01*
X145740476Y-78502381D01*
X145645238Y-78454762D01*
X145550000Y-78359524D01*
X145502381Y-78169048D01*
X145502381Y-77835714D01*
X145550000Y-77645238D01*
X145645238Y-77550000D01*
X145740476Y-77502381D01*
X131090476Y-70152381D02*
X131757143Y-71152381D01*
X131757143Y-70152381D02*
X131090476Y-71152381D01*
X132709524Y-71057143D02*
X132661905Y-71104762D01*
X132519048Y-71152381D01*
X132423810Y-71152381D01*
X132280952Y-71104762D01*
X132185714Y-71009524D01*
X132138095Y-70914286D01*
X132090476Y-70723810D01*
X132090476Y-70580952D01*
X132138095Y-70390476D01*
X132185714Y-70295238D01*
X132280952Y-70200000D01*
X132423810Y-70152381D01*
X132519048Y-70152381D01*
X132661905Y-70200000D01*
X132709524Y-70247619D01*
X133090476Y-71104762D02*
X133233333Y-71152381D01*
X133471429Y-71152381D01*
X133566667Y-71104762D01*
X133614286Y-71057143D01*
X133661905Y-70961905D01*
X133661905Y-70866667D01*
X133614286Y-70771429D01*
X133566667Y-70723810D01*
X133471429Y-70676190D01*
X133280952Y-70628571D01*
X133185714Y-70580952D01*
X133138095Y-70533333D01*
X133090476Y-70438095D01*
X133090476Y-70342857D01*
X133138095Y-70247619D01*
X133185714Y-70200000D01*
X133280952Y-70152381D01*
X133519048Y-70152381D01*
X133661905Y-70200000D01*
X134461905Y-71152381D02*
X134461905Y-70152381D01*
X134700000Y-70152381D01*
X134842858Y-70200000D01*
X134938096Y-70295238D01*
X134985715Y-70390476D01*
X135033334Y-70580952D01*
X135033334Y-70723810D01*
X134985715Y-70914286D01*
X134938096Y-71009524D01*
X134842858Y-71104762D01*
X134700000Y-71152381D01*
X134461905Y-71152381D01*
X136033334Y-71152381D02*
X135700000Y-70676190D01*
X135461905Y-71152381D02*
X135461905Y-70152381D01*
X135842858Y-70152381D01*
X135938096Y-70200000D01*
X135985715Y-70247619D01*
X136033334Y-70342857D01*
X136033334Y-70485714D01*
X135985715Y-70580952D01*
X135938096Y-70628571D01*
X135842858Y-70676190D01*
X135461905Y-70676190D01*
X136461905Y-70628571D02*
X136795239Y-70628571D01*
X136938096Y-71152381D02*
X136461905Y-71152381D01*
X136461905Y-70152381D01*
X136938096Y-70152381D01*
X138033334Y-71247619D02*
X137938096Y-71200000D01*
X137842858Y-71104762D01*
X137700001Y-70961905D01*
X137604762Y-70914286D01*
X137509524Y-70914286D01*
X137557143Y-71152381D02*
X137461905Y-71104762D01*
X137366667Y-71009524D01*
X137319048Y-70819048D01*
X137319048Y-70485714D01*
X137366667Y-70295238D01*
X137461905Y-70200000D01*
X137557143Y-70152381D01*
X137747620Y-70152381D01*
X137842858Y-70200000D01*
X137938096Y-70295238D01*
X137985715Y-70485714D01*
X137985715Y-70819048D01*
X137938096Y-71009524D01*
X137842858Y-71104762D01*
X137747620Y-71152381D01*
X137557143Y-71152381D01*
X138728572Y-71152381D02*
X138728572Y-70152381D01*
X139061906Y-70866667D01*
X139395239Y-70152381D01*
X139395239Y-71152381D01*
X140061905Y-70152381D02*
X140252382Y-70152381D01*
X140347620Y-70200000D01*
X140442858Y-70295238D01*
X140490477Y-70485714D01*
X140490477Y-70819048D01*
X140442858Y-71009524D01*
X140347620Y-71104762D01*
X140252382Y-71152381D01*
X140061905Y-71152381D01*
X139966667Y-71104762D01*
X139871429Y-71009524D01*
X139823810Y-70819048D01*
X139823810Y-70485714D01*
X139871429Y-70295238D01*
X139966667Y-70200000D01*
X140061905Y-70152381D01*
X140871429Y-71104762D02*
X141014286Y-71152381D01*
X141252382Y-71152381D01*
X141347620Y-71104762D01*
X141395239Y-71057143D01*
X141442858Y-70961905D01*
X141442858Y-70866667D01*
X141395239Y-70771429D01*
X141347620Y-70723810D01*
X141252382Y-70676190D01*
X141061905Y-70628571D01*
X140966667Y-70580952D01*
X140919048Y-70533333D01*
X140871429Y-70438095D01*
X140871429Y-70342857D01*
X140919048Y-70247619D01*
X140966667Y-70200000D01*
X141061905Y-70152381D01*
X141300001Y-70152381D01*
X141442858Y-70200000D01*
X141871429Y-71152381D02*
X141871429Y-70152381D01*
X143238096Y-70200000D02*
X143142858Y-70152381D01*
X143000001Y-70152381D01*
X142857143Y-70200000D01*
X142761905Y-70295238D01*
X142714286Y-70390476D01*
X142666667Y-70580952D01*
X142666667Y-70723810D01*
X142714286Y-70914286D01*
X142761905Y-71009524D01*
X142857143Y-71104762D01*
X143000001Y-71152381D01*
X143095239Y-71152381D01*
X143238096Y-71104762D01*
X143285715Y-71057143D01*
X143285715Y-70723810D01*
X143095239Y-70723810D01*
X143714286Y-71152381D02*
X143714286Y-70152381D01*
X144285715Y-71152381D01*
X144285715Y-70152381D01*
X144761905Y-71152381D02*
X144761905Y-70152381D01*
X145000000Y-70152381D01*
X145142858Y-70200000D01*
X145238096Y-70295238D01*
X145285715Y-70390476D01*
X145333334Y-70580952D01*
X145333334Y-70723810D01*
X145285715Y-70914286D01*
X145238096Y-71009524D01*
X145142858Y-71104762D01*
X145000000Y-71152381D01*
X144761905Y-71152381D01*
X146964286Y-78021429D02*
X147726191Y-78021429D01*
X147345239Y-78402381D02*
X147345239Y-77640476D01*
X148678572Y-77402381D02*
X148202381Y-77402381D01*
X148154762Y-77878571D01*
X148202381Y-77830952D01*
X148297619Y-77783333D01*
X148535715Y-77783333D01*
X148630953Y-77830952D01*
X148678572Y-77878571D01*
X148726191Y-77973810D01*
X148726191Y-78211905D01*
X148678572Y-78307143D01*
X148630953Y-78354762D01*
X148535715Y-78402381D01*
X148297619Y-78402381D01*
X148202381Y-78354762D01*
X148154762Y-78307143D01*
X149011905Y-77402381D02*
X149345238Y-78402381D01*
X149678572Y-77402381D01*
X145914286Y-70771429D02*
X146676191Y-70771429D01*
X146295239Y-71152381D02*
X146295239Y-70390476D01*
X147628572Y-70152381D02*
X147152381Y-70152381D01*
X147104762Y-70628571D01*
X147152381Y-70580952D01*
X147247619Y-70533333D01*
X147485715Y-70533333D01*
X147580953Y-70580952D01*
X147628572Y-70628571D01*
X147676191Y-70723810D01*
X147676191Y-70961905D01*
X147628572Y-71057143D01*
X147580953Y-71104762D01*
X147485715Y-71152381D01*
X147247619Y-71152381D01*
X147152381Y-71104762D01*
X147104762Y-71057143D01*
X147961905Y-70152381D02*
X148295238Y-71152381D01*
X148628572Y-70152381D01*
X109800000Y-113600000D02*
X109800000Y-69600000D01*
X153800000Y-113600000D02*
X109800000Y-113600000D01*
X153800000Y-69600000D02*
X153800000Y-113600000D01*
X109800000Y-69600000D02*
X153800000Y-69600000D01*
D13*
X152062981Y-81219000D02*
G75*
G03X152062981Y-81219000I-283981J0D01*
G01*
D11*
X151925000Y-100125000D02*
X151925000Y-82125000D01*
X157925000Y-82125000D02*
X132425000Y-82125000D01*
X157925000Y-100125000D02*
X132425000Y-100125000D01*
X132425000Y-100125000D02*
X132425000Y-82125000D01*
X157925000Y-100125000D02*
X157925000Y-82125000D01*
X123590000Y-83795000D02*
X121590000Y-83795000D01*
X121590000Y-85845000D02*
X123590000Y-85845000D01*
X114929920Y-82306160D02*
X116326920Y-82306160D01*
X114675920Y-82179160D02*
X116453920Y-82179160D01*
X114294920Y-82052160D02*
X116834920Y-82052160D01*
X116961920Y-81925160D02*
X114167920Y-81925160D01*
X114040920Y-81798160D02*
X117088920Y-81798160D01*
X117215920Y-81671160D02*
X113913920Y-81671160D01*
X113786920Y-81544160D02*
X117342920Y-81544160D01*
X112897920Y-82687160D02*
X112897920Y-78115160D01*
X112897920Y-78115160D02*
X113659920Y-77353160D01*
X113659920Y-77353160D02*
X117469920Y-77353160D01*
X117469920Y-77353160D02*
X118231920Y-78115160D01*
X118231920Y-78115160D02*
X118231920Y-82687160D01*
X118231920Y-82687160D02*
X112897920Y-82687160D01*
X115564920Y-77861160D02*
X115564920Y-78623160D01*
X115183920Y-78242160D02*
X115945920Y-78242160D01*
X117977920Y-80020160D02*
G75*
G03X117977920Y-80020160I-2413000J0D01*
G01*
X123787000Y-79706000D02*
X123787000Y-82881000D01*
X123787000Y-82881000D02*
X125565000Y-82881000D01*
X125565000Y-82881000D02*
X125565000Y-79706000D01*
X119215000Y-79706000D02*
X119215000Y-82881000D01*
X119215000Y-82881000D02*
X120993000Y-82881000D01*
X120993000Y-82881000D02*
X120993000Y-79706000D01*
X125819000Y-73610000D02*
X125819000Y-79706000D01*
X125819000Y-79706000D02*
X118961000Y-79706000D01*
X118961000Y-79706000D02*
X118961000Y-71832000D01*
X118961000Y-71705000D02*
X125819000Y-71705000D01*
X125819000Y-71832000D02*
X125819000Y-73610000D01*
D14*
G36*
X117116958Y-89894143D02*
X117206848Y-89898834D01*
X117275230Y-89908605D01*
X117328258Y-89925052D01*
X117372085Y-89949773D01*
X117412865Y-89984363D01*
X117433868Y-90005683D01*
X117477624Y-90060658D01*
X117507249Y-90122036D01*
X117524885Y-90197396D01*
X117532675Y-90294317D01*
X117533542Y-90358227D01*
X117526977Y-90485209D01*
X117506195Y-90585389D01*
X117468683Y-90663742D01*
X117411928Y-90725246D01*
X117333418Y-90774877D01*
X117319838Y-90781497D01*
X117281714Y-90798405D01*
X117246144Y-90810171D01*
X117205859Y-90817718D01*
X117153591Y-90821968D01*
X117082073Y-90823843D01*
X116984037Y-90824267D01*
X116736267Y-90824267D01*
X116736267Y-89892934D01*
X116999408Y-89892934D01*
X117116958Y-89894143D01*
X117116958Y-89894143D01*
G37*
X117116958Y-89894143D02*
X117206848Y-89898834D01*
X117275230Y-89908605D01*
X117328258Y-89925052D01*
X117372085Y-89949773D01*
X117412865Y-89984363D01*
X117433868Y-90005683D01*
X117477624Y-90060658D01*
X117507249Y-90122036D01*
X117524885Y-90197396D01*
X117532675Y-90294317D01*
X117533542Y-90358227D01*
X117526977Y-90485209D01*
X117506195Y-90585389D01*
X117468683Y-90663742D01*
X117411928Y-90725246D01*
X117333418Y-90774877D01*
X117319838Y-90781497D01*
X117281714Y-90798405D01*
X117246144Y-90810171D01*
X117205859Y-90817718D01*
X117153591Y-90821968D01*
X117082073Y-90823843D01*
X116984037Y-90824267D01*
X116736267Y-90824267D01*
X116736267Y-89892934D01*
X116999408Y-89892934D01*
X117116958Y-89894143D01*
G36*
X115284461Y-89667898D02*
X115286019Y-89672801D01*
X115298391Y-89725702D01*
X115312110Y-89792944D01*
X115325820Y-89866592D01*
X115338161Y-89938712D01*
X115347774Y-90001369D01*
X115353303Y-90046628D01*
X115353421Y-90066500D01*
X115333306Y-90074192D01*
X115291608Y-90078705D01*
X115270534Y-90079200D01*
X115222768Y-90076615D01*
X115200744Y-90066761D01*
X115196403Y-90049567D01*
X115200018Y-90021793D01*
X115209027Y-89968704D01*
X115222037Y-89898166D01*
X115236222Y-89825200D01*
X115253820Y-89741345D01*
X115267227Y-89688704D01*
X115277191Y-89664985D01*
X115284461Y-89667898D01*
X115284461Y-89667898D01*
G37*
X115284461Y-89667898D02*
X115286019Y-89672801D01*
X115298391Y-89725702D01*
X115312110Y-89792944D01*
X115325820Y-89866592D01*
X115338161Y-89938712D01*
X115347774Y-90001369D01*
X115353303Y-90046628D01*
X115353421Y-90066500D01*
X115333306Y-90074192D01*
X115291608Y-90078705D01*
X115270534Y-90079200D01*
X115222768Y-90076615D01*
X115200744Y-90066761D01*
X115196403Y-90049567D01*
X115200018Y-90021793D01*
X115209027Y-89968704D01*
X115222037Y-89898166D01*
X115236222Y-89825200D01*
X115253820Y-89741345D01*
X115267227Y-89688704D01*
X115277191Y-89664985D01*
X115284461Y-89667898D01*
G36*
X115276999Y-90201237D02*
X115388744Y-90206200D01*
X115418264Y-90350134D01*
X115431760Y-90417846D01*
X115442213Y-90473909D01*
X115447960Y-90509248D01*
X115448559Y-90515234D01*
X115438842Y-90525601D01*
X115406177Y-90532246D01*
X115346654Y-90535662D01*
X115280000Y-90536400D01*
X115196795Y-90535112D01*
X115143509Y-90530926D01*
X115116279Y-90523360D01*
X115110632Y-90515234D01*
X115113531Y-90489874D01*
X115121305Y-90440163D01*
X115132524Y-90375025D01*
X115137925Y-90345170D01*
X115165253Y-90196273D01*
X115276999Y-90201237D01*
X115276999Y-90201237D01*
G37*
X115276999Y-90201237D02*
X115388744Y-90206200D01*
X115418264Y-90350134D01*
X115431760Y-90417846D01*
X115442213Y-90473909D01*
X115447960Y-90509248D01*
X115448559Y-90515234D01*
X115438842Y-90525601D01*
X115406177Y-90532246D01*
X115346654Y-90535662D01*
X115280000Y-90536400D01*
X115196795Y-90535112D01*
X115143509Y-90530926D01*
X115116279Y-90523360D01*
X115110632Y-90515234D01*
X115113531Y-90489874D01*
X115121305Y-90440163D01*
X115132524Y-90375025D01*
X115137925Y-90345170D01*
X115165253Y-90196273D01*
X115276999Y-90201237D01*
G36*
X115507607Y-90828501D02*
X115520570Y-90899271D01*
X115532034Y-90958382D01*
X115540290Y-90997172D01*
X115542702Y-91006301D01*
X115537882Y-91014585D01*
X115514494Y-91020546D01*
X115468846Y-91024481D01*
X115397246Y-91026685D01*
X115295999Y-91027457D01*
X115279468Y-91027467D01*
X115188084Y-91027077D01*
X115109899Y-91025999D01*
X115050586Y-91024372D01*
X115015817Y-91022334D01*
X115009066Y-91020871D01*
X115012129Y-90999376D01*
X115020113Y-90954100D01*
X115031214Y-90894451D01*
X115043627Y-90829841D01*
X115055547Y-90769679D01*
X115065170Y-90723375D01*
X115070322Y-90701501D01*
X115077720Y-90688769D01*
X115094835Y-90680262D01*
X115127454Y-90675158D01*
X115181364Y-90672637D01*
X115262352Y-90671880D01*
X115279382Y-90671867D01*
X115479681Y-90671867D01*
X115507607Y-90828501D01*
X115507607Y-90828501D01*
G37*
X115507607Y-90828501D02*
X115520570Y-90899271D01*
X115532034Y-90958382D01*
X115540290Y-90997172D01*
X115542702Y-91006301D01*
X115537882Y-91014585D01*
X115514494Y-91020546D01*
X115468846Y-91024481D01*
X115397246Y-91026685D01*
X115295999Y-91027457D01*
X115279468Y-91027467D01*
X115188084Y-91027077D01*
X115109899Y-91025999D01*
X115050586Y-91024372D01*
X115015817Y-91022334D01*
X115009066Y-91020871D01*
X115012129Y-90999376D01*
X115020113Y-90954100D01*
X115031214Y-90894451D01*
X115043627Y-90829841D01*
X115055547Y-90769679D01*
X115065170Y-90723375D01*
X115070322Y-90701501D01*
X115077720Y-90688769D01*
X115094835Y-90680262D01*
X115127454Y-90675158D01*
X115181364Y-90672637D01*
X115262352Y-90671880D01*
X115279382Y-90671867D01*
X115479681Y-90671867D01*
X115507607Y-90828501D01*
G36*
X115380436Y-91146126D02*
X115457239Y-91146913D01*
X115509873Y-91148972D01*
X115543185Y-91152916D01*
X115562023Y-91159359D01*
X115571238Y-91168913D01*
X115575676Y-91182190D01*
X115576127Y-91184101D01*
X115584191Y-91221973D01*
X115595226Y-91277998D01*
X115607514Y-91342884D01*
X115619338Y-91407340D01*
X115628980Y-91462073D01*
X115634722Y-91497790D01*
X115635597Y-91505834D01*
X115619484Y-91509580D01*
X115574416Y-91512888D01*
X115505304Y-91515585D01*
X115417060Y-91517499D01*
X115314595Y-91518457D01*
X115274804Y-91518534D01*
X114914007Y-91518534D01*
X114948008Y-91332267D01*
X114982009Y-91146001D01*
X115274615Y-91146001D01*
X115380436Y-91146126D01*
X115380436Y-91146126D01*
G37*
X115380436Y-91146126D02*
X115457239Y-91146913D01*
X115509873Y-91148972D01*
X115543185Y-91152916D01*
X115562023Y-91159359D01*
X115571238Y-91168913D01*
X115575676Y-91182190D01*
X115576127Y-91184101D01*
X115584191Y-91221973D01*
X115595226Y-91277998D01*
X115607514Y-91342884D01*
X115619338Y-91407340D01*
X115628980Y-91462073D01*
X115634722Y-91497790D01*
X115635597Y-91505834D01*
X115619484Y-91509580D01*
X115574416Y-91512888D01*
X115505304Y-91515585D01*
X115417060Y-91517499D01*
X115314595Y-91518457D01*
X115274804Y-91518534D01*
X114914007Y-91518534D01*
X114948008Y-91332267D01*
X114982009Y-91146001D01*
X115274615Y-91146001D01*
X115380436Y-91146126D01*
G36*
X115694145Y-91802167D02*
X115708100Y-91874727D01*
X115720531Y-91935714D01*
X115729699Y-91976780D01*
X115732929Y-91988434D01*
X115728493Y-91994980D01*
X115707735Y-92000117D01*
X115667644Y-92003985D01*
X115605209Y-92006725D01*
X115517419Y-92008478D01*
X115401265Y-92009387D01*
X115281812Y-92009601D01*
X115125198Y-92009000D01*
X115001823Y-92007184D01*
X114911080Y-92004127D01*
X114852362Y-91999808D01*
X114825062Y-91994200D01*
X114822800Y-91991699D01*
X114826370Y-91965065D01*
X114835305Y-91920004D01*
X114839151Y-91902799D01*
X114851998Y-91844063D01*
X114866672Y-91772807D01*
X114874218Y-91734434D01*
X114892934Y-91637067D01*
X115663256Y-91637067D01*
X115694145Y-91802167D01*
X115694145Y-91802167D01*
G37*
X115694145Y-91802167D02*
X115708100Y-91874727D01*
X115720531Y-91935714D01*
X115729699Y-91976780D01*
X115732929Y-91988434D01*
X115728493Y-91994980D01*
X115707735Y-92000117D01*
X115667644Y-92003985D01*
X115605209Y-92006725D01*
X115517419Y-92008478D01*
X115401265Y-92009387D01*
X115281812Y-92009601D01*
X115125198Y-92009000D01*
X115001823Y-92007184D01*
X114911080Y-92004127D01*
X114852362Y-91999808D01*
X114825062Y-91994200D01*
X114822800Y-91991699D01*
X114826370Y-91965065D01*
X114835305Y-91920004D01*
X114839151Y-91902799D01*
X114851998Y-91844063D01*
X114866672Y-91772807D01*
X114874218Y-91734434D01*
X114892934Y-91637067D01*
X115663256Y-91637067D01*
X115694145Y-91802167D01*
G36*
X115762101Y-92166234D02*
X115772018Y-92212132D01*
X115784362Y-92272049D01*
X115797323Y-92336799D01*
X115809088Y-92397197D01*
X115817847Y-92444058D01*
X115821788Y-92468197D01*
X115821853Y-92469222D01*
X115819556Y-92475541D01*
X115810431Y-92480546D01*
X115791154Y-92484346D01*
X115758398Y-92487050D01*
X115708840Y-92488766D01*
X115639152Y-92489602D01*
X115546012Y-92489667D01*
X115426093Y-92489069D01*
X115276070Y-92487917D01*
X115254036Y-92487731D01*
X114728538Y-92483262D01*
X114762080Y-92305698D01*
X114795621Y-92128134D01*
X115753488Y-92128134D01*
X115762101Y-92166234D01*
X115762101Y-92166234D01*
G37*
X115762101Y-92166234D02*
X115772018Y-92212132D01*
X115784362Y-92272049D01*
X115797323Y-92336799D01*
X115809088Y-92397197D01*
X115817847Y-92444058D01*
X115821788Y-92468197D01*
X115821853Y-92469222D01*
X115819556Y-92475541D01*
X115810431Y-92480546D01*
X115791154Y-92484346D01*
X115758398Y-92487050D01*
X115708840Y-92488766D01*
X115639152Y-92489602D01*
X115546012Y-92489667D01*
X115426093Y-92489069D01*
X115276070Y-92487917D01*
X115254036Y-92487731D01*
X114728538Y-92483262D01*
X114762080Y-92305698D01*
X114795621Y-92128134D01*
X115753488Y-92128134D01*
X115762101Y-92166234D01*
G36*
X119005333Y-93855334D02*
X111554667Y-93855334D01*
X111554667Y-93080693D01*
X114297867Y-93080693D01*
X114308192Y-93110305D01*
X114333794Y-93149923D01*
X114341705Y-93159768D01*
X114396356Y-93201189D01*
X114460635Y-93213769D01*
X114525510Y-93196925D01*
X114559486Y-93173767D01*
X114578699Y-93152829D01*
X114594671Y-93123704D01*
X114609465Y-93080214D01*
X114625144Y-93016182D01*
X114643769Y-92925430D01*
X114645701Y-92915534D01*
X114662394Y-92830044D01*
X114677375Y-92753862D01*
X114689139Y-92694599D01*
X114696183Y-92659864D01*
X114696726Y-92657301D01*
X114704912Y-92619201D01*
X115851874Y-92619201D01*
X115888563Y-92818167D01*
X115909868Y-92931065D01*
X115927292Y-93015587D01*
X115942332Y-93076795D01*
X115956486Y-93119749D01*
X115971252Y-93149511D01*
X115988127Y-93171141D01*
X115995027Y-93177932D01*
X116049172Y-93207236D01*
X116113304Y-93211530D01*
X116175198Y-93191368D01*
X116205537Y-93168403D01*
X116229529Y-93140928D01*
X116241378Y-93112745D01*
X116243821Y-93072282D01*
X116240599Y-93020236D01*
X116233485Y-92957219D01*
X116221314Y-92874352D01*
X116206123Y-92784899D01*
X116197225Y-92737734D01*
X116181980Y-92659606D01*
X116161668Y-92554600D01*
X116137515Y-92429114D01*
X116110745Y-92289547D01*
X116082583Y-92142298D01*
X116063734Y-92043467D01*
X116431467Y-92043467D01*
X116736267Y-92043467D01*
X116736267Y-91047535D01*
X116832051Y-91041734D01*
X116927836Y-91035934D01*
X117021136Y-91179867D01*
X117109590Y-91317225D01*
X117179924Y-91428553D01*
X117233229Y-91515711D01*
X117270595Y-91580562D01*
X117293112Y-91624967D01*
X117301869Y-91650787D01*
X117301102Y-91657935D01*
X117300517Y-91668168D01*
X117308534Y-91664609D01*
X117329304Y-91668639D01*
X117347328Y-91690598D01*
X117364567Y-91719952D01*
X117395504Y-91770031D01*
X117435364Y-91833178D01*
X117469078Y-91885806D01*
X117570733Y-92043467D01*
X117737700Y-92043467D01*
X117808241Y-92042691D01*
X117864038Y-92040600D01*
X117897872Y-92037551D01*
X117904667Y-92035229D01*
X117895912Y-92019495D01*
X117871052Y-91978572D01*
X117832186Y-91915824D01*
X117781417Y-91834617D01*
X117720847Y-91738316D01*
X117652578Y-91630287D01*
X117598501Y-91545030D01*
X117525881Y-91430309D01*
X117459467Y-91324615D01*
X117401359Y-91231350D01*
X117353655Y-91153915D01*
X117318457Y-91095713D01*
X117297862Y-91060145D01*
X117293257Y-91050417D01*
X117308622Y-91039440D01*
X117341189Y-91031979D01*
X117461917Y-91000979D01*
X117576422Y-90941531D01*
X117678021Y-90859051D01*
X117760029Y-90758954D01*
X117815371Y-90647783D01*
X117833972Y-90568629D01*
X117844634Y-90467760D01*
X117847524Y-90355666D01*
X117842806Y-90242843D01*
X117830646Y-90139782D01*
X117811209Y-90056976D01*
X117805825Y-90042146D01*
X117750425Y-89941030D01*
X117670190Y-89845546D01*
X117573934Y-89765169D01*
X117515200Y-89729704D01*
X117422067Y-89681267D01*
X116926767Y-89675887D01*
X116431467Y-89670506D01*
X116431467Y-92043467D01*
X116063734Y-92043467D01*
X116054254Y-91993766D01*
X116026982Y-91850348D01*
X116001992Y-91718445D01*
X115991424Y-91662467D01*
X115980773Y-91606272D01*
X115964699Y-91521874D01*
X115944169Y-91414330D01*
X115920149Y-91288695D01*
X115893606Y-91150025D01*
X115865507Y-91003376D01*
X115839273Y-90866601D01*
X115811046Y-90719389D01*
X115783890Y-90577532D01*
X115758694Y-90445704D01*
X115736352Y-90328578D01*
X115717755Y-90230830D01*
X115703794Y-90157134D01*
X115695529Y-90113067D01*
X115676676Y-90011675D01*
X115654880Y-89895155D01*
X115631078Y-89768460D01*
X115606210Y-89636544D01*
X115581216Y-89504362D01*
X115580899Y-89502689D01*
X116422202Y-89502689D01*
X116424519Y-89526721D01*
X116447905Y-89553269D01*
X116485021Y-89550468D01*
X116534040Y-89519050D01*
X116593135Y-89459749D01*
X116594091Y-89458649D01*
X116740237Y-89265542D01*
X116855579Y-89058586D01*
X116940497Y-88836959D01*
X116995368Y-88599838D01*
X116998997Y-88576703D01*
X117020417Y-88330018D01*
X117009031Y-88091508D01*
X116964792Y-87861018D01*
X116887652Y-87638390D01*
X116777564Y-87423472D01*
X116634481Y-87216106D01*
X116554850Y-87120101D01*
X116507919Y-87077465D01*
X116468385Y-87066508D01*
X116436176Y-87084064D01*
X116424700Y-87106625D01*
X116432020Y-87137283D01*
X116460403Y-87180850D01*
X116508991Y-87238634D01*
X116644354Y-87415623D01*
X116752513Y-87609682D01*
X116832874Y-87816934D01*
X116884843Y-88033498D01*
X116907826Y-88255498D01*
X116901229Y-88479055D01*
X116864459Y-88700290D01*
X116796921Y-88915326D01*
X116774106Y-88970067D01*
X116716962Y-89083618D01*
X116644133Y-89204037D01*
X116563932Y-89318639D01*
X116484678Y-89414735D01*
X116477777Y-89422147D01*
X116438219Y-89468967D01*
X116422202Y-89502689D01*
X115580899Y-89502689D01*
X115557034Y-89376867D01*
X115535958Y-89266118D01*
X116161173Y-89266118D01*
X116172536Y-89289693D01*
X116203984Y-89299299D01*
X116247277Y-89278975D01*
X116300621Y-89229793D01*
X116329302Y-89196209D01*
X116455666Y-89013982D01*
X116550900Y-88820964D01*
X116614327Y-88619243D01*
X116645267Y-88410906D01*
X116645124Y-88224331D01*
X116615070Y-88015493D01*
X116555653Y-87816054D01*
X116468774Y-87630521D01*
X116356334Y-87463404D01*
X116293823Y-87391034D01*
X116280474Y-87378334D01*
X116380667Y-87378334D01*
X116389133Y-87386800D01*
X116397600Y-87378334D01*
X116389133Y-87369867D01*
X116380667Y-87378334D01*
X116280474Y-87378334D01*
X116242613Y-87342317D01*
X116205919Y-87322346D01*
X116181301Y-87330548D01*
X116167457Y-87361517D01*
X116166468Y-87395107D01*
X116184392Y-87431247D01*
X116214664Y-87468012D01*
X116332094Y-87620387D01*
X116426788Y-87789916D01*
X116494034Y-87967680D01*
X116509093Y-88025307D01*
X116526010Y-88132090D01*
X116533740Y-88258136D01*
X116532255Y-88390102D01*
X116521526Y-88514644D01*
X116510314Y-88581823D01*
X116465592Y-88733233D01*
X116395719Y-88889255D01*
X116305995Y-89039682D01*
X116204060Y-89171668D01*
X116169613Y-89222779D01*
X116161173Y-89266118D01*
X115535958Y-89266118D01*
X115534605Y-89259013D01*
X115514866Y-89155755D01*
X115498758Y-89072046D01*
X115487220Y-89012841D01*
X115482038Y-88987055D01*
X115875024Y-88987055D01*
X115883955Y-89001112D01*
X115916825Y-89012413D01*
X115961598Y-88992318D01*
X116018441Y-88940746D01*
X116027900Y-88930423D01*
X116124052Y-88798401D01*
X116192679Y-88647494D01*
X116233210Y-88479319D01*
X116245200Y-88312787D01*
X116230173Y-88128005D01*
X116185312Y-87958233D01*
X116110946Y-87804398D01*
X116020868Y-87682383D01*
X115968028Y-87631473D01*
X115925409Y-87609419D01*
X115894803Y-87616767D01*
X115881398Y-87639965D01*
X115883598Y-87670231D01*
X115907482Y-87714272D01*
X115945801Y-87764935D01*
X116040990Y-87907034D01*
X116105249Y-88059058D01*
X116138578Y-88217154D01*
X116140977Y-88377467D01*
X116112445Y-88536145D01*
X116052982Y-88689333D01*
X115962588Y-88833179D01*
X115945929Y-88854242D01*
X115899949Y-88915016D01*
X115876981Y-88957705D01*
X115875024Y-88987055D01*
X115482038Y-88987055D01*
X115482027Y-88987001D01*
X115470066Y-88929636D01*
X115459910Y-88880667D01*
X115456620Y-88864685D01*
X115458053Y-88836790D01*
X115480215Y-88813276D01*
X115514596Y-88793528D01*
X115629214Y-88719205D01*
X115715025Y-88627488D01*
X115772531Y-88517529D01*
X115802236Y-88388480D01*
X115806920Y-88300640D01*
X115791384Y-88168145D01*
X115745483Y-88050534D01*
X115668949Y-87947163D01*
X115653235Y-87931311D01*
X115568197Y-87860072D01*
X115482354Y-87814621D01*
X115385349Y-87790887D01*
X115280000Y-87784734D01*
X115201683Y-87786444D01*
X115144009Y-87793304D01*
X115093851Y-87807909D01*
X115039136Y-87832333D01*
X114933074Y-87901919D01*
X114845596Y-87998131D01*
X114789135Y-88092666D01*
X114760022Y-88180138D01*
X114747581Y-88284371D01*
X114751915Y-88392592D01*
X114773124Y-88492025D01*
X114785720Y-88525054D01*
X114833692Y-88608323D01*
X114898438Y-88686911D01*
X114970616Y-88750751D01*
X115025634Y-88783635D01*
X115076024Y-88814143D01*
X115093688Y-88845835D01*
X115093733Y-88847579D01*
X115090662Y-88874322D01*
X115082131Y-88928355D01*
X115069160Y-89003729D01*
X115052773Y-89094492D01*
X115035285Y-89187907D01*
X115020451Y-89265858D01*
X115000168Y-89372459D01*
X114975315Y-89503088D01*
X114946771Y-89653126D01*
X114915415Y-89817952D01*
X114882127Y-89992944D01*
X114847785Y-90173484D01*
X114813268Y-90354949D01*
X114807742Y-90384000D01*
X114767631Y-90594753D01*
X114722834Y-90829907D01*
X114675042Y-91080603D01*
X114625944Y-91337980D01*
X114577232Y-91593178D01*
X114530595Y-91837338D01*
X114487724Y-92061601D01*
X114468257Y-92163359D01*
X114435888Y-92332991D01*
X114405531Y-92493031D01*
X114377774Y-92640313D01*
X114353206Y-92771670D01*
X114332413Y-92883937D01*
X114315985Y-92973947D01*
X114304510Y-93038534D01*
X114298575Y-93074532D01*
X114297867Y-93080693D01*
X111554667Y-93080693D01*
X111554667Y-89757467D01*
X112689200Y-89757467D01*
X112689200Y-92128134D01*
X112993537Y-92128134D01*
X112998002Y-91574462D01*
X113002467Y-91020789D01*
X113417333Y-91573966D01*
X113832200Y-92127144D01*
X114005767Y-92127639D01*
X114077892Y-92126421D01*
X114135336Y-92122739D01*
X114171044Y-92117211D01*
X114179333Y-92112449D01*
X114169318Y-92096097D01*
X114140707Y-92055843D01*
X114095647Y-91994555D01*
X114036287Y-91915101D01*
X113964776Y-91820349D01*
X113883262Y-91713165D01*
X113793895Y-91596418D01*
X113746024Y-91534167D01*
X113653129Y-91413292D01*
X113566646Y-91300256D01*
X113488780Y-91197976D01*
X113421731Y-91109367D01*
X113367703Y-91037346D01*
X113328899Y-90984829D01*
X113307520Y-90954732D01*
X113304060Y-90949018D01*
X113309831Y-90925945D01*
X113332877Y-90884886D01*
X113368612Y-90833721D01*
X113378944Y-90820334D01*
X113433019Y-90751067D01*
X113494103Y-90671978D01*
X113548310Y-90601059D01*
X113588535Y-90550968D01*
X113621632Y-90515162D01*
X113642267Y-90499208D01*
X113645681Y-90499459D01*
X113652854Y-90499063D01*
X113651578Y-90493109D01*
X113659817Y-90474973D01*
X113686050Y-90434405D01*
X113727324Y-90375579D01*
X113780681Y-90302673D01*
X113843166Y-90219860D01*
X113866067Y-90190058D01*
X113935483Y-90100032D01*
X114001425Y-90014319D01*
X114059790Y-89938266D01*
X114106478Y-89877218D01*
X114137388Y-89836520D01*
X114141398Y-89831183D01*
X114196596Y-89757467D01*
X113832200Y-89759987D01*
X113698012Y-89940760D01*
X113650142Y-90005032D01*
X113586425Y-90090260D01*
X113511414Y-90190370D01*
X113429665Y-90299287D01*
X113345732Y-90410937D01*
X113283145Y-90494067D01*
X113002467Y-90866601D01*
X112993537Y-89757467D01*
X112689200Y-89757467D01*
X111554667Y-89757467D01*
X111554667Y-88218744D01*
X113539825Y-88218744D01*
X113541334Y-88385867D01*
X113562422Y-88613380D01*
X113606554Y-88819486D01*
X113674943Y-89008668D01*
X113748308Y-89151480D01*
X113777647Y-89202754D01*
X113798639Y-89241757D01*
X113806798Y-89260152D01*
X113806800Y-89260225D01*
X113817046Y-89278669D01*
X113844059Y-89315573D01*
X113882252Y-89363957D01*
X113926037Y-89416838D01*
X113969827Y-89467236D01*
X113991327Y-89490767D01*
X114038843Y-89532242D01*
X114081231Y-89552885D01*
X114112828Y-89551555D01*
X114127972Y-89527108D01*
X114128533Y-89518466D01*
X114117875Y-89488971D01*
X114089705Y-89443774D01*
X114049726Y-89391828D01*
X114042358Y-89383192D01*
X113908225Y-89204986D01*
X113799774Y-89008770D01*
X113715312Y-88791238D01*
X113683814Y-88682201D01*
X113665410Y-88585359D01*
X113653164Y-88466449D01*
X113647326Y-88336749D01*
X113647498Y-88309667D01*
X113917410Y-88309667D01*
X113917899Y-88415346D01*
X113920434Y-88495390D01*
X113925838Y-88558008D01*
X113934933Y-88611411D01*
X113948542Y-88663807D01*
X113955038Y-88685065D01*
X114027459Y-88875840D01*
X114117780Y-89047216D01*
X114222993Y-89193778D01*
X114261870Y-89237255D01*
X114310022Y-89280392D01*
X114346816Y-89294169D01*
X114376239Y-89279417D01*
X114388211Y-89263574D01*
X114393521Y-89243014D01*
X114382973Y-89215471D01*
X114353256Y-89174338D01*
X114328835Y-89145041D01*
X114207548Y-88979575D01*
X114114324Y-88801736D01*
X114050250Y-88615438D01*
X114016415Y-88424598D01*
X114015890Y-88384560D01*
X114308843Y-88384560D01*
X114335446Y-88554085D01*
X114389324Y-88715970D01*
X114469758Y-88864686D01*
X114539287Y-88955505D01*
X114583573Y-88994976D01*
X114624312Y-89012737D01*
X114655203Y-89008014D01*
X114669944Y-88980029D01*
X114670400Y-88971669D01*
X114659853Y-88936156D01*
X114632798Y-88888997D01*
X114609795Y-88858399D01*
X114517377Y-88722512D01*
X114454359Y-88574218D01*
X114420757Y-88417946D01*
X114416587Y-88258131D01*
X114441868Y-88099204D01*
X114496615Y-87945597D01*
X114580845Y-87801741D01*
X114605683Y-87768864D01*
X114648699Y-87704846D01*
X114665441Y-87655636D01*
X114655654Y-87623209D01*
X114625987Y-87610272D01*
X114593243Y-87621098D01*
X114550760Y-87657782D01*
X114502676Y-87715286D01*
X114453128Y-87788575D01*
X114406255Y-87872611D01*
X114399893Y-87885459D01*
X114340346Y-88044716D01*
X114310236Y-88212927D01*
X114308843Y-88384560D01*
X114015890Y-88384560D01*
X114013904Y-88233131D01*
X114034563Y-88085047D01*
X114083976Y-87907222D01*
X114153878Y-87739444D01*
X114240528Y-87589410D01*
X114331281Y-87474250D01*
X114376303Y-87421082D01*
X114395714Y-87383481D01*
X114390672Y-87356265D01*
X114362522Y-87334353D01*
X114343192Y-87327638D01*
X114322830Y-87331472D01*
X114297177Y-87349338D01*
X114261977Y-87384719D01*
X114212971Y-87441099D01*
X114172143Y-87490118D01*
X114135956Y-87542529D01*
X114093252Y-87617509D01*
X114048648Y-87705646D01*
X114006763Y-87797526D01*
X113972215Y-87883735D01*
X113956978Y-87928667D01*
X113940989Y-87985620D01*
X113929926Y-88040096D01*
X113922916Y-88100511D01*
X113919083Y-88175283D01*
X113917554Y-88272829D01*
X113917410Y-88309667D01*
X113647498Y-88309667D01*
X113648148Y-88207538D01*
X113655881Y-88090095D01*
X113668724Y-88004867D01*
X113734215Y-87773596D01*
X113828015Y-87557177D01*
X113948436Y-87358991D01*
X114061348Y-87217467D01*
X114105224Y-87159271D01*
X114123342Y-87112766D01*
X114115155Y-87080927D01*
X114088923Y-87067941D01*
X114053328Y-87077063D01*
X114006760Y-87112565D01*
X113952294Y-87170009D01*
X113893004Y-87244959D01*
X113831967Y-87332979D01*
X113772258Y-87429633D01*
X113716953Y-87530485D01*
X113669126Y-87631099D01*
X113631853Y-87727037D01*
X113631720Y-87727435D01*
X113582821Y-87894645D01*
X113552800Y-88053964D01*
X113539825Y-88218744D01*
X111554667Y-88218744D01*
X111554667Y-86421601D01*
X119005333Y-86421601D01*
X119005333Y-93855334D01*
X119005333Y-93855334D01*
G37*
X119005333Y-93855334D02*
X111554667Y-93855334D01*
X111554667Y-93080693D01*
X114297867Y-93080693D01*
X114308192Y-93110305D01*
X114333794Y-93149923D01*
X114341705Y-93159768D01*
X114396356Y-93201189D01*
X114460635Y-93213769D01*
X114525510Y-93196925D01*
X114559486Y-93173767D01*
X114578699Y-93152829D01*
X114594671Y-93123704D01*
X114609465Y-93080214D01*
X114625144Y-93016182D01*
X114643769Y-92925430D01*
X114645701Y-92915534D01*
X114662394Y-92830044D01*
X114677375Y-92753862D01*
X114689139Y-92694599D01*
X114696183Y-92659864D01*
X114696726Y-92657301D01*
X114704912Y-92619201D01*
X115851874Y-92619201D01*
X115888563Y-92818167D01*
X115909868Y-92931065D01*
X115927292Y-93015587D01*
X115942332Y-93076795D01*
X115956486Y-93119749D01*
X115971252Y-93149511D01*
X115988127Y-93171141D01*
X115995027Y-93177932D01*
X116049172Y-93207236D01*
X116113304Y-93211530D01*
X116175198Y-93191368D01*
X116205537Y-93168403D01*
X116229529Y-93140928D01*
X116241378Y-93112745D01*
X116243821Y-93072282D01*
X116240599Y-93020236D01*
X116233485Y-92957219D01*
X116221314Y-92874352D01*
X116206123Y-92784899D01*
X116197225Y-92737734D01*
X116181980Y-92659606D01*
X116161668Y-92554600D01*
X116137515Y-92429114D01*
X116110745Y-92289547D01*
X116082583Y-92142298D01*
X116063734Y-92043467D01*
X116431467Y-92043467D01*
X116736267Y-92043467D01*
X116736267Y-91047535D01*
X116832051Y-91041734D01*
X116927836Y-91035934D01*
X117021136Y-91179867D01*
X117109590Y-91317225D01*
X117179924Y-91428553D01*
X117233229Y-91515711D01*
X117270595Y-91580562D01*
X117293112Y-91624967D01*
X117301869Y-91650787D01*
X117301102Y-91657935D01*
X117300517Y-91668168D01*
X117308534Y-91664609D01*
X117329304Y-91668639D01*
X117347328Y-91690598D01*
X117364567Y-91719952D01*
X117395504Y-91770031D01*
X117435364Y-91833178D01*
X117469078Y-91885806D01*
X117570733Y-92043467D01*
X117737700Y-92043467D01*
X117808241Y-92042691D01*
X117864038Y-92040600D01*
X117897872Y-92037551D01*
X117904667Y-92035229D01*
X117895912Y-92019495D01*
X117871052Y-91978572D01*
X117832186Y-91915824D01*
X117781417Y-91834617D01*
X117720847Y-91738316D01*
X117652578Y-91630287D01*
X117598501Y-91545030D01*
X117525881Y-91430309D01*
X117459467Y-91324615D01*
X117401359Y-91231350D01*
X117353655Y-91153915D01*
X117318457Y-91095713D01*
X117297862Y-91060145D01*
X117293257Y-91050417D01*
X117308622Y-91039440D01*
X117341189Y-91031979D01*
X117461917Y-91000979D01*
X117576422Y-90941531D01*
X117678021Y-90859051D01*
X117760029Y-90758954D01*
X117815371Y-90647783D01*
X117833972Y-90568629D01*
X117844634Y-90467760D01*
X117847524Y-90355666D01*
X117842806Y-90242843D01*
X117830646Y-90139782D01*
X117811209Y-90056976D01*
X117805825Y-90042146D01*
X117750425Y-89941030D01*
X117670190Y-89845546D01*
X117573934Y-89765169D01*
X117515200Y-89729704D01*
X117422067Y-89681267D01*
X116926767Y-89675887D01*
X116431467Y-89670506D01*
X116431467Y-92043467D01*
X116063734Y-92043467D01*
X116054254Y-91993766D01*
X116026982Y-91850348D01*
X116001992Y-91718445D01*
X115991424Y-91662467D01*
X115980773Y-91606272D01*
X115964699Y-91521874D01*
X115944169Y-91414330D01*
X115920149Y-91288695D01*
X115893606Y-91150025D01*
X115865507Y-91003376D01*
X115839273Y-90866601D01*
X115811046Y-90719389D01*
X115783890Y-90577532D01*
X115758694Y-90445704D01*
X115736352Y-90328578D01*
X115717755Y-90230830D01*
X115703794Y-90157134D01*
X115695529Y-90113067D01*
X115676676Y-90011675D01*
X115654880Y-89895155D01*
X115631078Y-89768460D01*
X115606210Y-89636544D01*
X115581216Y-89504362D01*
X115580899Y-89502689D01*
X116422202Y-89502689D01*
X116424519Y-89526721D01*
X116447905Y-89553269D01*
X116485021Y-89550468D01*
X116534040Y-89519050D01*
X116593135Y-89459749D01*
X116594091Y-89458649D01*
X116740237Y-89265542D01*
X116855579Y-89058586D01*
X116940497Y-88836959D01*
X116995368Y-88599838D01*
X116998997Y-88576703D01*
X117020417Y-88330018D01*
X117009031Y-88091508D01*
X116964792Y-87861018D01*
X116887652Y-87638390D01*
X116777564Y-87423472D01*
X116634481Y-87216106D01*
X116554850Y-87120101D01*
X116507919Y-87077465D01*
X116468385Y-87066508D01*
X116436176Y-87084064D01*
X116424700Y-87106625D01*
X116432020Y-87137283D01*
X116460403Y-87180850D01*
X116508991Y-87238634D01*
X116644354Y-87415623D01*
X116752513Y-87609682D01*
X116832874Y-87816934D01*
X116884843Y-88033498D01*
X116907826Y-88255498D01*
X116901229Y-88479055D01*
X116864459Y-88700290D01*
X116796921Y-88915326D01*
X116774106Y-88970067D01*
X116716962Y-89083618D01*
X116644133Y-89204037D01*
X116563932Y-89318639D01*
X116484678Y-89414735D01*
X116477777Y-89422147D01*
X116438219Y-89468967D01*
X116422202Y-89502689D01*
X115580899Y-89502689D01*
X115557034Y-89376867D01*
X115535958Y-89266118D01*
X116161173Y-89266118D01*
X116172536Y-89289693D01*
X116203984Y-89299299D01*
X116247277Y-89278975D01*
X116300621Y-89229793D01*
X116329302Y-89196209D01*
X116455666Y-89013982D01*
X116550900Y-88820964D01*
X116614327Y-88619243D01*
X116645267Y-88410906D01*
X116645124Y-88224331D01*
X116615070Y-88015493D01*
X116555653Y-87816054D01*
X116468774Y-87630521D01*
X116356334Y-87463404D01*
X116293823Y-87391034D01*
X116280474Y-87378334D01*
X116380667Y-87378334D01*
X116389133Y-87386800D01*
X116397600Y-87378334D01*
X116389133Y-87369867D01*
X116380667Y-87378334D01*
X116280474Y-87378334D01*
X116242613Y-87342317D01*
X116205919Y-87322346D01*
X116181301Y-87330548D01*
X116167457Y-87361517D01*
X116166468Y-87395107D01*
X116184392Y-87431247D01*
X116214664Y-87468012D01*
X116332094Y-87620387D01*
X116426788Y-87789916D01*
X116494034Y-87967680D01*
X116509093Y-88025307D01*
X116526010Y-88132090D01*
X116533740Y-88258136D01*
X116532255Y-88390102D01*
X116521526Y-88514644D01*
X116510314Y-88581823D01*
X116465592Y-88733233D01*
X116395719Y-88889255D01*
X116305995Y-89039682D01*
X116204060Y-89171668D01*
X116169613Y-89222779D01*
X116161173Y-89266118D01*
X115535958Y-89266118D01*
X115534605Y-89259013D01*
X115514866Y-89155755D01*
X115498758Y-89072046D01*
X115487220Y-89012841D01*
X115482038Y-88987055D01*
X115875024Y-88987055D01*
X115883955Y-89001112D01*
X115916825Y-89012413D01*
X115961598Y-88992318D01*
X116018441Y-88940746D01*
X116027900Y-88930423D01*
X116124052Y-88798401D01*
X116192679Y-88647494D01*
X116233210Y-88479319D01*
X116245200Y-88312787D01*
X116230173Y-88128005D01*
X116185312Y-87958233D01*
X116110946Y-87804398D01*
X116020868Y-87682383D01*
X115968028Y-87631473D01*
X115925409Y-87609419D01*
X115894803Y-87616767D01*
X115881398Y-87639965D01*
X115883598Y-87670231D01*
X115907482Y-87714272D01*
X115945801Y-87764935D01*
X116040990Y-87907034D01*
X116105249Y-88059058D01*
X116138578Y-88217154D01*
X116140977Y-88377467D01*
X116112445Y-88536145D01*
X116052982Y-88689333D01*
X115962588Y-88833179D01*
X115945929Y-88854242D01*
X115899949Y-88915016D01*
X115876981Y-88957705D01*
X115875024Y-88987055D01*
X115482038Y-88987055D01*
X115482027Y-88987001D01*
X115470066Y-88929636D01*
X115459910Y-88880667D01*
X115456620Y-88864685D01*
X115458053Y-88836790D01*
X115480215Y-88813276D01*
X115514596Y-88793528D01*
X115629214Y-88719205D01*
X115715025Y-88627488D01*
X115772531Y-88517529D01*
X115802236Y-88388480D01*
X115806920Y-88300640D01*
X115791384Y-88168145D01*
X115745483Y-88050534D01*
X115668949Y-87947163D01*
X115653235Y-87931311D01*
X115568197Y-87860072D01*
X115482354Y-87814621D01*
X115385349Y-87790887D01*
X115280000Y-87784734D01*
X115201683Y-87786444D01*
X115144009Y-87793304D01*
X115093851Y-87807909D01*
X115039136Y-87832333D01*
X114933074Y-87901919D01*
X114845596Y-87998131D01*
X114789135Y-88092666D01*
X114760022Y-88180138D01*
X114747581Y-88284371D01*
X114751915Y-88392592D01*
X114773124Y-88492025D01*
X114785720Y-88525054D01*
X114833692Y-88608323D01*
X114898438Y-88686911D01*
X114970616Y-88750751D01*
X115025634Y-88783635D01*
X115076024Y-88814143D01*
X115093688Y-88845835D01*
X115093733Y-88847579D01*
X115090662Y-88874322D01*
X115082131Y-88928355D01*
X115069160Y-89003729D01*
X115052773Y-89094492D01*
X115035285Y-89187907D01*
X115020451Y-89265858D01*
X115000168Y-89372459D01*
X114975315Y-89503088D01*
X114946771Y-89653126D01*
X114915415Y-89817952D01*
X114882127Y-89992944D01*
X114847785Y-90173484D01*
X114813268Y-90354949D01*
X114807742Y-90384000D01*
X114767631Y-90594753D01*
X114722834Y-90829907D01*
X114675042Y-91080603D01*
X114625944Y-91337980D01*
X114577232Y-91593178D01*
X114530595Y-91837338D01*
X114487724Y-92061601D01*
X114468257Y-92163359D01*
X114435888Y-92332991D01*
X114405531Y-92493031D01*
X114377774Y-92640313D01*
X114353206Y-92771670D01*
X114332413Y-92883937D01*
X114315985Y-92973947D01*
X114304510Y-93038534D01*
X114298575Y-93074532D01*
X114297867Y-93080693D01*
X111554667Y-93080693D01*
X111554667Y-89757467D01*
X112689200Y-89757467D01*
X112689200Y-92128134D01*
X112993537Y-92128134D01*
X112998002Y-91574462D01*
X113002467Y-91020789D01*
X113417333Y-91573966D01*
X113832200Y-92127144D01*
X114005767Y-92127639D01*
X114077892Y-92126421D01*
X114135336Y-92122739D01*
X114171044Y-92117211D01*
X114179333Y-92112449D01*
X114169318Y-92096097D01*
X114140707Y-92055843D01*
X114095647Y-91994555D01*
X114036287Y-91915101D01*
X113964776Y-91820349D01*
X113883262Y-91713165D01*
X113793895Y-91596418D01*
X113746024Y-91534167D01*
X113653129Y-91413292D01*
X113566646Y-91300256D01*
X113488780Y-91197976D01*
X113421731Y-91109367D01*
X113367703Y-91037346D01*
X113328899Y-90984829D01*
X113307520Y-90954732D01*
X113304060Y-90949018D01*
X113309831Y-90925945D01*
X113332877Y-90884886D01*
X113368612Y-90833721D01*
X113378944Y-90820334D01*
X113433019Y-90751067D01*
X113494103Y-90671978D01*
X113548310Y-90601059D01*
X113588535Y-90550968D01*
X113621632Y-90515162D01*
X113642267Y-90499208D01*
X113645681Y-90499459D01*
X113652854Y-90499063D01*
X113651578Y-90493109D01*
X113659817Y-90474973D01*
X113686050Y-90434405D01*
X113727324Y-90375579D01*
X113780681Y-90302673D01*
X113843166Y-90219860D01*
X113866067Y-90190058D01*
X113935483Y-90100032D01*
X114001425Y-90014319D01*
X114059790Y-89938266D01*
X114106478Y-89877218D01*
X114137388Y-89836520D01*
X114141398Y-89831183D01*
X114196596Y-89757467D01*
X113832200Y-89759987D01*
X113698012Y-89940760D01*
X113650142Y-90005032D01*
X113586425Y-90090260D01*
X113511414Y-90190370D01*
X113429665Y-90299287D01*
X113345732Y-90410937D01*
X113283145Y-90494067D01*
X113002467Y-90866601D01*
X112993537Y-89757467D01*
X112689200Y-89757467D01*
X111554667Y-89757467D01*
X111554667Y-88218744D01*
X113539825Y-88218744D01*
X113541334Y-88385867D01*
X113562422Y-88613380D01*
X113606554Y-88819486D01*
X113674943Y-89008668D01*
X113748308Y-89151480D01*
X113777647Y-89202754D01*
X113798639Y-89241757D01*
X113806798Y-89260152D01*
X113806800Y-89260225D01*
X113817046Y-89278669D01*
X113844059Y-89315573D01*
X113882252Y-89363957D01*
X113926037Y-89416838D01*
X113969827Y-89467236D01*
X113991327Y-89490767D01*
X114038843Y-89532242D01*
X114081231Y-89552885D01*
X114112828Y-89551555D01*
X114127972Y-89527108D01*
X114128533Y-89518466D01*
X114117875Y-89488971D01*
X114089705Y-89443774D01*
X114049726Y-89391828D01*
X114042358Y-89383192D01*
X113908225Y-89204986D01*
X113799774Y-89008770D01*
X113715312Y-88791238D01*
X113683814Y-88682201D01*
X113665410Y-88585359D01*
X113653164Y-88466449D01*
X113647326Y-88336749D01*
X113647498Y-88309667D01*
X113917410Y-88309667D01*
X113917899Y-88415346D01*
X113920434Y-88495390D01*
X113925838Y-88558008D01*
X113934933Y-88611411D01*
X113948542Y-88663807D01*
X113955038Y-88685065D01*
X114027459Y-88875840D01*
X114117780Y-89047216D01*
X114222993Y-89193778D01*
X114261870Y-89237255D01*
X114310022Y-89280392D01*
X114346816Y-89294169D01*
X114376239Y-89279417D01*
X114388211Y-89263574D01*
X114393521Y-89243014D01*
X114382973Y-89215471D01*
X114353256Y-89174338D01*
X114328835Y-89145041D01*
X114207548Y-88979575D01*
X114114324Y-88801736D01*
X114050250Y-88615438D01*
X114016415Y-88424598D01*
X114015890Y-88384560D01*
X114308843Y-88384560D01*
X114335446Y-88554085D01*
X114389324Y-88715970D01*
X114469758Y-88864686D01*
X114539287Y-88955505D01*
X114583573Y-88994976D01*
X114624312Y-89012737D01*
X114655203Y-89008014D01*
X114669944Y-88980029D01*
X114670400Y-88971669D01*
X114659853Y-88936156D01*
X114632798Y-88888997D01*
X114609795Y-88858399D01*
X114517377Y-88722512D01*
X114454359Y-88574218D01*
X114420757Y-88417946D01*
X114416587Y-88258131D01*
X114441868Y-88099204D01*
X114496615Y-87945597D01*
X114580845Y-87801741D01*
X114605683Y-87768864D01*
X114648699Y-87704846D01*
X114665441Y-87655636D01*
X114655654Y-87623209D01*
X114625987Y-87610272D01*
X114593243Y-87621098D01*
X114550760Y-87657782D01*
X114502676Y-87715286D01*
X114453128Y-87788575D01*
X114406255Y-87872611D01*
X114399893Y-87885459D01*
X114340346Y-88044716D01*
X114310236Y-88212927D01*
X114308843Y-88384560D01*
X114015890Y-88384560D01*
X114013904Y-88233131D01*
X114034563Y-88085047D01*
X114083976Y-87907222D01*
X114153878Y-87739444D01*
X114240528Y-87589410D01*
X114331281Y-87474250D01*
X114376303Y-87421082D01*
X114395714Y-87383481D01*
X114390672Y-87356265D01*
X114362522Y-87334353D01*
X114343192Y-87327638D01*
X114322830Y-87331472D01*
X114297177Y-87349338D01*
X114261977Y-87384719D01*
X114212971Y-87441099D01*
X114172143Y-87490118D01*
X114135956Y-87542529D01*
X114093252Y-87617509D01*
X114048648Y-87705646D01*
X114006763Y-87797526D01*
X113972215Y-87883735D01*
X113956978Y-87928667D01*
X113940989Y-87985620D01*
X113929926Y-88040096D01*
X113922916Y-88100511D01*
X113919083Y-88175283D01*
X113917554Y-88272829D01*
X113917410Y-88309667D01*
X113647498Y-88309667D01*
X113648148Y-88207538D01*
X113655881Y-88090095D01*
X113668724Y-88004867D01*
X113734215Y-87773596D01*
X113828015Y-87557177D01*
X113948436Y-87358991D01*
X114061348Y-87217467D01*
X114105224Y-87159271D01*
X114123342Y-87112766D01*
X114115155Y-87080927D01*
X114088923Y-87067941D01*
X114053328Y-87077063D01*
X114006760Y-87112565D01*
X113952294Y-87170009D01*
X113893004Y-87244959D01*
X113831967Y-87332979D01*
X113772258Y-87429633D01*
X113716953Y-87530485D01*
X113669126Y-87631099D01*
X113631853Y-87727037D01*
X113631720Y-87727435D01*
X113582821Y-87894645D01*
X113552800Y-88053964D01*
X113539825Y-88218744D01*
X111554667Y-88218744D01*
X111554667Y-86421601D01*
X119005333Y-86421601D01*
X119005333Y-93855334D01*
D15*
X122305000Y-94650000D02*
X119645000Y-94650000D01*
X122305000Y-102330000D02*
X122305000Y-94650000D01*
X119645000Y-102330000D02*
X119645000Y-94650000D01*
X122305000Y-102330000D02*
X119645000Y-102330000D01*
X122305000Y-103600000D02*
X122305000Y-104930000D01*
X122305000Y-104930000D02*
X120975000Y-104930000D01*
X115795000Y-104935000D02*
X118455000Y-104935000D01*
X115795000Y-99795000D02*
X115795000Y-104935000D01*
X118455000Y-99795000D02*
X118455000Y-104935000D01*
X115795000Y-99795000D02*
X118455000Y-99795000D01*
X115795000Y-98525000D02*
X115795000Y-97195000D01*
X115795000Y-97195000D02*
X117125000Y-97195000D01*
X123495000Y-104915000D02*
X126155000Y-104915000D01*
X123495000Y-94695000D02*
X123495000Y-104915000D01*
X126155000Y-94695000D02*
X126155000Y-104915000D01*
X123495000Y-94695000D02*
X126155000Y-94695000D01*
X123495000Y-93425000D02*
X123495000Y-92095000D01*
X123495000Y-92095000D02*
X124825000Y-92095000D01*
X125642335Y-107896392D02*
G75*
G03X122410000Y-107739484I-1672335J-1078608D01*
G01*
X125642335Y-110053608D02*
G75*
G02X122410000Y-110210516I-1672335J1078608D01*
G01*
X125011130Y-107895163D02*
G75*
G03X122929039Y-107895000I-1041130J-1079837D01*
G01*
X125011130Y-110054837D02*
G75*
G02X122929039Y-110055000I-1041130J1079837D01*
G01*
X122410000Y-107739000D02*
X122410000Y-107895000D01*
X122410000Y-110055000D02*
X122410000Y-110211000D01*
X144325000Y-103850000D02*
X139825000Y-103850000D01*
X145575000Y-107850000D02*
X145575000Y-106350000D01*
X139825000Y-110350000D02*
X144325000Y-110350000D01*
X138575000Y-106350000D02*
X138575000Y-107850000D01*
X130225000Y-110350000D02*
X134725000Y-110350000D01*
X128975000Y-106350000D02*
X128975000Y-107850000D01*
X134725000Y-103850000D02*
X130225000Y-103850000D01*
X135975000Y-107850000D02*
X135975000Y-106350000D01*
X129910000Y-84090000D02*
X127250000Y-84090000D01*
X129910000Y-91770000D02*
X129910000Y-84090000D01*
X127250000Y-91770000D02*
X127250000Y-84090000D01*
X129910000Y-91770000D02*
X127250000Y-91770000D01*
X129910000Y-93040000D02*
X129910000Y-94370000D01*
X129910000Y-94370000D02*
X128580000Y-94370000D01*
D11*
X153644381Y-103443905D02*
X154453905Y-103443905D01*
X154549143Y-103396286D01*
X154596762Y-103348667D01*
X154644381Y-103253429D01*
X154644381Y-103062952D01*
X154596762Y-102967714D01*
X154549143Y-102920095D01*
X154453905Y-102872476D01*
X153644381Y-102872476D01*
X153739619Y-102443905D02*
X153692000Y-102396286D01*
X153644381Y-102301048D01*
X153644381Y-102062952D01*
X153692000Y-101967714D01*
X153739619Y-101920095D01*
X153834857Y-101872476D01*
X153930095Y-101872476D01*
X154072952Y-101920095D01*
X154644381Y-102491524D01*
X154644381Y-101872476D01*
X137714570Y-97911571D02*
X138047904Y-97911571D01*
X138190761Y-98435381D02*
X137714570Y-98435381D01*
X137714570Y-97435381D01*
X138190761Y-97435381D01*
X138571713Y-98387762D02*
X138666951Y-98435381D01*
X138857427Y-98435381D01*
X138952666Y-98387762D01*
X139000285Y-98292524D01*
X139000285Y-98244905D01*
X138952666Y-98149667D01*
X138857427Y-98102048D01*
X138714570Y-98102048D01*
X138619332Y-98054429D01*
X138571713Y-97959190D01*
X138571713Y-97911571D01*
X138619332Y-97816333D01*
X138714570Y-97768714D01*
X138857427Y-97768714D01*
X138952666Y-97816333D01*
X139428856Y-97768714D02*
X139428856Y-98768714D01*
X139428856Y-97816333D02*
X139524094Y-97768714D01*
X139714571Y-97768714D01*
X139809809Y-97816333D01*
X139857428Y-97863952D01*
X139905047Y-97959190D01*
X139905047Y-98244905D01*
X139857428Y-98340143D01*
X139809809Y-98387762D01*
X139714571Y-98435381D01*
X139524094Y-98435381D01*
X139428856Y-98387762D01*
X140333618Y-98435381D02*
X140333618Y-97768714D01*
X140333618Y-97959190D02*
X140381237Y-97863952D01*
X140428856Y-97816333D01*
X140524094Y-97768714D01*
X140619333Y-97768714D01*
X141333619Y-98387762D02*
X141238381Y-98435381D01*
X141047904Y-98435381D01*
X140952666Y-98387762D01*
X140905047Y-98292524D01*
X140905047Y-97911571D01*
X140952666Y-97816333D01*
X141047904Y-97768714D01*
X141238381Y-97768714D01*
X141333619Y-97816333D01*
X141381238Y-97911571D01*
X141381238Y-98006810D01*
X140905047Y-98102048D01*
X141762190Y-98387762D02*
X141857428Y-98435381D01*
X142047904Y-98435381D01*
X142143143Y-98387762D01*
X142190762Y-98292524D01*
X142190762Y-98244905D01*
X142143143Y-98149667D01*
X142047904Y-98102048D01*
X141905047Y-98102048D01*
X141809809Y-98054429D01*
X141762190Y-97959190D01*
X141762190Y-97911571D01*
X141809809Y-97816333D01*
X141905047Y-97768714D01*
X142047904Y-97768714D01*
X142143143Y-97816333D01*
X142571714Y-98387762D02*
X142666952Y-98435381D01*
X142857428Y-98435381D01*
X142952667Y-98387762D01*
X143000286Y-98292524D01*
X143000286Y-98244905D01*
X142952667Y-98149667D01*
X142857428Y-98102048D01*
X142714571Y-98102048D01*
X142619333Y-98054429D01*
X142571714Y-97959190D01*
X142571714Y-97911571D01*
X142619333Y-97816333D01*
X142714571Y-97768714D01*
X142857428Y-97768714D01*
X142952667Y-97816333D01*
X143428857Y-98435381D02*
X143428857Y-97768714D01*
X143428857Y-97435381D02*
X143381238Y-97483000D01*
X143428857Y-97530619D01*
X143476476Y-97483000D01*
X143428857Y-97435381D01*
X143428857Y-97530619D01*
X143762190Y-97768714D02*
X144143142Y-97768714D01*
X143905047Y-98435381D02*
X143905047Y-97578238D01*
X143952666Y-97483000D01*
X144047904Y-97435381D01*
X144143142Y-97435381D01*
X145190762Y-98387762D02*
X145333619Y-98435381D01*
X145571715Y-98435381D01*
X145666953Y-98387762D01*
X145714572Y-98340143D01*
X145762191Y-98244905D01*
X145762191Y-98149667D01*
X145714572Y-98054429D01*
X145666953Y-98006810D01*
X145571715Y-97959190D01*
X145381238Y-97911571D01*
X145286000Y-97863952D01*
X145238381Y-97816333D01*
X145190762Y-97721095D01*
X145190762Y-97625857D01*
X145238381Y-97530619D01*
X145286000Y-97483000D01*
X145381238Y-97435381D01*
X145619334Y-97435381D01*
X145762191Y-97483000D01*
X146095524Y-97768714D02*
X146333619Y-98435381D01*
X146571715Y-97768714D02*
X146333619Y-98435381D01*
X146238381Y-98673476D01*
X146190762Y-98721095D01*
X146095524Y-98768714D01*
X146905048Y-98387762D02*
X147000286Y-98435381D01*
X147190762Y-98435381D01*
X147286001Y-98387762D01*
X147333620Y-98292524D01*
X147333620Y-98244905D01*
X147286001Y-98149667D01*
X147190762Y-98102048D01*
X147047905Y-98102048D01*
X146952667Y-98054429D01*
X146905048Y-97959190D01*
X146905048Y-97911571D01*
X146952667Y-97816333D01*
X147047905Y-97768714D01*
X147190762Y-97768714D01*
X147286001Y-97816333D01*
X147619334Y-97768714D02*
X148000286Y-97768714D01*
X147762191Y-97435381D02*
X147762191Y-98292524D01*
X147809810Y-98387762D01*
X147905048Y-98435381D01*
X148000286Y-98435381D01*
X148714573Y-98387762D02*
X148619335Y-98435381D01*
X148428858Y-98435381D01*
X148333620Y-98387762D01*
X148286001Y-98292524D01*
X148286001Y-97911571D01*
X148333620Y-97816333D01*
X148428858Y-97768714D01*
X148619335Y-97768714D01*
X148714573Y-97816333D01*
X148762192Y-97911571D01*
X148762192Y-98006810D01*
X148286001Y-98102048D01*
X149190763Y-98435381D02*
X149190763Y-97768714D01*
X149190763Y-97863952D02*
X149238382Y-97816333D01*
X149333620Y-97768714D01*
X149476478Y-97768714D01*
X149571716Y-97816333D01*
X149619335Y-97911571D01*
X149619335Y-98435381D01*
X149619335Y-97911571D02*
X149666954Y-97816333D01*
X149762192Y-97768714D01*
X149905049Y-97768714D01*
X150000287Y-97816333D01*
X150047906Y-97911571D01*
X150047906Y-98435381D01*
X150476477Y-98387762D02*
X150571715Y-98435381D01*
X150762191Y-98435381D01*
X150857430Y-98387762D01*
X150905049Y-98292524D01*
X150905049Y-98244905D01*
X150857430Y-98149667D01*
X150762191Y-98102048D01*
X150619334Y-98102048D01*
X150524096Y-98054429D01*
X150476477Y-97959190D01*
X150476477Y-97911571D01*
X150524096Y-97816333D01*
X150619334Y-97768714D01*
X150762191Y-97768714D01*
X150857430Y-97816333D01*
X139976619Y-96260571D02*
X140309953Y-96260571D01*
X140452810Y-96784381D02*
X139976619Y-96784381D01*
X139976619Y-95784381D01*
X140452810Y-95784381D01*
X140833762Y-96736762D02*
X140976619Y-96784381D01*
X141214715Y-96784381D01*
X141309953Y-96736762D01*
X141357572Y-96689143D01*
X141405191Y-96593905D01*
X141405191Y-96498667D01*
X141357572Y-96403429D01*
X141309953Y-96355810D01*
X141214715Y-96308190D01*
X141024238Y-96260571D01*
X140929000Y-96212952D01*
X140881381Y-96165333D01*
X140833762Y-96070095D01*
X140833762Y-95974857D01*
X140881381Y-95879619D01*
X140929000Y-95832000D01*
X141024238Y-95784381D01*
X141262334Y-95784381D01*
X141405191Y-95832000D01*
X141833762Y-96784381D02*
X141833762Y-95784381D01*
X142214715Y-95784381D01*
X142309953Y-95832000D01*
X142357572Y-95879619D01*
X142405191Y-95974857D01*
X142405191Y-96117714D01*
X142357572Y-96212952D01*
X142309953Y-96260571D01*
X142214715Y-96308190D01*
X141833762Y-96308190D01*
X142738524Y-95784381D02*
X143357572Y-95784381D01*
X143024238Y-96165333D01*
X143167096Y-96165333D01*
X143262334Y-96212952D01*
X143309953Y-96260571D01*
X143357572Y-96355810D01*
X143357572Y-96593905D01*
X143309953Y-96689143D01*
X143262334Y-96736762D01*
X143167096Y-96784381D01*
X142881381Y-96784381D01*
X142786143Y-96736762D01*
X142738524Y-96689143D01*
X143738524Y-95879619D02*
X143786143Y-95832000D01*
X143881381Y-95784381D01*
X144119477Y-95784381D01*
X144214715Y-95832000D01*
X144262334Y-95879619D01*
X144309953Y-95974857D01*
X144309953Y-96070095D01*
X144262334Y-96212952D01*
X143690905Y-96784381D01*
X144309953Y-96784381D01*
X144738524Y-96403429D02*
X145500429Y-96403429D01*
X145881381Y-95784381D02*
X146119476Y-96784381D01*
X146309953Y-96070095D01*
X146500429Y-96784381D01*
X146738524Y-95784381D01*
X147690905Y-96784381D02*
X147357571Y-96308190D01*
X147119476Y-96784381D02*
X147119476Y-95784381D01*
X147500429Y-95784381D01*
X147595667Y-95832000D01*
X147643286Y-95879619D01*
X147690905Y-95974857D01*
X147690905Y-96117714D01*
X147643286Y-96212952D01*
X147595667Y-96260571D01*
X147500429Y-96308190D01*
X147119476Y-96308190D01*
X148309952Y-95784381D02*
X148500429Y-95784381D01*
X148595667Y-95832000D01*
X148690905Y-95927238D01*
X148738524Y-96117714D01*
X148738524Y-96451048D01*
X148690905Y-96641524D01*
X148595667Y-96736762D01*
X148500429Y-96784381D01*
X148309952Y-96784381D01*
X148214714Y-96736762D01*
X148119476Y-96641524D01*
X148071857Y-96451048D01*
X148071857Y-96117714D01*
X148119476Y-95927238D01*
X148214714Y-95832000D01*
X148309952Y-95784381D01*
X149357571Y-95784381D02*
X149548048Y-95784381D01*
X149643286Y-95832000D01*
X149738524Y-95927238D01*
X149786143Y-96117714D01*
X149786143Y-96451048D01*
X149738524Y-96641524D01*
X149643286Y-96736762D01*
X149548048Y-96784381D01*
X149357571Y-96784381D01*
X149262333Y-96736762D01*
X149167095Y-96641524D01*
X149119476Y-96451048D01*
X149119476Y-96117714D01*
X149167095Y-95927238D01*
X149262333Y-95832000D01*
X149357571Y-95784381D01*
X150214714Y-96784381D02*
X150214714Y-95784381D01*
X150548048Y-96498667D01*
X150881381Y-95784381D01*
X150881381Y-96784381D01*
X133040381Y-75160095D02*
X132040381Y-75160095D01*
X132040381Y-74779142D01*
X132088000Y-74683904D01*
X132135619Y-74636285D01*
X132230857Y-74588666D01*
X132373714Y-74588666D01*
X132468952Y-74636285D01*
X132516571Y-74683904D01*
X132564190Y-74779142D01*
X132564190Y-75160095D01*
X132040381Y-74255333D02*
X132040381Y-73636285D01*
X132421333Y-73969619D01*
X132421333Y-73826761D01*
X132468952Y-73731523D01*
X132516571Y-73683904D01*
X132611810Y-73636285D01*
X132849905Y-73636285D01*
X132945143Y-73683904D01*
X132992762Y-73731523D01*
X133040381Y-73826761D01*
X133040381Y-74112476D01*
X132992762Y-74207714D01*
X132945143Y-74255333D01*
X122423334Y-87477143D02*
X122375715Y-87524762D01*
X122232858Y-87572381D01*
X122137620Y-87572381D01*
X121994762Y-87524762D01*
X121899524Y-87429524D01*
X121851905Y-87334286D01*
X121804286Y-87143810D01*
X121804286Y-87000952D01*
X121851905Y-86810476D01*
X121899524Y-86715238D01*
X121994762Y-86620000D01*
X122137620Y-86572381D01*
X122232858Y-86572381D01*
X122375715Y-86620000D01*
X122423334Y-86667619D01*
X123375715Y-87572381D02*
X122804286Y-87572381D01*
X123090000Y-87572381D02*
X123090000Y-86572381D01*
X122994762Y-86715238D01*
X122899524Y-86810476D01*
X122804286Y-86858095D01*
X112112063Y-80186826D02*
X112159682Y-80234445D01*
X112207301Y-80377302D01*
X112207301Y-80472540D01*
X112159682Y-80615398D01*
X112064444Y-80710636D01*
X111969206Y-80758255D01*
X111778730Y-80805874D01*
X111635872Y-80805874D01*
X111445396Y-80758255D01*
X111350158Y-80710636D01*
X111254920Y-80615398D01*
X111207301Y-80472540D01*
X111207301Y-80377302D01*
X111254920Y-80234445D01*
X111302539Y-80186826D01*
X111302539Y-79805874D02*
X111254920Y-79758255D01*
X111207301Y-79663017D01*
X111207301Y-79424921D01*
X111254920Y-79329683D01*
X111302539Y-79282064D01*
X111397777Y-79234445D01*
X111493015Y-79234445D01*
X111635872Y-79282064D01*
X112207301Y-79853493D01*
X112207301Y-79234445D01*
X121628095Y-70268381D02*
X121628095Y-71077905D01*
X121675714Y-71173143D01*
X121723333Y-71220762D01*
X121818571Y-71268381D01*
X122009048Y-71268381D01*
X122104286Y-71220762D01*
X122151905Y-71173143D01*
X122199524Y-71077905D01*
X122199524Y-70268381D01*
X123199524Y-71268381D02*
X122628095Y-71268381D01*
X122913809Y-71268381D02*
X122913809Y-70268381D01*
X122818571Y-70411238D01*
X122723333Y-70506476D01*
X122628095Y-70554095D01*
X118438095Y-106482381D02*
X118438095Y-105482381D01*
X118866666Y-105577619D02*
X118914285Y-105530000D01*
X119009523Y-105482381D01*
X119247619Y-105482381D01*
X119342857Y-105530000D01*
X119390476Y-105577619D01*
X119438095Y-105672857D01*
X119438095Y-105768095D01*
X119390476Y-105910952D01*
X118819047Y-106482381D01*
X119438095Y-106482381D01*
X120438095Y-106387143D02*
X120390476Y-106434762D01*
X120247619Y-106482381D01*
X120152381Y-106482381D01*
X120009523Y-106434762D01*
X119914285Y-106339524D01*
X119866666Y-106244286D01*
X119819047Y-106053810D01*
X119819047Y-105910952D01*
X119866666Y-105720476D01*
X119914285Y-105625238D01*
X120009523Y-105530000D01*
X120152381Y-105482381D01*
X120247619Y-105482381D01*
X120390476Y-105530000D01*
X120438095Y-105577619D01*
X122104762Y-106482381D02*
X121628571Y-106482381D01*
X121628571Y-105482381D01*
X123009524Y-106387143D02*
X122961905Y-106434762D01*
X122819048Y-106482381D01*
X122723810Y-106482381D01*
X122580952Y-106434762D01*
X122485714Y-106339524D01*
X122438095Y-106244286D01*
X122390476Y-106053810D01*
X122390476Y-105910952D01*
X122438095Y-105720476D01*
X122485714Y-105625238D01*
X122580952Y-105530000D01*
X122723810Y-105482381D01*
X122819048Y-105482381D01*
X122961905Y-105530000D01*
X123009524Y-105577619D01*
X123438095Y-106482381D02*
X123438095Y-105482381D01*
X123676190Y-105482381D01*
X123819048Y-105530000D01*
X123914286Y-105625238D01*
X123961905Y-105720476D01*
X124009524Y-105910952D01*
X124009524Y-106053810D01*
X123961905Y-106244286D01*
X123914286Y-106339524D01*
X123819048Y-106434762D01*
X123676190Y-106482381D01*
X123438095Y-106482381D01*
X116271905Y-103972381D02*
X116271905Y-102972381D01*
X116652858Y-102972381D01*
X116748096Y-103020000D01*
X116795715Y-103067619D01*
X116843334Y-103162857D01*
X116843334Y-103305714D01*
X116795715Y-103400952D01*
X116748096Y-103448571D01*
X116652858Y-103496190D01*
X116271905Y-103496190D01*
X117700477Y-103305714D02*
X117700477Y-103972381D01*
X117462381Y-102924762D02*
X117224286Y-103639048D01*
X117843334Y-103639048D01*
X116850000Y-96542381D02*
X116850000Y-95542381D01*
X117897619Y-96542381D02*
X117564285Y-96066190D01*
X117326190Y-96542381D02*
X117326190Y-95542381D01*
X117707143Y-95542381D01*
X117802381Y-95590000D01*
X117850000Y-95637619D01*
X117897619Y-95732857D01*
X117897619Y-95875714D01*
X117850000Y-95970952D01*
X117802381Y-96018571D01*
X117707143Y-96066190D01*
X117326190Y-96066190D01*
X120811904Y-90898571D02*
X121145238Y-90898571D01*
X121288095Y-91422381D02*
X120811904Y-91422381D01*
X120811904Y-90422381D01*
X121288095Y-90422381D01*
X121716666Y-90755714D02*
X121716666Y-91422381D01*
X121716666Y-90850952D02*
X121764285Y-90803333D01*
X121859523Y-90755714D01*
X122002381Y-90755714D01*
X122097619Y-90803333D01*
X122145238Y-90898571D01*
X122145238Y-91422381D01*
X123050000Y-91374762D02*
X122954762Y-91422381D01*
X122764285Y-91422381D01*
X122669047Y-91374762D01*
X122621428Y-91327143D01*
X122573809Y-91231905D01*
X122573809Y-90946190D01*
X122621428Y-90850952D01*
X122669047Y-90803333D01*
X122764285Y-90755714D01*
X122954762Y-90755714D01*
X123050000Y-90803333D01*
X123621428Y-91422381D02*
X123526190Y-91374762D01*
X123478571Y-91327143D01*
X123430952Y-91231905D01*
X123430952Y-90946190D01*
X123478571Y-90850952D01*
X123526190Y-90803333D01*
X123621428Y-90755714D01*
X123764286Y-90755714D01*
X123859524Y-90803333D01*
X123907143Y-90850952D01*
X123954762Y-90946190D01*
X123954762Y-91231905D01*
X123907143Y-91327143D01*
X123859524Y-91374762D01*
X123764286Y-91422381D01*
X123621428Y-91422381D01*
X124811905Y-91422381D02*
X124811905Y-90422381D01*
X124811905Y-91374762D02*
X124716667Y-91422381D01*
X124526190Y-91422381D01*
X124430952Y-91374762D01*
X124383333Y-91327143D01*
X124335714Y-91231905D01*
X124335714Y-90946190D01*
X124383333Y-90850952D01*
X124430952Y-90803333D01*
X124526190Y-90755714D01*
X124716667Y-90755714D01*
X124811905Y-90803333D01*
X125669048Y-91374762D02*
X125573810Y-91422381D01*
X125383333Y-91422381D01*
X125288095Y-91374762D01*
X125240476Y-91279524D01*
X125240476Y-90898571D01*
X125288095Y-90803333D01*
X125383333Y-90755714D01*
X125573810Y-90755714D01*
X125669048Y-90803333D01*
X125716667Y-90898571D01*
X125716667Y-90993810D01*
X125240476Y-91089048D01*
X126145238Y-91422381D02*
X126145238Y-90755714D01*
X126145238Y-90946190D02*
X126192857Y-90850952D01*
X126240476Y-90803333D01*
X126335714Y-90755714D01*
X126430953Y-90755714D01*
X123327143Y-112387381D02*
X122850952Y-112387381D01*
X122850952Y-111387381D01*
X123660476Y-111863571D02*
X123993810Y-111863571D01*
X124136667Y-112387381D02*
X123660476Y-112387381D01*
X123660476Y-111387381D01*
X124136667Y-111387381D01*
X124565238Y-112387381D02*
X124565238Y-111387381D01*
X124803333Y-111387381D01*
X124946191Y-111435000D01*
X125041429Y-111530238D01*
X125089048Y-111625476D01*
X125136667Y-111815952D01*
X125136667Y-111958810D01*
X125089048Y-112149286D01*
X125041429Y-112244524D01*
X124946191Y-112339762D01*
X124803333Y-112387381D01*
X124565238Y-112387381D01*
X141141905Y-112212381D02*
X140808571Y-111736190D01*
X140570476Y-112212381D02*
X140570476Y-111212381D01*
X140951429Y-111212381D01*
X141046667Y-111260000D01*
X141094286Y-111307619D01*
X141141905Y-111402857D01*
X141141905Y-111545714D01*
X141094286Y-111640952D01*
X141046667Y-111688571D01*
X140951429Y-111736190D01*
X140570476Y-111736190D01*
X141951429Y-112164762D02*
X141856191Y-112212381D01*
X141665714Y-112212381D01*
X141570476Y-112164762D01*
X141522857Y-112069524D01*
X141522857Y-111688571D01*
X141570476Y-111593333D01*
X141665714Y-111545714D01*
X141856191Y-111545714D01*
X141951429Y-111593333D01*
X141999048Y-111688571D01*
X141999048Y-111783810D01*
X141522857Y-111879048D01*
X142380000Y-112164762D02*
X142475238Y-112212381D01*
X142665714Y-112212381D01*
X142760953Y-112164762D01*
X142808572Y-112069524D01*
X142808572Y-112021905D01*
X142760953Y-111926667D01*
X142665714Y-111879048D01*
X142522857Y-111879048D01*
X142427619Y-111831429D01*
X142380000Y-111736190D01*
X142380000Y-111688571D01*
X142427619Y-111593333D01*
X142522857Y-111545714D01*
X142665714Y-111545714D01*
X142760953Y-111593333D01*
X143618096Y-112164762D02*
X143522858Y-112212381D01*
X143332381Y-112212381D01*
X143237143Y-112164762D01*
X143189524Y-112069524D01*
X143189524Y-111688571D01*
X143237143Y-111593333D01*
X143332381Y-111545714D01*
X143522858Y-111545714D01*
X143618096Y-111593333D01*
X143665715Y-111688571D01*
X143665715Y-111783810D01*
X143189524Y-111879048D01*
X143951429Y-111545714D02*
X144332381Y-111545714D01*
X144094286Y-111212381D02*
X144094286Y-112069524D01*
X144141905Y-112164762D01*
X144237143Y-112212381D01*
X144332381Y-112212381D01*
X131156667Y-112102381D02*
X131156667Y-111102381D01*
X131537620Y-111102381D01*
X131632858Y-111150000D01*
X131680477Y-111197619D01*
X131728096Y-111292857D01*
X131728096Y-111435714D01*
X131680477Y-111530952D01*
X131632858Y-111578571D01*
X131537620Y-111626190D01*
X131156667Y-111626190D01*
X132680477Y-111150000D02*
X132585239Y-111102381D01*
X132442382Y-111102381D01*
X132299524Y-111150000D01*
X132204286Y-111245238D01*
X132156667Y-111340476D01*
X132109048Y-111530952D01*
X132109048Y-111673810D01*
X132156667Y-111864286D01*
X132204286Y-111959524D01*
X132299524Y-112054762D01*
X132442382Y-112102381D01*
X132537620Y-112102381D01*
X132680477Y-112054762D01*
X132728096Y-112007143D01*
X132728096Y-111673810D01*
X132537620Y-111673810D01*
X133156667Y-112102381D02*
X133156667Y-111102381D01*
X133490001Y-111816667D01*
X133823334Y-111102381D01*
X133823334Y-112102381D01*
X127821429Y-83322381D02*
X127821429Y-82322381D01*
X128630953Y-82798571D02*
X128297619Y-82798571D01*
X128297619Y-83322381D02*
X128297619Y-82322381D01*
X128773810Y-82322381D01*
X129726191Y-83227143D02*
X129678572Y-83274762D01*
X129535715Y-83322381D01*
X129440477Y-83322381D01*
X129297619Y-83274762D01*
X129202381Y-83179524D01*
X129154762Y-83084286D01*
X129107143Y-82893810D01*
X129107143Y-82750952D01*
X129154762Y-82560476D01*
X129202381Y-82465238D01*
X129297619Y-82370000D01*
X129440477Y-82322381D01*
X129535715Y-82322381D01*
X129678572Y-82370000D01*
X129726191Y-82417619D01*
M02*
