M48
;DRILL file {KiCad 4.0.7} date Tue Jan 30 18:33:01 2018
;FORMAT={-:-/ absolute / metric / decimal}
FMAT,2
METRIC,TZ
T1C0.400
T2C0.800
T3C0.900
T4C1.000
T5C1.016
T6C1.100
%
G90
G05
M71
T1
X119.7Y-92.325
X122.41Y-74.9
X124.14Y-88.54
X125.95Y-86.98
X130.875Y-85.375
X133.175Y-101.725
X133.925Y-80.85
X134.92Y-84.73
X134.92Y-96.15
X135.9Y-102.13
X136.35Y-91.42
X136.78Y-95.14
X139.7Y-102.2
X140.35Y-86.4
X142.025Y-102.225
X147.9Y-80.7
X148.13Y-84.75
X150.425Y-80.675
X150.45Y-101.7
T2
X142.725Y-90.825
T3
X122.7Y-108.975
X125.24Y-108.975
T4
X117.125Y-98.525
X117.125Y-101.065
X117.125Y-103.605
X120.975Y-95.98
X120.975Y-98.52
X120.975Y-101.06
X120.975Y-103.6
X124.825Y-93.425
X124.825Y-95.965
X124.825Y-98.505
X124.825Y-101.045
X124.825Y-103.585
X128.58Y-85.42
X128.58Y-87.96
X128.58Y-90.5
X128.58Y-93.04
T5
X135.64Y-73.06
X135.64Y-75.6
X138.18Y-73.06
X138.18Y-75.6
X140.72Y-73.06
X140.72Y-75.6
X143.26Y-73.06
X143.26Y-75.6
X145.8Y-73.06
X145.8Y-75.6
T6
X129.225Y-104.85
X129.225Y-109.35
X135.725Y-104.85
X135.725Y-109.35
X138.825Y-104.85
X138.825Y-109.35
X145.325Y-104.85
X145.325Y-109.35
T0
M30
