G04 #@! TF.FileFunction,Legend,Bot*
%FSLAX46Y46*%
G04 Gerber Fmt 4.6, Leading zero omitted, Abs format (unit mm)*
G04 Created by KiCad (PCBNEW 4.0.7) date Tue Jan 30 18:32:58 2018*
%MOMM*%
%LPD*%
G01*
G04 APERTURE LIST*
%ADD10C,0.100000*%
%ADD11C,0.150000*%
%ADD12C,0.120000*%
G04 APERTURE END LIST*
D10*
D11*
X143486166Y-77171301D02*
X143152833Y-78171301D01*
X142819499Y-77171301D01*
X142533785Y-78123682D02*
X142390928Y-78171301D01*
X142152832Y-78171301D01*
X142057594Y-78123682D01*
X142009975Y-78076063D01*
X141962356Y-77980825D01*
X141962356Y-77885587D01*
X142009975Y-77790349D01*
X142057594Y-77742730D01*
X142152832Y-77695110D01*
X142343309Y-77647491D01*
X142438547Y-77599872D01*
X142486166Y-77552253D01*
X142533785Y-77457015D01*
X142533785Y-77361777D01*
X142486166Y-77266539D01*
X142438547Y-77218920D01*
X142343309Y-77171301D01*
X142105213Y-77171301D01*
X141962356Y-77218920D01*
X141009975Y-78171301D02*
X141581404Y-78171301D01*
X141295690Y-78171301D02*
X141295690Y-77171301D01*
X141390928Y-77314158D01*
X141486166Y-77409396D01*
X141581404Y-77457015D01*
X140390928Y-77171301D02*
X140295689Y-77171301D01*
X140200451Y-77218920D01*
X140152832Y-77266539D01*
X140105213Y-77361777D01*
X140057594Y-77552253D01*
X140057594Y-77790349D01*
X140105213Y-77980825D01*
X140152832Y-78076063D01*
X140200451Y-78123682D01*
X140295689Y-78171301D01*
X140390928Y-78171301D01*
X140486166Y-78123682D01*
X140533785Y-78076063D01*
X140581404Y-77980825D01*
X140629023Y-77790349D01*
X140629023Y-77552253D01*
X140581404Y-77361777D01*
X140533785Y-77266539D01*
X140486166Y-77218920D01*
X140390928Y-77171301D01*
X139152832Y-77171301D02*
X139629023Y-77171301D01*
X139676642Y-77647491D01*
X139629023Y-77599872D01*
X139533785Y-77552253D01*
X139295689Y-77552253D01*
X139200451Y-77599872D01*
X139152832Y-77647491D01*
X139105213Y-77742730D01*
X139105213Y-77980825D01*
X139152832Y-78076063D01*
X139200451Y-78123682D01*
X139295689Y-78171301D01*
X139533785Y-78171301D01*
X139629023Y-78123682D01*
X139676642Y-78076063D01*
X138771880Y-77171301D02*
X138152832Y-77171301D01*
X138486166Y-77552253D01*
X138343308Y-77552253D01*
X138248070Y-77599872D01*
X138200451Y-77647491D01*
X138152832Y-77742730D01*
X138152832Y-77980825D01*
X138200451Y-78076063D01*
X138248070Y-78123682D01*
X138343308Y-78171301D01*
X138629023Y-78171301D01*
X138724261Y-78123682D01*
X138771880Y-78076063D01*
X109800000Y-113600000D02*
X109800000Y-69600000D01*
X153800000Y-113600000D02*
X109800000Y-113600000D01*
X153800000Y-69600000D02*
X153800000Y-113600000D01*
X109800000Y-69600000D02*
X153800000Y-69600000D01*
X147070000Y-71790000D02*
X134370000Y-71790000D01*
X134370000Y-71790000D02*
X134370000Y-76870000D01*
X134370000Y-76870000D02*
X144530000Y-76870000D01*
X147070000Y-71790000D02*
X147070000Y-74330000D01*
X147350000Y-75600000D02*
X147350000Y-77150000D01*
X147070000Y-74330000D02*
X144530000Y-74330000D01*
X144530000Y-74330000D02*
X144530000Y-76870000D01*
X147350000Y-77150000D02*
X145800000Y-77150000D01*
X119049940Y-94325640D02*
X109850060Y-94325640D01*
X119049940Y-86624360D02*
X119049940Y-94325640D01*
X109850060Y-86624360D02*
X119049940Y-86624360D01*
X109850060Y-94325640D02*
X109850060Y-86624360D01*
X110850820Y-94325640D02*
X110850820Y-86624360D01*
D12*
X148640000Y-79400000D02*
X149840000Y-79400000D01*
X149840000Y-77640000D02*
X148640000Y-77640000D01*
X118220000Y-108350000D02*
X118220000Y-109550000D01*
X119980000Y-109550000D02*
X119980000Y-108350000D01*
D11*
X118640476Y-83026201D02*
X118640476Y-83835725D01*
X118592857Y-83930963D01*
X118545238Y-83978582D01*
X118450000Y-84026201D01*
X118259523Y-84026201D01*
X118164285Y-83978582D01*
X118116666Y-83930963D01*
X118069047Y-83835725D01*
X118069047Y-83026201D01*
X117640476Y-83978582D02*
X117497619Y-84026201D01*
X117259523Y-84026201D01*
X117164285Y-83978582D01*
X117116666Y-83930963D01*
X117069047Y-83835725D01*
X117069047Y-83740487D01*
X117116666Y-83645249D01*
X117164285Y-83597630D01*
X117259523Y-83550010D01*
X117450000Y-83502391D01*
X117545238Y-83454772D01*
X117592857Y-83407153D01*
X117640476Y-83311915D01*
X117640476Y-83216677D01*
X117592857Y-83121439D01*
X117545238Y-83073820D01*
X117450000Y-83026201D01*
X117211904Y-83026201D01*
X117069047Y-83073820D01*
X116307142Y-83502391D02*
X116164285Y-83550010D01*
X116116666Y-83597630D01*
X116069047Y-83692868D01*
X116069047Y-83835725D01*
X116116666Y-83930963D01*
X116164285Y-83978582D01*
X116259523Y-84026201D01*
X116640476Y-84026201D01*
X116640476Y-83026201D01*
X116307142Y-83026201D01*
X116211904Y-83073820D01*
X116164285Y-83121439D01*
X116116666Y-83216677D01*
X116116666Y-83311915D01*
X116164285Y-83407153D01*
X116211904Y-83454772D01*
X116307142Y-83502391D01*
X116640476Y-83502391D01*
X114878571Y-84026201D02*
X114878571Y-83026201D01*
X114497618Y-83026201D01*
X114402380Y-83073820D01*
X114354761Y-83121439D01*
X114307142Y-83216677D01*
X114307142Y-83359534D01*
X114354761Y-83454772D01*
X114402380Y-83502391D01*
X114497618Y-83550010D01*
X114878571Y-83550010D01*
X113688095Y-83026201D02*
X113497618Y-83026201D01*
X113402380Y-83073820D01*
X113307142Y-83169058D01*
X113259523Y-83359534D01*
X113259523Y-83692868D01*
X113307142Y-83883344D01*
X113402380Y-83978582D01*
X113497618Y-84026201D01*
X113688095Y-84026201D01*
X113783333Y-83978582D01*
X113878571Y-83883344D01*
X113926190Y-83692868D01*
X113926190Y-83359534D01*
X113878571Y-83169058D01*
X113783333Y-83073820D01*
X113688095Y-83026201D01*
X112926190Y-83026201D02*
X112688095Y-84026201D01*
X112497618Y-83311915D01*
X112307142Y-84026201D01*
X112069047Y-83026201D01*
X111688095Y-83502391D02*
X111354761Y-83502391D01*
X111211904Y-84026201D02*
X111688095Y-84026201D01*
X111688095Y-83026201D01*
X111211904Y-83026201D01*
X110211904Y-84026201D02*
X110545238Y-83550010D01*
X110783333Y-84026201D02*
X110783333Y-83026201D01*
X110402380Y-83026201D01*
X110307142Y-83073820D01*
X110259523Y-83121439D01*
X110211904Y-83216677D01*
X110211904Y-83359534D01*
X110259523Y-83454772D01*
X110307142Y-83502391D01*
X110402380Y-83550010D01*
X110783333Y-83550010D01*
X149406666Y-77272381D02*
X149740000Y-76796190D01*
X149978095Y-77272381D02*
X149978095Y-76272381D01*
X149597142Y-76272381D01*
X149501904Y-76320000D01*
X149454285Y-76367619D01*
X149406666Y-76462857D01*
X149406666Y-76605714D01*
X149454285Y-76700952D01*
X149501904Y-76748571D01*
X149597142Y-76796190D01*
X149978095Y-76796190D01*
X148454285Y-77272381D02*
X149025714Y-77272381D01*
X148740000Y-77272381D02*
X148740000Y-76272381D01*
X148835238Y-76415238D01*
X148930476Y-76510476D01*
X149025714Y-76558095D01*
X121252381Y-108783334D02*
X120776190Y-108450000D01*
X121252381Y-108211905D02*
X120252381Y-108211905D01*
X120252381Y-108592858D01*
X120300000Y-108688096D01*
X120347619Y-108735715D01*
X120442857Y-108783334D01*
X120585714Y-108783334D01*
X120680952Y-108735715D01*
X120728571Y-108688096D01*
X120776190Y-108592858D01*
X120776190Y-108211905D01*
X120347619Y-109164286D02*
X120300000Y-109211905D01*
X120252381Y-109307143D01*
X120252381Y-109545239D01*
X120300000Y-109640477D01*
X120347619Y-109688096D01*
X120442857Y-109735715D01*
X120538095Y-109735715D01*
X120680952Y-109688096D01*
X121252381Y-109116667D01*
X121252381Y-109735715D01*
M02*
