G04 #@! TF.FileFunction,Soldermask,Bot*
%FSLAX46Y46*%
G04 Gerber Fmt 4.6, Leading zero omitted, Abs format (unit mm)*
G04 Created by KiCad (PCBNEW 4.0.7) date Tue Jan 30 18:32:58 2018*
%MOMM*%
%LPD*%
G01*
G04 APERTURE LIST*
%ADD10C,0.100000*%
%ADD11C,0.150000*%
%ADD12O,2.127200X2.127200*%
%ADD13R,2.127200X2.127200*%
%ADD14C,3.400000*%
%ADD15R,2.701240X0.900380*%
%ADD16R,2.899360X2.398980*%
%ADD17C,1.299160*%
%ADD18R,2.100000X2.100000*%
%ADD19O,2.100000X2.100000*%
%ADD20R,2.200000X2.200000*%
%ADD21C,2.200000*%
%ADD22R,1.900000X1.700000*%
%ADD23R,1.700000X1.900000*%
%ADD24C,2.400000*%
G04 APERTURE END LIST*
D10*
D11*
X109800000Y-113600000D02*
X109800000Y-69600000D01*
X153800000Y-113600000D02*
X109800000Y-113600000D01*
X153800000Y-69600000D02*
X153800000Y-113600000D01*
X109800000Y-69600000D02*
X153800000Y-69600000D01*
D12*
X135640000Y-73060000D03*
X135640000Y-75600000D03*
X138180000Y-73060000D03*
X138180000Y-75600000D03*
X140720000Y-73060000D03*
X140720000Y-75600000D03*
X143260000Y-73060000D03*
X143260000Y-75600000D03*
X145800000Y-73060000D03*
D13*
X145800000Y-75600000D03*
D14*
X113300000Y-109600000D03*
X113300000Y-72700000D03*
X150300000Y-109600000D03*
X150300000Y-72600000D03*
D15*
X117899320Y-92075200D03*
X117899320Y-91275100D03*
X117899320Y-90475000D03*
X117899320Y-89674900D03*
X117899320Y-88874800D03*
D16*
X117800260Y-94925080D03*
X112301160Y-94925080D03*
X117800260Y-86024920D03*
X112301160Y-86024920D03*
D17*
X115300900Y-92674640D03*
X115300900Y-88275360D03*
D18*
X120975000Y-103600000D03*
D19*
X120975000Y-101060000D03*
X120975000Y-98520000D03*
X120975000Y-95980000D03*
D18*
X117125000Y-98525000D03*
D19*
X117125000Y-101065000D03*
X117125000Y-103605000D03*
D18*
X124825000Y-93425000D03*
D19*
X124825000Y-95965000D03*
X124825000Y-98505000D03*
X124825000Y-101045000D03*
X124825000Y-103585000D03*
D20*
X122700000Y-108975000D03*
D21*
X125240000Y-108975000D03*
D22*
X150590000Y-78520000D03*
X147890000Y-78520000D03*
D23*
X119100000Y-110300000D03*
X119100000Y-107600000D03*
D24*
X145325000Y-104850000D03*
X145325000Y-109350000D03*
X138825000Y-104850000D03*
X138825000Y-109350000D03*
X129225000Y-109350000D03*
X129225000Y-104850000D03*
X135725000Y-109350000D03*
X135725000Y-104850000D03*
D18*
X128580000Y-93040000D03*
D19*
X128580000Y-90500000D03*
X128580000Y-87960000D03*
X128580000Y-85420000D03*
M02*
